<?xml version="1.0" encoding="utf-8"?>
<!-- Generator: Adobe Illustrator 21.0.0, SVG Export Plug-In . SVG Version: 6.00 Build 0)  -->
<svg version="1.1" xmlns="http://www.w3.org/2000/svg" xmlns:xlink="http://www.w3.org/1999/xlink" x="0px" y="0px"
	 viewBox="0 0 730 320" style="enable-background:new 0 0 730 320;" xml:space="preserve">
<style type="text/css">
	.st0{fill:#4D4D4D;}
	.st1{fill:#808080;}
	.st2{fill:none;stroke:#666666;}
	.st3{fill:none;stroke:#333333;stroke-width:2;}
	.st4{fill:#FFA1A1;stroke:#333333;stroke-width:2;}
	.st5{fill:#FFD9D9;stroke:#333333;stroke-width:2;}
</style>
<g id="Layer_1">
	<g>
		<g>
			<path class="st0" d="M325.8,292.5v-7.4h1l2.4,3.8c0.5,0.9,1,1.6,1.3,2.4l0,0c-0.1-1-0.1-1.9-0.1-3v-3.1h0.9v7.4h-1l-2.4-3.8
				c-0.5-0.8-1-1.7-1.4-2.5l0,0c0.1,0.9,0.1,1.8,0.1,3.1v3.2H325.8z"/>
			<path class="st0" d="M337.5,291.1c0,0.5,0,1,0,1.5h-0.9l-0.1-0.9h0c-0.3,0.4-0.8,1-1.8,1c-0.8,0-1.8-0.5-1.8-2.3v-3.1h1v2.9
				c0,1,0.3,1.7,1.2,1.7c0.6,0,1.1-0.5,1.3-0.9c0.1-0.1,0.1-0.3,0.1-0.5v-3.3h1V291.1z M336.8,284.9l-1.3,1.6h-0.7l1-1.6H336.8z"/>
			<path class="st0" d="M339.1,288.6c0-0.5,0-1,0-1.4h0.8l0,0.9h0c0.3-0.5,0.8-1,1.7-1c0.7,0,1.3,0.4,1.5,1.1h0
				c0.2-0.3,0.4-0.5,0.6-0.7c0.3-0.2,0.7-0.4,1.2-0.4c0.7,0,1.7,0.5,1.7,2.3v3.1h-0.9v-3c0-1-0.4-1.6-1.2-1.6c-0.5,0-1,0.4-1.1,0.9
				c0,0.1-0.1,0.3-0.1,0.5v3.3h-0.9v-3.2c0-0.8-0.4-1.5-1.1-1.5c-0.6,0-1,0.5-1.2,1c-0.1,0.1-0.1,0.3-0.1,0.5v3.2h-0.9V288.6z"/>
			<path class="st0" d="M348.8,290c0,1.3,0.9,1.8,1.8,1.8c0.7,0,1.1-0.1,1.5-0.3l0.2,0.7c-0.3,0.2-0.9,0.3-1.8,0.3
				c-1.6,0-2.6-1.1-2.6-2.7s0.9-2.9,2.5-2.9c1.7,0,2.2,1.5,2.2,2.5c0,0.2,0,0.4,0,0.5H348.8z M351.6,289.3c0-0.6-0.3-1.6-1.3-1.6
				c-1,0-1.4,0.9-1.5,1.6H351.6z"/>
			<path class="st0" d="M353.8,288.8c0-0.6,0-1.2,0-1.7h0.8l0,1h0c0.2-0.7,0.8-1.2,1.5-1.2c0.1,0,0.2,0,0.3,0v0.9
				c-0.1,0-0.2,0-0.3,0c-0.7,0-1.2,0.5-1.3,1.2c0,0.1,0,0.3,0,0.5v2.8h-1V288.8z"/>
			<path class="st0" d="M362.1,289.8c0,2-1.4,2.8-2.7,2.8c-1.4,0-2.6-1.1-2.6-2.7c0-1.8,1.2-2.8,2.6-2.8
				C361,287.1,362.1,288.2,362.1,289.8z M357.9,289.9c0,1.2,0.7,2,1.6,2c0.9,0,1.6-0.9,1.6-2.1c0-0.9-0.5-2-1.6-2
				C358.3,287.8,357.9,288.8,357.9,289.9z"/>
			<path class="st0" d="M370.2,284.7v6.4c0,0.5,0,1,0,1.4h-0.9l0-0.9h0c-0.3,0.6-0.9,1-1.8,1c-1.3,0-2.3-1.1-2.3-2.7
				c0-1.8,1.1-2.9,2.4-2.9c0.8,0,1.4,0.4,1.6,0.8h0v-3.2H370.2z M369.3,289.3c0-0.1,0-0.3,0-0.4c-0.1-0.6-0.7-1.1-1.4-1.1
				c-1,0-1.6,0.9-1.6,2.1c0,1.1,0.5,2,1.6,2c0.6,0,1.2-0.4,1.4-1.2c0-0.1,0-0.3,0-0.4V289.3z"/>
			<path class="st0" d="M372.4,290c0,1.3,0.9,1.8,1.8,1.8c0.7,0,1.1-0.1,1.5-0.3l0.2,0.7c-0.3,0.2-0.9,0.3-1.8,0.3
				c-1.6,0-2.6-1.1-2.6-2.7s0.9-2.9,2.5-2.9c1.7,0,2.2,1.5,2.2,2.5c0,0.2,0,0.4,0,0.5H372.4z M375.2,289.3c0-0.6-0.3-1.6-1.3-1.6
				c-1,0-1.4,0.9-1.5,1.6H375.2z"/>
			<path class="st0" d="M382.6,292.5l-0.1-0.7h0c-0.3,0.4-0.9,0.8-1.6,0.8c-1.1,0-1.6-0.8-1.6-1.5c0-1.3,1.1-2,3.2-2V289
				c0-0.4-0.1-1.2-1.2-1.2c-0.5,0-1,0.2-1.4,0.4l-0.2-0.6c0.4-0.3,1.1-0.5,1.8-0.5c1.6,0,2,1.1,2,2.2v2c0,0.5,0,0.9,0.1,1.3H382.6z
				 M382.5,289.8c-1.1,0-2.3,0.2-2.3,1.2c0,0.6,0.4,0.9,0.9,0.9c0.7,0,1.1-0.4,1.3-0.9c0-0.1,0.1-0.2,0.1-0.3V289.8z"/>
			<path class="st0" d="M388.8,292.3c-0.3,0.1-0.8,0.3-1.5,0.3c-1.6,0-2.7-1.1-2.7-2.7c0-1.6,1.1-2.8,2.9-2.8c0.6,0,1.1,0.1,1.3,0.3
				l-0.2,0.7c-0.2-0.1-0.6-0.3-1.1-0.3c-1.2,0-1.9,0.9-1.9,2c0,1.2,0.8,2,1.8,2c0.5,0,0.9-0.1,1.2-0.3L388.8,292.3z"/>
			<path class="st0" d="M393.6,292.3c-0.3,0.1-0.8,0.3-1.5,0.3c-1.6,0-2.7-1.1-2.7-2.7c0-1.6,1.1-2.8,2.9-2.8c0.6,0,1.1,0.1,1.3,0.3
				l-0.2,0.7c-0.2-0.1-0.6-0.3-1.1-0.3c-1.2,0-1.9,0.9-1.9,2c0,1.2,0.8,2,1.8,2c0.5,0,0.9-0.1,1.2-0.3L393.6,292.3z"/>
			<path class="st0" d="M395.8,285.7c0,0.3-0.2,0.6-0.6,0.6c-0.3,0-0.6-0.3-0.6-0.6c0-0.3,0.3-0.6,0.6-0.6
				C395.6,285.1,395.8,285.3,395.8,285.7z M394.8,292.5v-5.3h1v5.3H394.8z"/>
			<path class="st0" d="M402.2,289.8c0,2-1.4,2.8-2.7,2.8c-1.4,0-2.6-1.1-2.6-2.7c0-1.8,1.2-2.8,2.6-2.8
				C401.1,287.1,402.2,288.2,402.2,289.8z M397.9,289.9c0,1.2,0.7,2,1.6,2c0.9,0,1.6-0.9,1.6-2.1c0-0.9-0.5-2-1.6-2
				S397.9,288.8,397.9,289.9z"/>
			<path class="st0" d="M403.4,288.6c0-0.5,0-1,0-1.4h0.9l0.1,0.9h0c0.3-0.5,0.9-1,1.8-1c0.7,0,1.9,0.4,1.9,2.3v3.2h-1v-3.1
				c0-0.9-0.3-1.6-1.2-1.6c-0.6,0-1.1,0.5-1.3,1c0,0.1-0.1,0.3-0.1,0.5v3.2h-1V288.6z"/>
			<path class="st0" d="M410,290c0,1.3,0.9,1.8,1.8,1.8c0.7,0,1.1-0.1,1.5-0.3l0.2,0.7c-0.3,0.2-0.9,0.3-1.8,0.3
				c-1.6,0-2.6-1.1-2.6-2.7s0.9-2.9,2.5-2.9c1.7,0,2.2,1.5,2.2,2.5c0,0.2,0,0.4,0,0.5H410z M412.9,289.3c0-0.6-0.3-1.6-1.3-1.6
				c-1,0-1.4,0.9-1.5,1.6H412.9z"/>
			<path class="st0" d="M414.9,291.5c0.3,0.2,0.8,0.4,1.3,0.4c0.7,0,1-0.4,1-0.8c0-0.5-0.3-0.7-1-1c-1-0.3-1.4-0.9-1.4-1.5
				c0-0.9,0.7-1.6,1.8-1.6c0.5,0,1,0.2,1.3,0.3l-0.2,0.7c-0.2-0.1-0.6-0.3-1.1-0.3c-0.6,0-0.9,0.3-0.9,0.7c0,0.4,0.3,0.6,1,0.9
				c0.9,0.4,1.4,0.8,1.4,1.6c0,0.9-0.7,1.6-2,1.6c-0.6,0-1.1-0.1-1.5-0.4L414.9,291.5z"/>
			<path class="st0" d="M422.1,287.2l1,3c0.2,0.5,0.3,0.9,0.4,1.4h0c0.1-0.4,0.3-0.9,0.5-1.4l1-3h1l-2.1,5.3H423l-2-5.3H422.1z"/>
			<path class="st0" d="M427.4,290c0,1.3,0.9,1.8,1.8,1.8c0.7,0,1.1-0.1,1.5-0.3l0.2,0.7c-0.3,0.2-0.9,0.3-1.8,0.3
				c-1.6,0-2.6-1.1-2.6-2.7s0.9-2.9,2.5-2.9c1.7,0,2.2,1.5,2.2,2.5c0,0.2,0,0.4,0,0.5H427.4z M430.2,289.3c0-0.6-0.3-1.6-1.3-1.6
				c-1,0-1.4,0.9-1.5,1.6H430.2z"/>
			<path class="st0" d="M432.4,288.6c0-0.5,0-1,0-1.4h0.9l0.1,0.9h0c0.3-0.5,0.9-1,1.8-1c0.7,0,1.9,0.4,1.9,2.3v3.2h-1v-3.1
				c0-0.9-0.3-1.6-1.2-1.6c-0.6,0-1.1,0.5-1.3,1c0,0.1-0.1,0.3-0.1,0.5v3.2h-1V288.6z"/>
			<path class="st0" d="M443.1,284.7v6.4c0,0.5,0,1,0,1.4h-0.9l0-0.9h0c-0.3,0.6-0.9,1-1.8,1c-1.3,0-2.3-1.1-2.3-2.7
				c0-1.8,1.1-2.9,2.4-2.9c0.8,0,1.4,0.4,1.6,0.8h0v-3.2H443.1z M442.1,289.3c0-0.1,0-0.3,0-0.4c-0.1-0.6-0.7-1.1-1.4-1.1
				c-1,0-1.6,0.9-1.6,2.1c0,1.1,0.5,2,1.6,2c0.6,0,1.2-0.4,1.4-1.2c0-0.1,0-0.3,0-0.4V289.3z"/>
			<path class="st0" d="M445.8,285.7c0,0.3-0.2,0.6-0.6,0.6c-0.3,0-0.6-0.3-0.6-0.6c0-0.3,0.3-0.6,0.6-0.6
				C445.5,285.1,445.8,285.3,445.8,285.7z M444.7,292.5v-5.3h1v5.3H444.7z"/>
			<path class="st0" d="M451.9,284.7v6.4c0,0.5,0,1,0,1.4H451l0-0.9h0c-0.3,0.6-0.9,1-1.8,1c-1.3,0-2.3-1.1-2.3-2.7
				c0-1.8,1.1-2.9,2.4-2.9c0.8,0,1.4,0.4,1.6,0.8h0v-3.2H451.9z M450.9,289.3c0-0.1,0-0.3,0-0.4c-0.1-0.6-0.7-1.1-1.4-1.1
				c-1,0-1.6,0.9-1.6,2.1c0,1.1,0.5,2,1.6,2c0.6,0,1.2-0.4,1.4-1.2c0-0.1,0-0.3,0-0.4V289.3z"/>
			<path class="st0" d="M456.4,292.5l-0.1-0.7h0c-0.3,0.4-0.9,0.8-1.6,0.8c-1.1,0-1.6-0.8-1.6-1.5c0-1.3,1.1-2,3.2-2V289
				c0-0.4-0.1-1.2-1.2-1.2c-0.5,0-1,0.2-1.4,0.4l-0.2-0.6c0.4-0.3,1.1-0.5,1.8-0.5c1.6,0,2,1.1,2,2.2v2c0,0.5,0,0.9,0.1,1.3H456.4z
				 M456.3,289.8c-1.1,0-2.3,0.2-2.3,1.2c0,0.6,0.4,0.9,0.9,0.9c0.7,0,1.1-0.4,1.3-0.9c0-0.1,0.1-0.2,0.1-0.3V289.8z"/>
			<path class="st0" d="M458.6,291.5c0.3,0.2,0.8,0.4,1.3,0.4c0.7,0,1-0.4,1-0.8c0-0.5-0.3-0.7-1-1c-1-0.3-1.4-0.9-1.4-1.5
				c0-0.9,0.7-1.6,1.8-1.6c0.5,0,1,0.2,1.3,0.3l-0.2,0.7c-0.2-0.1-0.6-0.3-1.1-0.3c-0.6,0-0.9,0.3-0.9,0.7c0,0.4,0.3,0.6,1,0.9
				c0.9,0.4,1.4,0.8,1.4,1.6c0,0.9-0.7,1.6-2,1.6c-0.6,0-1.1-0.1-1.5-0.4L458.6,291.5z"/>
		</g>
	</g>
</g>
<g id="Layer_2">
	<g>
		<path class="st0" d="M33.2,56h-2.9v2.7h3.2v0.8h-4.2v-7.4h4v0.8h-3v2.3h2.9V56z"/>
		<path class="st0" d="M34.7,55.6c0-0.5,0-1,0-1.4h0.8l0,0.9h0c0.3-0.5,0.8-1,1.7-1c0.7,0,1.3,0.4,1.5,1.1h0
			c0.2-0.3,0.4-0.5,0.6-0.7c0.3-0.2,0.7-0.4,1.2-0.4c0.7,0,1.7,0.5,1.7,2.3v3.1h-0.9v-3c0-1-0.4-1.6-1.2-1.6c-0.5,0-1,0.4-1.1,0.9
			c0,0.1-0.1,0.3-0.1,0.5v3.3H38v-3.2c0-0.8-0.4-1.5-1.1-1.5c-0.6,0-1,0.5-1.2,1c-0.1,0.1-0.1,0.3-0.1,0.5v3.2h-0.9V55.6z"/>
		<path class="st0" d="M43.9,55.9c0-0.7,0-1.2,0-1.7h0.9l0,0.9h0c0.4-0.6,1-1,1.9-1c1.3,0,2.3,1.1,2.3,2.7c0,1.9-1.2,2.9-2.4,2.9
			c-0.7,0-1.3-0.3-1.6-0.8h0v2.9h-1V55.9z M44.8,57.3c0,0.1,0,0.3,0,0.4c0.2,0.7,0.8,1.1,1.5,1.1c1,0,1.6-0.8,1.6-2.1
			c0-1.1-0.6-2-1.6-2c-0.7,0-1.3,0.5-1.5,1.2c0,0.1-0.1,0.3-0.1,0.4V57.3z"/>
		<path class="st0" d="M50.1,55.8c0-0.6,0-1.2,0-1.7H51l0,1h0c0.2-0.7,0.8-1.2,1.5-1.2c0.1,0,0.2,0,0.3,0V55c-0.1,0-0.2,0-0.3,0
			c-0.7,0-1.2,0.5-1.3,1.2c0,0.1,0,0.3,0,0.5v2.8h-1V55.8z"/>
		<path class="st0" d="M54.2,57c0,1.3,0.9,1.8,1.8,1.8c0.7,0,1.1-0.1,1.5-0.3l0.2,0.7c-0.3,0.2-0.9,0.3-1.8,0.3
			c-1.6,0-2.6-1.1-2.6-2.7c0-1.6,0.9-2.9,2.5-2.9c1.7,0,2.2,1.5,2.2,2.5c0,0.2,0,0.4,0,0.5H54.2z M57,56.3c0-0.6-0.3-1.6-1.3-1.6
			c-1,0-1.4,0.9-1.5,1.6H57z"/>
		<path class="st0" d="M59,58.5c0.3,0.2,0.8,0.4,1.3,0.4c0.7,0,1-0.4,1-0.8c0-0.5-0.3-0.7-1-1c-1-0.3-1.4-0.9-1.4-1.5
			c0-0.9,0.7-1.6,1.8-1.6c0.5,0,1,0.2,1.3,0.3l-0.2,0.7c-0.2-0.1-0.6-0.3-1.1-0.3c-0.6,0-0.9,0.3-0.9,0.7c0,0.4,0.3,0.6,1,0.9
			c0.9,0.4,1.4,0.8,1.4,1.6c0,0.9-0.7,1.6-2,1.6c-0.6,0-1.1-0.1-1.5-0.4L59,58.5z"/>
		<path class="st0" d="M66.5,59.5l-0.1-0.7h0c-0.3,0.4-0.9,0.8-1.6,0.8c-1.1,0-1.6-0.8-1.6-1.5c0-1.3,1.1-2,3.2-2V56
			c0-0.4-0.1-1.2-1.2-1.2c-0.5,0-1,0.2-1.4,0.4l-0.2-0.6c0.4-0.3,1.1-0.5,1.7-0.5c1.6,0,2,1.1,2,2.2v2c0,0.5,0,0.9,0.1,1.3H66.5z
			 M66.3,56.8c-1.1,0-2.3,0.2-2.3,1.2c0,0.6,0.4,0.9,0.9,0.9c0.7,0,1.1-0.4,1.3-0.9c0-0.1,0.1-0.2,0.1-0.3V56.8z"/>
		<path class="st0" d="M72.4,57.2l-0.8,2.3h-1l2.5-7.4h1.2l2.5,7.4h-1L75,57.2H72.4z M74.8,56.4l-0.7-2.1c-0.2-0.5-0.3-0.9-0.4-1.4
			h0c-0.1,0.4-0.2,0.9-0.4,1.3l-0.7,2.1H74.8z"/>
	</g>
	<g>
		<path class="st0" d="M33.9,132h-2.9v2.7h3.2v0.8h-4.2v-7.4h4v0.8h-3v2.3h2.9V132z"/>
		<path class="st0" d="M35.5,131.6c0-0.5,0-1,0-1.4h0.8l0,0.9h0c0.3-0.5,0.8-1,1.7-1c0.7,0,1.3,0.4,1.5,1.1h0
			c0.2-0.3,0.4-0.5,0.6-0.7c0.3-0.2,0.7-0.4,1.2-0.4c0.7,0,1.7,0.5,1.7,2.3v3.1h-0.9v-3c0-1-0.4-1.6-1.2-1.6c-0.5,0-1,0.4-1.1,0.9
			c0,0.1-0.1,0.3-0.1,0.5v3.3h-0.9v-3.2c0-0.8-0.4-1.5-1.1-1.5c-0.6,0-1,0.5-1.2,1c-0.1,0.1-0.1,0.3-0.1,0.5v3.2h-0.9V131.6z"/>
		<path class="st0" d="M44.7,131.9c0-0.7,0-1.2,0-1.7h0.9l0,0.9h0c0.4-0.6,1-1,1.9-1c1.3,0,2.3,1.1,2.3,2.7c0,1.9-1.2,2.9-2.4,2.9
			c-0.7,0-1.3-0.3-1.6-0.8h0v2.9h-1V131.9z M45.6,133.3c0,0.1,0,0.3,0,0.4c0.2,0.7,0.8,1.1,1.5,1.1c1,0,1.6-0.8,1.6-2.1
			c0-1.1-0.6-2-1.6-2c-0.7,0-1.3,0.5-1.5,1.2c0,0.1-0.1,0.3-0.1,0.4V133.3z"/>
		<path class="st0" d="M50.9,131.8c0-0.6,0-1.2,0-1.7h0.8l0,1h0c0.2-0.7,0.8-1.2,1.5-1.2c0.1,0,0.2,0,0.3,0v0.9c-0.1,0-0.2,0-0.3,0
			c-0.7,0-1.2,0.5-1.3,1.2c0,0.1,0,0.3,0,0.5v2.8h-1V131.8z"/>
		<path class="st0" d="M54.9,133c0,1.3,0.9,1.8,1.8,1.8c0.7,0,1.1-0.1,1.5-0.3l0.2,0.7c-0.3,0.2-0.9,0.3-1.8,0.3
			c-1.6,0-2.6-1.1-2.6-2.7c0-1.6,0.9-2.9,2.5-2.9c1.7,0,2.2,1.5,2.2,2.5c0,0.2,0,0.4,0,0.5H54.9z M57.8,132.3c0-0.6-0.3-1.6-1.3-1.6
			c-1,0-1.4,0.9-1.5,1.6H57.8z"/>
		<path class="st0" d="M59.8,134.5c0.3,0.2,0.8,0.4,1.3,0.4c0.7,0,1-0.4,1-0.8c0-0.5-0.3-0.7-1-1c-1-0.3-1.4-0.9-1.4-1.5
			c0-0.9,0.7-1.6,1.8-1.6c0.5,0,1,0.2,1.3,0.3l-0.2,0.7c-0.2-0.1-0.6-0.3-1.1-0.3c-0.6,0-0.9,0.3-0.9,0.7c0,0.4,0.3,0.6,1,0.9
			c0.9,0.4,1.4,0.8,1.4,1.6c0,0.9-0.7,1.6-2,1.6c-0.6,0-1.1-0.1-1.5-0.4L59.8,134.5z"/>
		<path class="st0" d="M67.2,135.5l-0.1-0.7h0c-0.3,0.4-0.9,0.8-1.6,0.8c-1.1,0-1.6-0.8-1.6-1.5c0-1.3,1.1-2,3.2-2V132
			c0-0.4-0.1-1.2-1.2-1.2c-0.5,0-1,0.2-1.4,0.4l-0.2-0.6c0.4-0.3,1.1-0.5,1.7-0.5c1.6,0,2,1.1,2,2.2v2c0,0.5,0,0.9,0.1,1.3H67.2z
			 M67.1,132.8c-1.1,0-2.3,0.2-2.3,1.2c0,0.6,0.4,0.9,0.9,0.9c0.7,0,1.1-0.4,1.3-0.9c0-0.1,0.1-0.2,0.1-0.3V132.8z"/>
		<path class="st0" d="M71.9,128.2c0.4-0.1,1.1-0.2,1.7-0.2c1,0,1.6,0.2,2,0.5c0.4,0.3,0.6,0.7,0.6,1.3c0,0.7-0.5,1.3-1.3,1.6v0
			c0.7,0.2,1.5,0.8,1.5,1.9c0,0.6-0.3,1.1-0.6,1.5c-0.5,0.5-1.4,0.7-2.6,0.7c-0.7,0-1.2,0-1.5-0.1V128.2z M72.9,131.2h0.9
			c1,0,1.6-0.5,1.6-1.2c0-0.9-0.7-1.2-1.6-1.2c-0.4,0-0.7,0-0.8,0.1V131.2z M72.9,134.8c0.2,0,0.5,0,0.8,0c1,0,1.9-0.4,1.9-1.4
			c0-1-0.9-1.4-1.9-1.4h-0.8V134.8z"/>
	</g>
	<g>
		<path class="st0" d="M33.5,206h-2.9v2.7h3.2v0.8h-4.2v-7.4h4v0.8h-3v2.3h2.9V206z"/>
		<path class="st0" d="M35.1,205.6c0-0.5,0-1,0-1.4h0.8l0,0.9h0c0.3-0.5,0.8-1,1.7-1c0.7,0,1.3,0.4,1.5,1.1h0
			c0.2-0.3,0.4-0.5,0.6-0.7c0.3-0.2,0.7-0.4,1.2-0.4c0.7,0,1.7,0.5,1.7,2.3v3.1h-0.9v-3c0-1-0.4-1.6-1.2-1.6c-0.5,0-1,0.4-1.1,0.9
			c0,0.1-0.1,0.3-0.1,0.5v3.3h-0.9v-3.2c0-0.8-0.4-1.5-1.1-1.5c-0.6,0-1,0.5-1.2,1c-0.1,0.1-0.1,0.3-0.1,0.5v3.2h-0.9V205.6z"/>
		<path class="st0" d="M44.2,205.9c0-0.7,0-1.2,0-1.7h0.9l0,0.9h0c0.4-0.6,1-1,1.9-1c1.3,0,2.3,1.1,2.3,2.7c0,1.9-1.2,2.9-2.4,2.9
			c-0.7,0-1.3-0.3-1.6-0.8h0v2.9h-1V205.9z M45.2,207.3c0,0.1,0,0.3,0,0.4c0.2,0.7,0.8,1.1,1.5,1.1c1,0,1.6-0.8,1.6-2.1
			c0-1.1-0.6-2-1.6-2c-0.7,0-1.3,0.5-1.5,1.2c0,0.1-0.1,0.3-0.1,0.4V207.3z"/>
		<path class="st0" d="M50.5,205.8c0-0.6,0-1.2,0-1.7h0.8l0,1h0c0.2-0.7,0.8-1.2,1.5-1.2c0.1,0,0.2,0,0.3,0v0.9c-0.1,0-0.2,0-0.3,0
			c-0.7,0-1.2,0.5-1.3,1.2c0,0.1,0,0.3,0,0.5v2.8h-1V205.8z"/>
		<path class="st0" d="M54.5,207c0,1.3,0.9,1.8,1.8,1.8c0.7,0,1.1-0.1,1.5-0.3l0.2,0.7c-0.3,0.2-0.9,0.3-1.8,0.3
			c-1.6,0-2.6-1.1-2.6-2.7c0-1.6,0.9-2.9,2.5-2.9c1.7,0,2.2,1.5,2.2,2.5c0,0.2,0,0.4,0,0.5H54.5z M57.4,206.3c0-0.6-0.3-1.6-1.3-1.6
			c-1,0-1.4,0.9-1.5,1.6H57.4z"/>
		<path class="st0" d="M59.4,208.5c0.3,0.2,0.8,0.4,1.3,0.4c0.7,0,1-0.4,1-0.8c0-0.5-0.3-0.7-1-1c-1-0.3-1.4-0.9-1.4-1.5
			c0-0.9,0.7-1.6,1.8-1.6c0.5,0,1,0.2,1.3,0.3l-0.2,0.7c-0.2-0.1-0.6-0.3-1.1-0.3c-0.6,0-0.9,0.3-0.9,0.7c0,0.4,0.3,0.6,1,0.9
			c0.9,0.4,1.4,0.8,1.4,1.6c0,0.9-0.7,1.6-2,1.6c-0.6,0-1.1-0.1-1.5-0.4L59.4,208.5z"/>
		<path class="st0" d="M66.8,209.5l-0.1-0.7h0c-0.3,0.4-0.9,0.8-1.6,0.8c-1.1,0-1.6-0.8-1.6-1.5c0-1.3,1.1-2,3.2-2V206
			c0-0.4-0.1-1.2-1.2-1.2c-0.5,0-1,0.2-1.4,0.4l-0.2-0.6c0.4-0.3,1.1-0.5,1.7-0.5c1.6,0,2,1.1,2,2.2v2c0,0.5,0,0.9,0.1,1.3H66.8z
			 M66.7,206.8c-1.1,0-2.3,0.2-2.3,1.2c0,0.6,0.4,0.9,0.9,0.9c0.7,0,1.1-0.4,1.3-0.9c0-0.1,0.1-0.2,0.1-0.3V206.8z"/>
		<path class="st0" d="M76.7,209.3c-0.4,0.2-1.1,0.4-2,0.4c-2.1,0-3.7-1.3-3.7-3.8c0-2.3,1.6-3.9,3.9-3.9c0.9,0,1.5,0.2,1.8,0.3
			l-0.2,0.8c-0.4-0.2-0.9-0.3-1.5-0.3c-1.7,0-2.9,1.1-2.9,3.1c0,1.8,1,3,2.8,3c0.6,0,1.2-0.1,1.6-0.3L76.7,209.3z"/>
	</g>
	<g>
		<path class="st1" d="M98.8,256.2c0,2-0.7,3.1-2,3.1c-1.1,0-1.9-1.1-1.9-3c0-2,0.8-3,2-3C98.1,253.2,98.8,254.3,98.8,256.2z
			 M95.6,256.3c0,1.5,0.5,2.4,1.2,2.4c0.8,0,1.2-0.9,1.2-2.4c0-1.4-0.4-2.4-1.2-2.4C96.1,253.8,95.6,254.7,95.6,256.3z"/>
	</g>
	<g>
		<path class="st1" d="M143.7,254h-2.2l-0.2,1.5c0.1,0,0.3,0,0.5,0c0.5,0,0.9,0.1,1.3,0.3c0.5,0.3,0.8,0.8,0.8,1.5
			c0,1.1-0.9,2-2.2,2c-0.6,0-1.2-0.2-1.5-0.4l0.2-0.6c0.2,0.1,0.7,0.3,1.3,0.3c0.7,0,1.4-0.5,1.4-1.3c0-0.8-0.5-1.3-1.7-1.3
			c-0.3,0-0.6,0-0.8,0.1l0.4-2.8h2.8V254z"/>
		<path class="st1" d="M148.7,256.2c0,2-0.7,3.1-2,3.1c-1.1,0-1.9-1.1-1.9-3c0-2,0.8-3,2-3C148,253.2,148.7,254.3,148.7,256.2z
			 M145.6,256.3c0,1.5,0.5,2.4,1.2,2.4c0.8,0,1.2-0.9,1.2-2.4c0-1.4-0.4-2.4-1.2-2.4C146.1,253.8,145.6,254.7,145.6,256.3z"/>
		<path class="st1" d="M153.4,256.2c0,2-0.7,3.1-2,3.1c-1.1,0-1.9-1.1-1.9-3c0-2,0.8-3,2-3C152.7,253.2,153.4,254.3,153.4,256.2z
			 M150.2,256.3c0,1.5,0.5,2.4,1.2,2.4c0.8,0,1.2-0.9,1.2-2.4c0-1.4-0.4-2.4-1.2-2.4C150.7,253.8,150.2,254.7,150.2,256.3z"/>
	</g>
	<g>
		<path class="st1" d="M188.3,254.1L188.3,254.1l-1,0.5l-0.2-0.6l1.3-0.7h0.7v5.9h-0.8V254.1z"/>
		<path class="st1" d="M195.1,256.2c0,2-0.7,3.1-2,3.1c-1.1,0-1.9-1.1-1.9-3c0-2,0.8-3,2-3C194.4,253.2,195.1,254.3,195.1,256.2z
			 M191.9,256.3c0,1.5,0.5,2.4,1.2,2.4c0.8,0,1.2-0.9,1.2-2.4c0-1.4-0.4-2.4-1.2-2.4C192.4,253.8,191.9,254.7,191.9,256.3z"/>
		<path class="st1" d="M199.7,256.2c0,2-0.7,3.1-2,3.1c-1.1,0-1.9-1.1-1.9-3c0-2,0.8-3,2-3C199,253.2,199.7,254.3,199.7,256.2z
			 M196.5,256.3c0,1.5,0.5,2.4,1.2,2.4c0.8,0,1.2-0.9,1.2-2.4c0-1.4-0.4-2.4-1.2-2.4C197,253.8,196.5,254.7,196.5,256.3z"/>
		<path class="st1" d="M204.3,256.2c0,2-0.7,3.1-2,3.1c-1.1,0-1.9-1.1-1.9-3c0-2,0.8-3,2-3C203.6,253.2,204.3,254.3,204.3,256.2z
			 M201.1,256.3c0,1.5,0.5,2.4,1.2,2.4c0.8,0,1.2-0.9,1.2-2.4c0-1.4-0.4-2.4-1.2-2.4C201.6,253.8,201.1,254.7,201.1,256.3z"/>
	</g>
	<g>
		<path class="st1" d="M238.9,254.1L238.9,254.1l-1,0.5l-0.2-0.6l1.3-0.7h0.7v5.9h-0.8V254.1z"/>
		<path class="st1" d="M245.3,254H243l-0.2,1.5c0.1,0,0.3,0,0.5,0c0.5,0,0.9,0.1,1.3,0.3c0.5,0.3,0.8,0.8,0.8,1.5c0,1.1-0.9,2-2.2,2
			c-0.6,0-1.2-0.2-1.5-0.4l0.2-0.6c0.2,0.1,0.7,0.3,1.3,0.3c0.7,0,1.4-0.5,1.4-1.3c0-0.8-0.5-1.3-1.7-1.3c-0.3,0-0.6,0-0.8,0.1
			l0.4-2.8h2.8V254z"/>
		<path class="st1" d="M250.3,256.2c0,2-0.7,3.1-2,3.1c-1.1,0-1.9-1.1-1.9-3c0-2,0.8-3,2-3C249.6,253.2,250.3,254.3,250.3,256.2z
			 M247.1,256.3c0,1.5,0.5,2.4,1.2,2.4c0.8,0,1.2-0.9,1.2-2.4c0-1.4-0.4-2.4-1.2-2.4C247.6,253.8,247.1,254.7,247.1,256.3z"/>
		<path class="st1" d="M254.9,256.2c0,2-0.7,3.1-2,3.1c-1.1,0-1.9-1.1-1.9-3c0-2,0.8-3,2-3C254.2,253.2,254.9,254.3,254.9,256.2z
			 M251.7,256.3c0,1.5,0.5,2.4,1.2,2.4c0.8,0,1.2-0.9,1.2-2.4c0-1.4-0.4-2.4-1.2-2.4C252.2,253.8,251.7,254.7,251.7,256.3z"/>
	</g>
	<g>
		<path class="st1" d="M287.1,259.2v-0.5l0.6-0.6c1.5-1.4,2.2-2.2,2.2-3.1c0-0.6-0.3-1.1-1.2-1.1c-0.5,0-1,0.3-1.2,0.5l-0.3-0.6
			c0.4-0.3,1-0.6,1.7-0.6c1.3,0,1.8,0.9,1.8,1.7c0,1.1-0.8,2-2,3.1l-0.5,0.4v0h2.6v0.7H287.1z"/>
		<path class="st1" d="M295.6,256.2c0,2-0.7,3.1-2,3.1c-1.1,0-1.9-1.1-1.9-3c0-2,0.8-3,2-3C294.9,253.2,295.6,254.3,295.6,256.2z
			 M292.4,256.3c0,1.5,0.5,2.4,1.2,2.4c0.8,0,1.2-0.9,1.2-2.4c0-1.4-0.4-2.4-1.2-2.4C292.9,253.8,292.4,254.7,292.4,256.3z"/>
		<path class="st1" d="M300.2,256.2c0,2-0.7,3.1-2,3.1c-1.1,0-1.9-1.1-1.9-3c0-2,0.8-3,2-3C299.5,253.2,300.2,254.3,300.2,256.2z
			 M297,256.3c0,1.5,0.5,2.4,1.2,2.4c0.8,0,1.2-0.9,1.2-2.4c0-1.4-0.4-2.4-1.2-2.4C297.5,253.8,297,254.7,297,256.3z"/>
		<path class="st1" d="M304.8,256.2c0,2-0.7,3.1-2,3.1c-1.1,0-1.9-1.1-1.9-3c0-2,0.8-3,2-3C304.1,253.2,304.8,254.3,304.8,256.2z
			 M301.6,256.3c0,1.5,0.5,2.4,1.2,2.4c0.8,0,1.2-0.9,1.2-2.4c0-1.4-0.4-2.4-1.2-2.4C302.1,253.8,301.6,254.7,301.6,256.3z"/>
	</g>
	<g>
		<path class="st1" d="M335.8,259.2v-0.5l0.6-0.6c1.5-1.4,2.2-2.2,2.2-3.1c0-0.6-0.3-1.1-1.2-1.1c-0.5,0-1,0.3-1.2,0.5l-0.3-0.6
			c0.4-0.3,1-0.6,1.7-0.6c1.3,0,1.8,0.9,1.8,1.7c0,1.1-0.8,2-2,3.1l-0.5,0.4v0h2.6v0.7H335.8z"/>
		<path class="st1" d="M343.9,254h-2.2l-0.2,1.5c0.1,0,0.3,0,0.5,0c0.5,0,0.9,0.1,1.3,0.3c0.5,0.3,0.8,0.8,0.8,1.5
			c0,1.1-0.9,2-2.2,2c-0.6,0-1.2-0.2-1.5-0.4l0.2-0.6c0.2,0.1,0.7,0.3,1.3,0.3c0.7,0,1.4-0.5,1.4-1.3c0-0.8-0.5-1.3-1.7-1.3
			c-0.3,0-0.6,0-0.8,0.1l0.4-2.8h2.8V254z"/>
		<path class="st1" d="M348.9,256.2c0,2-0.7,3.1-2,3.1c-1.1,0-1.9-1.1-1.9-3c0-2,0.8-3,2-3C348.2,253.2,348.9,254.3,348.9,256.2z
			 M345.8,256.3c0,1.5,0.5,2.4,1.2,2.4c0.8,0,1.2-0.9,1.2-2.4c0-1.4-0.4-2.4-1.2-2.4C346.3,253.8,345.8,254.7,345.8,256.3z"/>
		<path class="st1" d="M353.6,256.2c0,2-0.7,3.1-2,3.1c-1.1,0-1.9-1.1-1.9-3c0-2,0.8-3,2-3C352.9,253.2,353.6,254.3,353.6,256.2z
			 M350.4,256.3c0,1.5,0.5,2.4,1.2,2.4c0.8,0,1.2-0.9,1.2-2.4c0-1.4-0.4-2.4-1.2-2.4C350.9,253.8,350.4,254.7,350.4,256.3z"/>
	</g>
	<g>
		<path class="st1" d="M384.7,258.3c0.2,0.1,0.7,0.4,1.3,0.4c1,0,1.3-0.6,1.3-1.1c0-0.8-0.7-1.2-1.5-1.2h-0.4v-0.6h0.4
			c0.6,0,1.3-0.3,1.3-1c0-0.5-0.3-0.9-1-0.9c-0.5,0-0.9,0.2-1.2,0.4l-0.2-0.6c0.3-0.2,0.9-0.5,1.5-0.5c1.2,0,1.7,0.7,1.7,1.4
			c0,0.6-0.4,1.1-1.1,1.4v0c0.7,0.1,1.3,0.7,1.3,1.5c0,0.9-0.7,1.8-2.1,1.8c-0.7,0-1.2-0.2-1.5-0.4L384.7,258.3z"/>
		<path class="st1" d="M393,256.2c0,2-0.7,3.1-2,3.1c-1.1,0-1.9-1.1-1.9-3c0-2,0.8-3,2-3C392.3,253.2,393,254.3,393,256.2z
			 M389.8,256.3c0,1.5,0.5,2.4,1.2,2.4c0.8,0,1.2-0.9,1.2-2.4c0-1.4-0.4-2.4-1.2-2.4C390.3,253.8,389.8,254.7,389.8,256.3z"/>
		<path class="st1" d="M397.6,256.2c0,2-0.7,3.1-2,3.1c-1.1,0-1.9-1.1-1.9-3c0-2,0.8-3,2-3C396.9,253.2,397.6,254.3,397.6,256.2z
			 M394.4,256.3c0,1.5,0.5,2.4,1.2,2.4c0.8,0,1.2-0.9,1.2-2.4c0-1.4-0.4-2.4-1.2-2.4C394.9,253.8,394.4,254.7,394.4,256.3z"/>
		<path class="st1" d="M402.2,256.2c0,2-0.7,3.1-2,3.1c-1.1,0-1.9-1.1-1.9-3c0-2,0.8-3,2-3C401.5,253.2,402.2,254.3,402.2,256.2z
			 M399,256.3c0,1.5,0.5,2.4,1.2,2.4c0.8,0,1.2-0.9,1.2-2.4c0-1.4-0.4-2.4-1.2-2.4C399.6,253.8,399,254.7,399,256.3z"/>
	</g>
	<g>
		<path class="st1" d="M434.1,258.3c0.2,0.1,0.7,0.4,1.3,0.4c1,0,1.3-0.6,1.3-1.1c0-0.8-0.7-1.2-1.5-1.2h-0.4v-0.6h0.4
			c0.6,0,1.3-0.3,1.3-1c0-0.5-0.3-0.9-1-0.9c-0.5,0-0.9,0.2-1.2,0.4l-0.2-0.6c0.3-0.2,0.9-0.5,1.5-0.5c1.2,0,1.7,0.7,1.7,1.4
			c0,0.6-0.4,1.1-1.1,1.4v0c0.7,0.1,1.3,0.7,1.3,1.5c0,0.9-0.7,1.8-2.1,1.8c-0.7,0-1.2-0.2-1.5-0.4L434.1,258.3z"/>
		<path class="st1" d="M442,254h-2.2l-0.2,1.5c0.1,0,0.3,0,0.5,0c0.4,0,0.9,0.1,1.3,0.3c0.5,0.3,0.8,0.8,0.8,1.5c0,1.1-0.9,2-2.2,2
			c-0.6,0-1.2-0.2-1.5-0.4l0.2-0.6c0.2,0.1,0.7,0.3,1.2,0.3c0.7,0,1.4-0.5,1.4-1.3c0-0.8-0.5-1.3-1.7-1.3c-0.3,0-0.6,0-0.8,0.1
			l0.4-2.8h2.8V254z"/>
		<path class="st1" d="M447,256.2c0,2-0.7,3.1-2,3.1c-1.1,0-1.9-1.1-1.9-3c0-2,0.8-3,2-3C446.3,253.2,447,254.3,447,256.2z
			 M443.8,256.3c0,1.5,0.5,2.4,1.2,2.4c0.8,0,1.2-0.9,1.2-2.4c0-1.4-0.4-2.4-1.2-2.4C444.4,253.8,443.8,254.7,443.8,256.3z"/>
		<path class="st1" d="M451.6,256.2c0,2-0.7,3.1-2,3.1c-1.1,0-1.9-1.1-1.9-3c0-2,0.8-3,2-3C450.9,253.2,451.6,254.3,451.6,256.2z
			 M448.5,256.3c0,1.5,0.5,2.4,1.2,2.4c0.8,0,1.2-0.9,1.2-2.4c0-1.4-0.4-2.4-1.2-2.4C449,253.8,448.5,254.7,448.5,256.3z"/>
	</g>
	<g>
		<path class="st1" d="M486.7,259.2v-1.6H484v-0.5l2.6-3.7h0.9v3.6h0.8v0.6h-0.8v1.6H486.7z M486.7,257v-2c0-0.3,0-0.6,0-0.9h0
			c-0.2,0.3-0.3,0.6-0.5,0.9l-1.4,2v0H486.7z"/>
		<path class="st1" d="M492.7,256.2c0,2-0.7,3.1-2,3.1c-1.1,0-1.9-1.1-1.9-3c0-2,0.8-3,2-3C492,253.2,492.7,254.3,492.7,256.2z
			 M489.6,256.3c0,1.5,0.5,2.4,1.2,2.4c0.8,0,1.2-0.9,1.2-2.4c0-1.4-0.4-2.4-1.2-2.4C490.1,253.8,489.6,254.7,489.6,256.3z"/>
		<path class="st1" d="M497.4,256.2c0,2-0.7,3.1-2,3.1c-1.1,0-1.9-1.1-1.9-3c0-2,0.8-3,2-3C496.7,253.2,497.4,254.3,497.4,256.2z
			 M494.2,256.3c0,1.5,0.5,2.4,1.2,2.4c0.8,0,1.2-0.9,1.2-2.4c0-1.4-0.4-2.4-1.2-2.4C494.7,253.8,494.2,254.7,494.2,256.3z"/>
		<path class="st1" d="M502,256.2c0,2-0.7,3.1-2,3.1c-1.1,0-1.9-1.1-1.9-3c0-2,0.8-3,2-3C501.3,253.2,502,254.3,502,256.2z
			 M498.8,256.3c0,1.5,0.5,2.4,1.2,2.4c0.8,0,1.2-0.9,1.2-2.4c0-1.4-0.4-2.4-1.2-2.4C499.3,253.8,498.8,254.7,498.8,256.3z"/>
	</g>
	<g>
		<path class="st1" d="M536,254h-2.2l-0.2,1.5c0.1,0,0.3,0,0.5,0c0.5,0,0.9,0.1,1.3,0.3c0.5,0.3,0.8,0.8,0.8,1.5c0,1.1-0.9,2-2.2,2
			c-0.6,0-1.2-0.2-1.5-0.4l0.2-0.6c0.2,0.1,0.7,0.3,1.3,0.3c0.7,0,1.4-0.5,1.4-1.3c0-0.8-0.5-1.3-1.7-1.3c-0.3,0-0.6,0-0.8,0.1
			l0.4-2.8h2.8V254z"/>
		<path class="st1" d="M541,256.2c0,2-0.7,3.1-2,3.1c-1.1,0-1.9-1.1-1.9-3c0-2,0.8-3,2-3C540.3,253.2,541,254.3,541,256.2z
			 M537.8,256.3c0,1.5,0.5,2.4,1.2,2.4c0.8,0,1.2-0.9,1.2-2.4c0-1.4-0.4-2.4-1.2-2.4C538.3,253.8,537.8,254.7,537.8,256.3z"/>
		<path class="st1" d="M545.6,256.2c0,2-0.7,3.1-2,3.1c-1.1,0-1.9-1.1-1.9-3c0-2,0.8-3,2-3C544.9,253.2,545.6,254.3,545.6,256.2z
			 M542.4,256.3c0,1.5,0.5,2.4,1.2,2.4c0.8,0,1.2-0.9,1.2-2.4c0-1.4-0.4-2.4-1.2-2.4C542.9,253.8,542.4,254.7,542.4,256.3z"/>
		<path class="st1" d="M550.2,256.2c0,2-0.7,3.1-2,3.1c-1.1,0-1.9-1.1-1.9-3c0-2,0.8-3,2-3C549.5,253.2,550.2,254.3,550.2,256.2z
			 M547,256.3c0,1.5,0.5,2.4,1.2,2.4c0.8,0,1.2-0.9,1.2-2.4c0-1.4-0.4-2.4-1.2-2.4C547.6,253.8,547,254.7,547,256.3z"/>
	</g>
	<g>
		<path class="st1" d="M584.9,254h-2.2l-0.2,1.5c0.1,0,0.3,0,0.5,0c0.4,0,0.9,0.1,1.3,0.3c0.5,0.3,0.8,0.8,0.8,1.5
			c0,1.1-0.9,2-2.2,2c-0.6,0-1.2-0.2-1.5-0.4l0.2-0.6c0.2,0.1,0.7,0.3,1.2,0.3c0.7,0,1.4-0.5,1.4-1.3c0-0.8-0.5-1.3-1.7-1.3
			c-0.3,0-0.6,0-0.8,0.1l0.4-2.8h2.8V254z"/>
		<path class="st1" d="M589.5,254h-2.2l-0.2,1.5c0.1,0,0.3,0,0.5,0c0.4,0,0.9,0.1,1.3,0.3c0.5,0.3,0.8,0.8,0.8,1.5
			c0,1.1-0.9,2-2.2,2c-0.6,0-1.2-0.2-1.5-0.4l0.2-0.6c0.2,0.1,0.7,0.3,1.2,0.3c0.7,0,1.4-0.5,1.4-1.3c0-0.8-0.5-1.3-1.7-1.3
			c-0.3,0-0.6,0-0.8,0.1l0.4-2.8h2.8V254z"/>
		<path class="st1" d="M594.5,256.2c0,2-0.7,3.1-2,3.1c-1.1,0-1.9-1.1-1.9-3c0-2,0.8-3,2-3C593.8,253.2,594.5,254.3,594.5,256.2z
			 M591.3,256.3c0,1.5,0.5,2.4,1.2,2.4c0.8,0,1.2-0.9,1.2-2.4c0-1.4-0.4-2.4-1.2-2.4C591.9,253.8,591.3,254.7,591.3,256.3z"/>
		<path class="st1" d="M599.1,256.2c0,2-0.7,3.1-2,3.1c-1.1,0-1.9-1.1-1.9-3c0-2,0.8-3,2-3C598.4,253.2,599.1,254.3,599.1,256.2z
			 M596,256.3c0,1.5,0.5,2.4,1.2,2.4c0.8,0,1.2-0.9,1.2-2.4c0-1.4-0.4-2.4-1.2-2.4C596.5,253.8,596,254.7,596,256.3z"/>
	</g>
	<g>
		<path class="st1" d="M634.5,253.9c-0.2,0-0.4,0-0.6,0c-1.2,0.2-1.9,1.1-2,2.1h0c0.3-0.4,0.8-0.7,1.4-0.7c1,0,1.8,0.7,1.8,1.9
			c0,1.1-0.7,2.1-1.9,2.1c-1.3,0-2.1-1-2.1-2.5c0-1.2,0.4-2.1,1-2.6c0.5-0.5,1.1-0.8,1.9-0.9c0.2,0,0.4,0,0.6,0V253.9z M634.3,257.3
			c0-0.8-0.5-1.3-1.2-1.3c-0.5,0-0.9,0.3-1.1,0.7c-0.1,0.1-0.1,0.2-0.1,0.4c0,1,0.5,1.7,1.3,1.7
			C633.8,258.7,634.3,258.1,634.3,257.3z"/>
		<path class="st1" d="M639.7,256.2c0,2-0.7,3.1-2,3.1c-1.1,0-1.9-1.1-1.9-3c0-2,0.8-3,2-3C639,253.2,639.7,254.3,639.7,256.2z
			 M636.5,256.3c0,1.5,0.5,2.4,1.2,2.4c0.8,0,1.2-0.9,1.2-2.4c0-1.4-0.4-2.4-1.2-2.4C637,253.8,636.5,254.7,636.5,256.3z"/>
		<path class="st1" d="M644.3,256.2c0,2-0.7,3.1-2,3.1c-1.1,0-1.9-1.1-1.9-3c0-2,0.8-3,2-3C643.6,253.2,644.3,254.3,644.3,256.2z
			 M641.1,256.3c0,1.5,0.5,2.4,1.2,2.4c0.8,0,1.2-0.9,1.2-2.4c0-1.4-0.4-2.4-1.2-2.4C641.6,253.8,641.1,254.7,641.1,256.3z"/>
		<path class="st1" d="M648.9,256.2c0,2-0.7,3.1-2,3.1c-1.1,0-1.9-1.1-1.9-3c0-2,0.8-3,2-3C648.2,253.2,648.9,254.3,648.9,256.2z
			 M645.7,256.3c0,1.5,0.5,2.4,1.2,2.4c0.8,0,1.2-0.9,1.2-2.4c0-1.4-0.4-2.4-1.2-2.4C646.2,253.8,645.7,254.7,645.7,256.3z"/>
	</g>
	<g>
		<path class="st1" d="M682.5,253.9c-0.2,0-0.4,0-0.6,0c-1.2,0.2-1.9,1.1-2,2.1h0c0.3-0.4,0.8-0.7,1.4-0.7c1,0,1.8,0.7,1.8,1.9
			c0,1.1-0.7,2.1-1.9,2.1c-1.3,0-2.1-1-2.1-2.5c0-1.2,0.4-2.1,1-2.6c0.5-0.5,1.1-0.8,1.9-0.9c0.2,0,0.4,0,0.6,0V253.9z M682.3,257.3
			c0-0.8-0.5-1.3-1.2-1.3c-0.5,0-0.9,0.3-1.1,0.7c-0.1,0.1-0.1,0.2-0.1,0.4c0,1,0.5,1.7,1.3,1.7
			C681.8,258.7,682.3,258.1,682.3,257.3z"/>
		<path class="st1" d="M687.3,254H685l-0.2,1.5c0.1,0,0.3,0,0.5,0c0.5,0,0.9,0.1,1.3,0.3c0.5,0.3,0.8,0.8,0.8,1.5c0,1.1-0.9,2-2.2,2
			c-0.6,0-1.2-0.2-1.5-0.4l0.2-0.6c0.2,0.1,0.7,0.3,1.3,0.3c0.7,0,1.4-0.5,1.4-1.3c0-0.8-0.5-1.3-1.7-1.3c-0.3,0-0.6,0-0.8,0.1
			l0.4-2.8h2.8V254z"/>
		<path class="st1" d="M692.3,256.2c0,2-0.7,3.1-2,3.1c-1.1,0-1.9-1.1-1.9-3c0-2,0.8-3,2-3C691.6,253.2,692.3,254.3,692.3,256.2z
			 M689.1,256.3c0,1.5,0.5,2.4,1.2,2.4c0.8,0,1.2-0.9,1.2-2.4c0-1.4-0.4-2.4-1.2-2.4C689.6,253.8,689.1,254.7,689.1,256.3z"/>
		<path class="st1" d="M696.9,256.2c0,2-0.7,3.1-2,3.1c-1.1,0-1.9-1.1-1.9-3c0-2,0.8-3,2-3C696.2,253.2,696.9,254.3,696.9,256.2z
			 M693.7,256.3c0,1.5,0.5,2.4,1.2,2.4c0.8,0,1.2-0.9,1.2-2.4c0-1.4-0.4-2.4-1.2-2.4C694.2,253.8,693.7,254.7,693.7,256.3z"/>
	</g>
	<line class="st2" x1="147.7" y1="244.5" x2="147.7" y2="250.5"/>
	<polyline class="st2" points="96.5,250.5 96.5,244.5 98.5,244.5 688.5,244.5 	"/>
	<line class="st2" x1="196.8" y1="244.5" x2="196.8" y2="250.5"/>
	<line class="st2" x1="246" y1="244.5" x2="246" y2="250.5"/>
	<line class="st2" x1="295.2" y1="244.5" x2="295.2" y2="250.5"/>
	<line class="st2" x1="344.3" y1="244.5" x2="344.3" y2="250.5"/>
	<line class="st2" x1="393.5" y1="244.5" x2="393.5" y2="250.5"/>
	<line class="st2" x1="442.7" y1="244.5" x2="442.7" y2="250.5"/>
	<line class="st2" x1="491.8" y1="244.5" x2="491.8" y2="250.5"/>
	<line class="st2" x1="541" y1="244.5" x2="541" y2="250.5"/>
	<line class="st2" x1="590.2" y1="244.5" x2="590.2" y2="250.5"/>
	<line class="st2" x1="639.3" y1="244.5" x2="639.3" y2="250.5"/>
	<line class="st2" x1="688.5" y1="244.5" x2="688.5" y2="250.5"/>
	<line class="st3" x1="185.5" y1="56.2" x2="580" y2="56.2"/>
	<line class="st3" x1="135.5" y1="131.4" x2="604.8" y2="131.4"/>
	<line class="st3" x1="369.5" y1="206.5" x2="662.8" y2="206.5"/>
	<rect x="241.2" y="40" class="st4" width="120.7" height="32"/>
	<rect x="361.7" y="40" class="st5" width="81.7" height="32"/>
	<rect x="157.2" y="115.5" class="st4" width="244.7" height="32"/>
	<rect x="402.2" y="115.5" class="st5" width="130.7" height="32"/>
	<rect x="483.2" y="191.5" class="st4" width="81.7" height="32"/>
	<rect x="565.2" y="191.5" class="st5" width="51.7" height="32"/>
	<line class="st3" x1="185" y1="47.5" x2="185" y2="65"/>
	<line class="st3" x1="134.5" y1="122.6" x2="134.5" y2="140.1"/>
	<line class="st3" x1="368.5" y1="197.8" x2="368.5" y2="215.3"/>
	<line class="st3" x1="663.2" y1="197.7" x2="663.2" y2="215.2"/>
	<line class="st3" x1="605.7" y1="122.7" x2="605.7" y2="140.2"/>
	<line class="st3" x1="579.9" y1="47.2" x2="579.9" y2="64.7"/>
	<g>
	</g>
	<g>
	</g>
	<g>
	</g>
	<g>
	</g>
	<g>
	</g>
	<g>
	</g>
	<g>
	</g>
	<g>
	</g>
	<g>
	</g>
	<g>
	</g>
</g>
</svg>
