<?xml version="1.0" encoding="utf-8"?>
<!-- Generator: Adobe Illustrator 21.0.0, SVG Export Plug-In . SVG Version: 6.00 Build 0)  -->
<svg version="1.1" xmlns="http://www.w3.org/2000/svg" xmlns:xlink="http://www.w3.org/1999/xlink" x="0px" y="0px"
	 viewBox="0 0 730 320" style="enable-background:new 0 0 730 320;" xml:space="preserve">
<style type="text/css">
	.st0{opacity:0.2;fill:#F15A24;}
	.st1{opacity:0.5;}
	.st2{fill:#FDC17B;}
	.st3{fill:#F8B7B3;}
	.st4{fill:#FFD87D;}
	.st5{fill:#F9AF85;}
	.st6{fill:#EFA663;}
	.st7{fill:#EEA2A7;}
	.st8{fill:#FECF44;}
	.st9{fill:#F39B76;}
</style>
<g id="Layer_2">
	<rect x="12.5" y="11.5" class="st0" width="705" height="297"/>
</g>
<g id="Layer_1">
	<g class="st1">
		<path d="M296.7,19.1h1.2v8.4h4v1h-5.3V19.1z"/>
		<path d="M307.3,28.5l-0.1-0.9h0c-0.4,0.5-1.1,1-2.1,1c-1.4,0-2.1-1-2.1-1.9c0-1.6,1.5-2.5,4.1-2.5V24c0-0.6-0.2-1.6-1.5-1.6
			c-0.6,0-1.3,0.2-1.8,0.5l-0.3-0.8c0.6-0.4,1.4-0.6,2.2-0.6c2.1,0,2.6,1.4,2.6,2.8v2.5c0,0.6,0,1.2,0.1,1.6H307.3z M307.2,25
			c-1.3,0-2.9,0.2-2.9,1.5c0,0.8,0.5,1.2,1.2,1.2c0.9,0,1.4-0.6,1.6-1.1c0-0.1,0.1-0.3,0.1-0.4V25z"/>
		<path d="M315.3,20.1h-2.9v-1h7v1h-2.9v8.4h-1.2V20.1z"/>
		<path d="M321.9,19.8c0,0.4-0.3,0.8-0.8,0.8c-0.4,0-0.7-0.3-0.7-0.8c0-0.4,0.3-0.8,0.8-0.8C321.7,19,321.9,19.4,321.9,19.8z
			 M320.6,28.5v-6.8h1.2v6.8H320.6z"/>
		<path d="M324.9,25.3c0,1.7,1.1,2.4,2.3,2.4c0.9,0,1.4-0.2,1.9-0.4l0.2,0.9c-0.4,0.2-1.2,0.4-2.3,0.4c-2.1,0-3.3-1.4-3.3-3.4
			c0-2,1.2-3.7,3.2-3.7c2.2,0,2.8,1.9,2.8,3.2c0,0.3,0,0.4,0,0.6H324.9z M328.5,24.5c0-0.8-0.3-2-1.7-2c-1.2,0-1.8,1.1-1.9,2H328.5z
			"/>
		<path d="M331.6,23.6c0-0.7,0-1.3-0.1-1.8h1.1l0.1,1.1h0c0.3-0.6,1.1-1.3,2.2-1.3c0.9,0,2.4,0.6,2.4,2.9v4h-1.2v-3.9
			c0-1.1-0.4-2-1.6-2c-0.8,0-1.4,0.6-1.7,1.3c-0.1,0.2-0.1,0.4-0.1,0.6v4.1h-1.2V23.6z"/>
		<path d="M345.5,18.6v8.2c0,0.6,0,1.3,0.1,1.8h-1.1l-0.1-1.2h0c-0.4,0.8-1.2,1.3-2.3,1.3c-1.6,0-2.9-1.4-2.9-3.4
			c0-2.3,1.4-3.6,3-3.6c1,0,1.7,0.5,2,1h0v-4H345.5z M344.3,24.5c0-0.2,0-0.4-0.1-0.5c-0.2-0.8-0.9-1.4-1.8-1.4c-1.3,0-2,1.1-2,2.6
			c0,1.4,0.7,2.5,2,2.5c0.8,0,1.6-0.5,1.8-1.5c0-0.2,0.1-0.3,0.1-0.5V24.5z"/>
		<path d="M351.7,28.5l-0.1-0.9h0c-0.4,0.5-1.1,1-2.1,1c-1.4,0-2.1-1-2.1-1.9c0-1.6,1.5-2.5,4.1-2.5V24c0-0.6-0.2-1.6-1.5-1.6
			c-0.6,0-1.3,0.2-1.8,0.5l-0.3-0.8c0.6-0.4,1.4-0.6,2.2-0.6c2.1,0,2.6,1.4,2.6,2.8v2.5c0,0.6,0,1.2,0.1,1.6H351.7z M351.5,25
			c-1.3,0-2.9,0.2-2.9,1.5c0,0.8,0.5,1.2,1.2,1.2c0.9,0,1.4-0.6,1.6-1.1c0-0.1,0.1-0.3,0.1-0.4V25z"/>
		<path d="M358.4,19.2c0.7-0.1,1.6-0.2,2.6-0.2c1.8,0,3,0.4,3.8,1.2c0.8,0.8,1.3,1.9,1.3,3.4c0,1.5-0.5,2.8-1.4,3.7
			c-0.9,0.9-2.3,1.4-4.2,1.4c-0.9,0-1.6,0-2.2-0.1V19.2z M359.6,27.5c0.3,0.1,0.8,0.1,1.2,0.1c2.6,0,4-1.5,4-4
			c0-2.2-1.2-3.6-3.8-3.6c-0.6,0-1.1,0.1-1.4,0.1V27.5z"/>
		<path d="M368.8,25.3c0,1.7,1.1,2.4,2.3,2.4c0.9,0,1.4-0.2,1.9-0.4l0.2,0.9c-0.4,0.2-1.2,0.4-2.3,0.4c-2.1,0-3.3-1.4-3.3-3.4
			c0-2,1.2-3.7,3.2-3.7c2.2,0,2.8,1.9,2.8,3.2c0,0.3,0,0.4,0,0.6H368.8z M372.4,24.5c0-0.8-0.3-2-1.7-2c-1.2,0-1.8,1.1-1.9,2H372.4z
			"/>
		<path d="M380.3,25.5l-1,3h-1.3l3.2-9.4h1.5l3.2,9.4h-1.3l-1-3H380.3z M383.4,24.6l-0.9-2.7c-0.2-0.6-0.4-1.2-0.5-1.7h0
			c-0.1,0.6-0.3,1.1-0.5,1.7l-0.9,2.7H383.4z"/>
		<path d="M387.6,23.6c0-0.7,0-1.3-0.1-1.8h1.1l0.1,1.1h0c0.3-0.6,1.1-1.3,2.2-1.3c0.9,0,2.4,0.6,2.4,2.9v4h-1.2v-3.9
			c0-1.1-0.4-2-1.6-2c-0.8,0-1.4,0.6-1.7,1.3c-0.1,0.2-0.1,0.4-0.1,0.6v4.1h-1.2V23.6z"/>
		<path d="M397.1,19.8c0,0.4-0.3,0.8-0.8,0.8c-0.4,0-0.7-0.3-0.7-0.8c0-0.4,0.3-0.8,0.8-0.8C396.8,19,397.1,19.4,397.1,19.8z
			 M395.8,28.5v-6.8h1.2v6.8H395.8z"/>
		<path d="M399.4,23.6c0-0.7,0-1.3-0.1-1.8h1.1l0.1,1.1h0c0.4-0.6,1-1.2,2.1-1.2c0.9,0,1.6,0.6,1.9,1.4h0c0.2-0.4,0.5-0.7,0.8-0.9
			c0.4-0.3,0.9-0.5,1.5-0.5c0.9,0,2.2,0.6,2.2,2.9v4h-1.2v-3.8c0-1.3-0.5-2.1-1.5-2.1c-0.7,0-1.2,0.5-1.5,1.1
			c-0.1,0.2-0.1,0.4-0.1,0.6v4.2h-1.2v-4.1c0-1.1-0.5-1.9-1.4-1.9c-0.8,0-1.3,0.6-1.5,1.2c-0.1,0.2-0.1,0.4-0.1,0.6v4.1h-1.2V23.6z"
			/>
		<path d="M415.2,28.5l-0.1-0.9h0c-0.4,0.5-1.1,1-2.1,1c-1.4,0-2.1-1-2.1-1.9c0-1.6,1.5-2.5,4.1-2.5V24c0-0.6-0.2-1.6-1.5-1.6
			c-0.6,0-1.3,0.2-1.8,0.5l-0.3-0.8c0.6-0.4,1.4-0.6,2.2-0.6c2.1,0,2.6,1.4,2.6,2.8v2.5c0,0.6,0,1.2,0.1,1.6H415.2z M415,25
			c-1.3,0-2.9,0.2-2.9,1.5c0,0.8,0.5,1.2,1.2,1.2c0.9,0,1.4-0.6,1.6-1.1c0-0.1,0.1-0.3,0.1-0.4V25z"/>
		<path d="M418.5,18.6h1.2v9.9h-1.2V18.6z"/>
		<path d="M422.8,25.3c0,1.7,1.1,2.4,2.3,2.4c0.9,0,1.4-0.2,1.9-0.4l0.2,0.9c-0.4,0.2-1.2,0.4-2.3,0.4c-2.1,0-3.3-1.4-3.3-3.4
			c0-2,1.2-3.7,3.2-3.7c2.2,0,2.8,1.9,2.8,3.2c0,0.3,0,0.4,0,0.6H422.8z M426.5,24.5c0-0.8-0.3-2-1.7-2c-1.2,0-1.8,1.1-1.9,2H426.5z
			"/>
		<path d="M429.4,27.2c0.4,0.2,1,0.5,1.6,0.5c0.9,0,1.3-0.4,1.3-1c0-0.6-0.4-0.9-1.3-1.2c-1.2-0.4-1.8-1.1-1.8-1.9
			c0-1.1,0.9-2,2.3-2c0.7,0,1.3,0.2,1.7,0.4l-0.3,0.9c-0.3-0.2-0.8-0.4-1.4-0.4c-0.7,0-1.1,0.4-1.1,0.9c0,0.6,0.4,0.8,1.3,1.1
			c1.2,0.4,1.8,1,1.8,2c0,1.2-0.9,2-2.5,2c-0.7,0-1.4-0.2-1.9-0.5L429.4,27.2z"/>
	</g>
	<rect x="22.5" y="36.5" class="st2" width="221" height="263"/>
	<g>
		<polyline class="st3" points="430.2,36.5 252.2,36.5 252.2,299.5 430.2,299.5 430.2,36.5 		"/>
	</g>
	<rect x="438.8" y="36.5" class="st4" width="149" height="263"/>
	<rect x="596.5" y="36.5" class="st5" width="110" height="263"/>
</g>
<g id="Layer_3">
	<g class="st1">
		<g>
			<path d="M121.7,49l-0.8,2.5h-1.1l2.7-8.1h1.3l2.8,8.1h-1.1l-0.9-2.5H121.7z M124.4,48.1l-0.8-2.3c-0.2-0.5-0.3-1-0.4-1.5h0
				c-0.1,0.5-0.3,1-0.4,1.5l-0.8,2.3H124.4z"/>
			<path d="M128.2,45.7l1.1,3.3c0.2,0.5,0.3,1,0.5,1.5h0c0.1-0.5,0.3-1,0.5-1.5l1.1-3.3h1.1l-2.3,5.8h-1l-2.2-5.8H128.2z"/>
			<path d="M134.3,48.8c0,1.4,0.9,2,2,2c0.8,0,1.2-0.1,1.6-0.3l0.2,0.8c-0.4,0.2-1,0.4-1.9,0.4c-1.8,0-2.9-1.2-2.9-2.9
				s1-3.1,2.7-3.1c1.9,0,2.4,1.7,2.4,2.7c0,0.2,0,0.4,0,0.5H134.3z M137.4,48c0-0.7-0.3-1.7-1.5-1.7c-1.1,0-1.5,1-1.6,1.7H137.4z"/>
			<path d="M139.9,50.4c0.3,0.2,0.9,0.4,1.4,0.4c0.8,0,1.1-0.4,1.1-0.9c0-0.5-0.3-0.8-1.1-1.1c-1-0.4-1.5-0.9-1.5-1.6
				c0-0.9,0.8-1.7,2-1.7c0.6,0,1.1,0.2,1.4,0.4l-0.3,0.8c-0.2-0.1-0.6-0.3-1.2-0.3c-0.6,0-1,0.4-1,0.8c0,0.5,0.3,0.7,1.1,1
				c1,0.4,1.5,0.9,1.5,1.8c0,1-0.8,1.7-2.2,1.7c-0.6,0-1.2-0.2-1.6-0.4L139.9,50.4z"/>
		</g>
	</g>
	<g class="st1">
		<g>
			<path d="M322.2,48c-0.1-1.1-0.1-2.5-0.1-3.5h0c-0.3,0.9-0.6,2-1,3.1l-1.4,3.9h-0.8l-1.3-3.9c-0.4-1.1-0.7-2.2-0.9-3.1h0
				c0,1-0.1,2.4-0.2,3.6l-0.2,3.5h-1l0.6-8.1h1.3l1.4,3.9c0.3,1,0.6,1.9,0.8,2.7h0c0.2-0.8,0.5-1.7,0.9-2.7l1.4-3.9h1.3l0.5,8.1h-1
				L322.2,48z"/>
			<path d="M328.6,51.5l-0.1-0.7h0c-0.3,0.5-0.9,0.9-1.8,0.9c-1.2,0-1.8-0.8-1.8-1.7c0-1.4,1.2-2.2,3.5-2.2v-0.1
				c0-0.5-0.1-1.3-1.3-1.3c-0.5,0-1.1,0.2-1.5,0.4l-0.2-0.7c0.5-0.3,1.2-0.5,1.9-0.5c1.8,0,2.2,1.2,2.2,2.4v2.2c0,0.5,0,1,0.1,1.4
				H328.6z M328.5,48.5c-1.2,0-2.5,0.2-2.5,1.3c0,0.7,0.5,1,1,1c0.8,0,1.2-0.5,1.4-1c0-0.1,0.1-0.2,0.1-0.3V48.5z"/>
			<path d="M331.5,47.3c0-0.6,0-1.1,0-1.6h0.9l0,0.9h0c0.3-0.6,0.9-1.1,1.8-1.1c0.8,0,1.4,0.5,1.6,1.2h0c0.2-0.3,0.4-0.6,0.6-0.8
				c0.3-0.3,0.7-0.4,1.3-0.4c0.8,0,1.9,0.5,1.9,2.5v3.4h-1v-3.3c0-1.1-0.4-1.8-1.3-1.8c-0.6,0-1.1,0.4-1.2,1c0,0.1-0.1,0.3-0.1,0.5
				v3.6h-1V48c0-0.9-0.4-1.6-1.2-1.6c-0.7,0-1.1,0.5-1.3,1.1c-0.1,0.2-0.1,0.3-0.1,0.5v3.5h-1V47.3z"/>
			<path d="M343.9,43.2l-1.5,1.7h-0.8l1.1-1.7H343.9z M341.8,51.5v-5.8h1.1v5.8H341.8z"/>
			<path d="M345,51.5v-5h-0.8v-0.8h0.8v-0.3c0-0.8,0.2-1.6,0.7-2c0.4-0.4,0.9-0.5,1.4-0.5c0.4,0,0.7,0.1,0.9,0.2l-0.1,0.8
				c-0.2-0.1-0.4-0.1-0.7-0.1c-0.9,0-1.1,0.8-1.1,1.7v0.3h1.4v0.8H346v5H345z"/>
			<path d="M349.1,48.8c0,1.4,0.9,2,2,2c0.8,0,1.2-0.1,1.6-0.3l0.2,0.8c-0.4,0.2-1,0.4-1.9,0.4c-1.8,0-2.9-1.2-2.9-2.9
				s1-3.1,2.7-3.1c1.9,0,2.4,1.7,2.4,2.7c0,0.2,0,0.4,0,0.5H349.1z M352.2,48c0-0.7-0.3-1.7-1.5-1.7c-1.1,0-1.5,1-1.6,1.7H352.2z"/>
			<path d="M354.9,47.5c0-0.7,0-1.3,0-1.8h0.9l0,1.1h0c0.3-0.8,0.9-1.3,1.6-1.3c0.1,0,0.2,0,0.3,0v1c-0.1,0-0.2,0-0.4,0
				c-0.7,0-1.3,0.6-1.4,1.4c0,0.1,0,0.3,0,0.5v3.1h-1V47.5z"/>
			<path d="M364.2,48.5c0,2.1-1.5,3.1-2.9,3.1c-1.6,0-2.8-1.2-2.8-3c0-1.9,1.3-3.1,2.9-3.1C363.1,45.6,364.2,46.8,364.2,48.5z
				 M359.6,48.6c0,1.3,0.7,2.2,1.8,2.2c1,0,1.8-0.9,1.8-2.3c0-1-0.5-2.2-1.7-2.2C360.1,46.4,359.6,47.5,359.6,48.6z"/>
			<path d="M365.7,50.4c0.3,0.2,0.9,0.4,1.4,0.4c0.8,0,1.1-0.4,1.1-0.9c0-0.5-0.3-0.8-1.1-1.1c-1-0.4-1.5-0.9-1.5-1.6
				c0-0.9,0.8-1.7,2-1.7c0.6,0,1.1,0.2,1.4,0.4l-0.3,0.8c-0.2-0.1-0.6-0.3-1.2-0.3c-0.6,0-1,0.4-1,0.8c0,0.5,0.3,0.7,1.1,1
				c1,0.4,1.5,0.9,1.5,1.8c0,1-0.8,1.7-2.2,1.7c-0.6,0-1.2-0.2-1.6-0.4L365.7,50.4z"/>
		</g>
	</g>
	<g class="st1">
		<g>
			<path d="M493.3,43.5c0.5-0.1,1.2-0.2,2-0.2c1,0,1.8,0.2,2.3,0.7c0.4,0.4,0.7,1,0.7,1.7c0,0.7-0.2,1.3-0.6,1.7
				c-0.6,0.6-1.5,0.9-2.5,0.9c-0.3,0-0.6,0-0.8-0.1v3.2h-1V43.5z M494.4,47.4c0.2,0.1,0.5,0.1,0.9,0.1c1.3,0,2-0.6,2-1.7
				c0-1.1-0.8-1.6-1.9-1.6c-0.5,0-0.8,0-1,0.1V47.4z"/>
			<path d="M500.3,48.8c0,1.4,0.9,2,2,2c0.8,0,1.2-0.1,1.6-0.3l0.2,0.8c-0.4,0.2-1,0.4-1.9,0.4c-1.8,0-2.9-1.2-2.9-2.9
				s1-3.1,2.7-3.1c1.9,0,2.4,1.7,2.4,2.7c0,0.2,0,0.4,0,0.5H500.3z M503.4,48c0-0.7-0.3-1.7-1.5-1.7c-1.1,0-1.5,1-1.6,1.7H503.4z"/>
			<path d="M505.8,50.4c0.3,0.2,0.9,0.4,1.4,0.4c0.8,0,1.1-0.4,1.1-0.9c0-0.5-0.3-0.8-1.1-1.1c-1-0.4-1.5-0.9-1.5-1.6
				c0-0.9,0.8-1.7,2-1.7c0.6,0,1.1,0.2,1.4,0.4l-0.3,0.8c-0.2-0.1-0.6-0.3-1.2-0.3c-0.6,0-1,0.4-1,0.8c0,0.5,0.3,0.7,1.1,1
				c1,0.4,1.5,0.9,1.5,1.8c0,1-0.8,1.7-2.2,1.7c-0.6,0-1.2-0.2-1.6-0.4L505.8,50.4z"/>
			<path d="M515.2,51.3c-0.3,0.1-0.9,0.3-1.7,0.3c-1.8,0-2.9-1.2-2.9-3c0-1.8,1.2-3.1,3.1-3.1c0.6,0,1.2,0.2,1.5,0.3l-0.2,0.8
				c-0.3-0.1-0.6-0.3-1.2-0.3c-1.3,0-2.1,1-2.1,2.2c0,1.3,0.9,2.2,2,2.2c0.6,0,1-0.2,1.3-0.3L515.2,51.3z"/>
			<path d="M519.9,51.5l-0.1-0.7h0c-0.3,0.5-0.9,0.9-1.8,0.9c-1.2,0-1.8-0.8-1.8-1.7c0-1.4,1.2-2.2,3.5-2.2v-0.1
				c0-0.5-0.1-1.3-1.3-1.3c-0.5,0-1.1,0.2-1.5,0.4l-0.2-0.7c0.5-0.3,1.2-0.5,1.9-0.5c1.8,0,2.2,1.2,2.2,2.4v2.2c0,0.5,0,1,0.1,1.4
				H519.9z M519.8,48.5c-1.2,0-2.5,0.2-2.5,1.3c0,0.7,0.5,1,1,1c0.8,0,1.2-0.5,1.4-1c0-0.1,0.1-0.2,0.1-0.3V48.5z"/>
			<path d="M527.8,43v7c0,0.5,0,1.1,0,1.5h-0.9l0-1h0c-0.3,0.6-1,1.1-2,1.1c-1.4,0-2.5-1.2-2.5-3c0-1.9,1.2-3.1,2.6-3.1
				c0.9,0,1.5,0.4,1.8,0.9h0V43H527.8z M526.8,48.1c0-0.1,0-0.3,0-0.4c-0.2-0.7-0.7-1.2-1.5-1.2c-1.1,0-1.7,1-1.7,2.2
				c0,1.2,0.6,2.1,1.7,2.1c0.7,0,1.4-0.5,1.5-1.3c0-0.1,0-0.3,0-0.5V48.1z"/>
			<path d="M535.1,48.5c0,2.1-1.5,3.1-2.9,3.1c-1.6,0-2.8-1.2-2.8-3c0-1.9,1.3-3.1,2.9-3.1C534,45.6,535.1,46.8,535.1,48.5z
				 M530.5,48.6c0,1.3,0.7,2.2,1.8,2.2c1,0,1.8-0.9,1.8-2.3c0-1-0.5-2.2-1.7-2.2S530.5,47.5,530.5,48.6z"/>
		</g>
	</g>
	<g class="st1">
		<g>
			<path d="M631.4,43.5c0.5-0.1,1.3-0.2,2-0.2c1.1,0,1.8,0.2,2.3,0.7c0.4,0.4,0.6,0.9,0.6,1.5c0,1.1-0.7,1.8-1.5,2.1v0
				c0.6,0.2,1,0.8,1.2,1.6c0.3,1.1,0.5,1.9,0.6,2.2h-1.1c-0.1-0.2-0.3-0.9-0.5-1.9c-0.2-1.1-0.7-1.5-1.6-1.6h-1v3.5h-1V43.5z
				 M632.5,47.2h1.1c1.1,0,1.8-0.6,1.8-1.5c0-1-0.8-1.5-1.9-1.5c-0.5,0-0.9,0-1,0.1V47.2z"/>
			<path d="M638.8,48.8c0,1.4,0.9,2,2,2c0.8,0,1.2-0.1,1.6-0.3l0.2,0.8c-0.4,0.2-1,0.4-1.9,0.4c-1.8,0-2.9-1.2-2.9-2.9
				s1-3.1,2.7-3.1c1.9,0,2.4,1.7,2.4,2.7c0,0.2,0,0.4,0,0.5H638.8z M641.9,48c0-0.7-0.3-1.7-1.5-1.7c-1.1,0-1.5,1-1.6,1.7H641.9z"/>
			<path d="M644.5,47.6c0-0.7,0-1.3,0-1.9h0.9l0,1h0c0.4-0.7,1.1-1.1,2.1-1.1c1.4,0,2.5,1.2,2.5,3c0,2.1-1.3,3.1-2.6,3.1
				c-0.8,0-1.4-0.3-1.8-0.9h0v3.2h-1V47.6z M645.5,49.1c0,0.2,0,0.3,0,0.4c0.2,0.7,0.8,1.2,1.6,1.2c1.1,0,1.8-0.9,1.8-2.2
				c0-1.2-0.6-2.2-1.7-2.2c-0.7,0-1.4,0.5-1.6,1.3c0,0.1-0.1,0.3-0.1,0.4V49.1z"/>
			<path d="M652.9,44v1.7h1.5v0.8h-1.5v3.1c0,0.7,0.2,1.1,0.8,1.1c0.3,0,0.5,0,0.6-0.1l0,0.8c-0.2,0.1-0.5,0.1-0.9,0.1
				c-0.5,0-0.9-0.2-1.1-0.4c-0.3-0.3-0.4-0.8-0.4-1.5v-3.2H651v-0.8h0.9v-1.4L652.9,44z"/>
			<path d="M657.1,44.1c0,0.4-0.3,0.6-0.7,0.6c-0.4,0-0.6-0.3-0.6-0.6c0-0.4,0.3-0.7,0.7-0.7C656.8,43.4,657.1,43.7,657.1,44.1z
				 M655.9,51.5v-5.8h1.1v5.8H655.9z"/>
			<path d="M659,43h1.1v8.5H659V43z"/>
			<path d="M662.7,48.8c0,1.4,0.9,2,2,2c0.8,0,1.2-0.1,1.6-0.3l0.2,0.8c-0.4,0.2-1,0.4-1.9,0.4c-1.8,0-2.9-1.2-2.9-2.9
				s1-3.1,2.7-3.1c1.9,0,2.4,1.7,2.4,2.7c0,0.2,0,0.4,0,0.5H662.7z M665.8,48c0-0.7-0.3-1.7-1.5-1.7c-1.1,0-1.5,1-1.6,1.7H665.8z"/>
			<path d="M668.3,50.4c0.3,0.2,0.9,0.4,1.4,0.4c0.8,0,1.1-0.4,1.1-0.9c0-0.5-0.3-0.8-1.1-1.1c-1-0.4-1.5-0.9-1.5-1.6
				c0-0.9,0.8-1.7,2-1.7c0.6,0,1.1,0.2,1.4,0.4l-0.3,0.8c-0.2-0.1-0.6-0.3-1.2-0.3c-0.6,0-1,0.4-1,0.8c0,0.5,0.3,0.7,1.1,1
				c1,0.4,1.5,0.9,1.5,1.8c0,1-0.8,1.7-2.2,1.7c-0.6,0-1.2-0.2-1.6-0.4L668.3,50.4z"/>
		</g>
	</g>
	<rect x="26.5" y="56.5" class="st6" width="133" height="129.2"/>
	<rect x="257.2" y="56.5" class="st7" width="168.1" height="163.3"/>
	<rect x="163" y="56.5" class="st6" width="76.5" height="81.2"/>
	<rect x="444" y="56.5" class="st8" width="67.9" height="72"/>
	<rect x="516" y="56.5" class="st8" width="67.9" height="72"/>
	<rect x="600.3" y="56.5" class="st9" width="102.4" height="108.7"/>
	<rect x="600.3" y="168.3" class="st9" width="49.2" height="88.5"/>
	<rect x="653.1" y="168.3" class="st9" width="49.2" height="88.5"/>
	<rect x="600.3" y="260.6" class="st9" width="66.2" height="34.8"/>
	<rect x="669.9" y="260.6" class="st9" width="32.8" height="34.8"/>
	<rect x="444" y="132" class="st8" width="67.9" height="72"/>
	<rect x="444" y="207.9" class="st8" width="44.1" height="46.8"/>
	<rect x="491.9" y="207.9" class="st8" width="44.1" height="46.8"/>
	<rect x="539.7" y="207.9" class="st8" width="44.1" height="46.8"/>
	<rect x="444" y="258.7" class="st8" width="32.7" height="36.7"/>
	<rect x="479.5" y="258.7" class="st8" width="32.7" height="36.7"/>
	<rect x="514.9" y="258.7" class="st8" width="32.7" height="36.7"/>
	<rect x="551.1" y="258.7" class="st8" width="32.7" height="36.7"/>
	<rect x="516" y="132" class="st8" width="67.9" height="72"/>
	<rect x="163" y="141.8" class="st6" width="76.5" height="81.2"/>
	<rect x="163" y="226.1" class="st6" width="76.5" height="69.3"/>
	<rect x="257.2" y="223" class="st7" width="76.5" height="72.4"/>
	<rect x="337.2" y="223" class="st7" width="53" height="40.2"/>
	<rect x="337.2" y="266.5" class="st7" width="27.8" height="28.8"/>
	<rect x="368.2" y="266.5" class="st7" width="27.8" height="28.8"/>
	<rect x="399.5" y="266.5" class="st7" width="25.8" height="28.8"/>
	<rect x="393.5" y="223" class="st7" width="31.8" height="40.2"/>
	<rect x="26.5" y="188.8" class="st6" width="133" height="106.5"/>
</g>
<g id="Layer_4">
	<g class="st1">
		<g>
			<path d="M32.3,62.8c0.4-0.1,1-0.1,1.7-0.1c0.9,0,1.5,0.2,1.9,0.6c0.4,0.3,0.6,0.8,0.6,1.4c0,0.6-0.2,1.1-0.5,1.4
				c-0.5,0.5-1.2,0.7-2.1,0.7c-0.3,0-0.5,0-0.7-0.1v2.7h-0.9V62.8z M33.1,66.1c0.2,0,0.4,0.1,0.7,0.1c1,0,1.7-0.5,1.7-1.4
				c0-0.9-0.6-1.3-1.6-1.3c-0.4,0-0.7,0-0.8,0.1V66.1z"/>
			<path d="M38.6,63.3c0,0.3-0.2,0.5-0.6,0.5c-0.3,0-0.5-0.2-0.5-0.5c0-0.3,0.2-0.5,0.5-0.5C38.4,62.8,38.6,63,38.6,63.3z
				 M37.6,69.5v-4.8h0.9v4.8H37.6z"/>
			<path d="M40.2,66c0-0.5,0-0.9,0-1.3H41l0,0.8h0c0.2-0.5,0.8-0.9,1.6-0.9c0.7,0,1.7,0.4,1.7,2.1v2.9h-0.9v-2.8
				c0-0.8-0.3-1.4-1.1-1.4c-0.6,0-1,0.4-1.2,0.9c0,0.1-0.1,0.3-0.1,0.4v2.9h-0.9V66z"/>
			<path d="M45.5,69l2.2-2.8c0.2-0.3,0.4-0.5,0.6-0.7v0h-2.6v-0.7h3.7l0,0.5L47.2,68c-0.2,0.3-0.4,0.5-0.6,0.8v0h2.8v0.7h-3.9V69z"
				/>
			<path d="M54.9,67c0,1.8-1.2,2.6-2.4,2.6c-1.3,0-2.3-1-2.3-2.5c0-1.6,1.1-2.6,2.4-2.6C53.9,64.6,54.9,65.6,54.9,67z M51,67.1
				c0,1.1,0.6,1.9,1.5,1.9c0.8,0,1.5-0.8,1.5-1.9c0-0.8-0.4-1.9-1.4-1.9C51.5,65.2,51,66.2,51,67.1z"/>
			<path d="M56.2,66c0-0.5,0-0.9,0-1.3H57l0,0.8h0c0.2-0.5,0.8-0.9,1.6-0.9c0.7,0,1.7,0.4,1.7,2.1v2.9h-0.9v-2.8
				c0-0.8-0.3-1.4-1.1-1.4c-0.6,0-1,0.4-1.2,0.9c0,0.1-0.1,0.3-0.1,0.4v2.9h-0.9V66z"/>
			<path d="M62.5,67.2c0,1.2,0.8,1.7,1.7,1.7c0.6,0,1-0.1,1.3-0.2l0.1,0.6c-0.3,0.1-0.8,0.3-1.6,0.3c-1.5,0-2.4-1-2.4-2.4
				c0-1.5,0.9-2.6,2.3-2.6c1.6,0,2,1.4,2,2.3c0,0.2,0,0.3,0,0.4H62.5z M65.1,66.6c0-0.6-0.2-1.4-1.2-1.4c-0.9,0-1.3,0.8-1.3,1.4
				H65.1z"/>
			<path d="M67.2,68.6c0.3,0.2,0.7,0.3,1.2,0.3c0.6,0,0.9-0.3,0.9-0.7c0-0.4-0.2-0.6-0.9-0.9c-0.9-0.3-1.3-0.8-1.3-1.4
				c0-0.8,0.6-1.4,1.7-1.4c0.5,0,0.9,0.1,1.2,0.3l-0.2,0.6c-0.2-0.1-0.5-0.3-1-0.3c-0.5,0-0.8,0.3-0.8,0.7c0,0.4,0.3,0.6,0.9,0.8
				c0.8,0.3,1.3,0.7,1.3,1.5c0,0.8-0.7,1.4-1.8,1.4c-0.5,0-1-0.1-1.4-0.3L67.2,68.6z"/>
			<path d="M78.6,69.3c-0.3,0.2-1,0.3-1.8,0.3c-1.9,0-3.3-1.2-3.3-3.4c0-2.1,1.4-3.5,3.5-3.5c0.8,0,1.4,0.2,1.6,0.3l-0.2,0.7
				c-0.3-0.2-0.8-0.3-1.4-0.3c-1.6,0-2.6,1-2.6,2.8c0,1.6,0.9,2.7,2.6,2.7c0.5,0,1.1-0.1,1.4-0.3L78.6,69.3z"/>
			<path d="M80.3,67.2c0,1.2,0.8,1.7,1.7,1.7c0.6,0,1-0.1,1.3-0.2l0.1,0.6c-0.3,0.1-0.8,0.3-1.6,0.3c-1.5,0-2.4-1-2.4-2.4
				c0-1.5,0.9-2.6,2.3-2.6c1.6,0,2,1.4,2,2.3c0,0.2,0,0.3,0,0.4H80.3z M82.9,66.6c0-0.6-0.2-1.4-1.2-1.4c-0.9,0-1.3,0.8-1.3,1.4
				H82.9z"/>
			<path d="M85,69.5c0-0.3,0-0.8,0-1.2v-5.8h0.9v3h0c0.3-0.5,0.9-0.9,1.6-0.9c1.2,0,2,1,2,2.5c0,1.7-1.1,2.6-2.2,2.6
				c-0.7,0-1.3-0.3-1.6-0.9h0l0,0.8H85z M85.9,67.6c0,0.1,0,0.2,0,0.3c0.2,0.6,0.7,1,1.3,1c0.9,0,1.5-0.7,1.5-1.9
				c0-1-0.5-1.8-1.4-1.8c-0.6,0-1.2,0.4-1.3,1.1c0,0.1,0,0.2,0,0.4V67.6z"/>
			<path d="M91,66.2c0-0.6,0-1.1,0-1.5h0.8l0,0.9h0c0.2-0.6,0.7-1.1,1.3-1.1c0.1,0,0.2,0,0.2,0v0.8c-0.1,0-0.2,0-0.3,0
				c-0.6,0-1.1,0.5-1.2,1.1c0,0.1,0,0.3,0,0.4v2.6H91V66.2z"/>
			<path d="M97.2,69.5l-0.1-0.6h0c-0.3,0.4-0.8,0.7-1.5,0.7c-1,0-1.5-0.7-1.5-1.4c0-1.2,1-1.8,2.9-1.8v-0.1c0-0.4-0.1-1.1-1.1-1.1
				c-0.4,0-0.9,0.1-1.3,0.4L94.4,65c0.4-0.3,1-0.4,1.6-0.4c1.5,0,1.8,1,1.8,2v1.8c0,0.4,0,0.8,0.1,1.2H97.2z M97,67
				c-1,0-2,0.1-2,1.1c0,0.6,0.4,0.8,0.8,0.8c0.6,0,1-0.4,1.2-0.8c0-0.1,0.1-0.2,0.1-0.3V67z"/>
		</g>
	</g>
	<g class="st1">
		<g>
			<path d="M172.5,69.3c-0.3,0.2-1,0.3-1.8,0.3c-1.9,0-3.3-1.2-3.3-3.4c0-2.1,1.4-3.5,3.5-3.5c0.8,0,1.4,0.2,1.6,0.3l-0.2,0.7
				c-0.3-0.2-0.8-0.3-1.4-0.3c-1.6,0-2.6,1-2.6,2.8c0,1.6,0.9,2.7,2.6,2.7c0.5,0,1.1-0.1,1.4-0.3L172.5,69.3z"/>
			<path d="M176.4,69.5l-0.1-0.6h0c-0.3,0.4-0.8,0.7-1.5,0.7c-1,0-1.5-0.7-1.5-1.4c0-1.2,1-1.8,2.9-1.8v-0.1c0-0.4-0.1-1.1-1.1-1.1
				c-0.4,0-0.9,0.1-1.3,0.4l-0.2-0.6c0.4-0.3,1-0.4,1.6-0.4c1.5,0,1.8,1,1.8,2v1.8c0,0.4,0,0.8,0.1,1.2H176.4z M176.3,67
				c-1,0-2,0.1-2,1.1c0,0.6,0.4,0.8,0.8,0.8c0.6,0,1-0.4,1.2-0.8c0-0.1,0.1-0.2,0.1-0.3V67z"/>
			<path d="M178.8,66c0-0.5,0-0.9,0-1.3h0.8l0,0.8h0c0.2-0.5,0.8-0.9,1.6-0.9c0.7,0,1.7,0.4,1.7,2.1v2.9H182v-2.8
				c0-0.8-0.3-1.4-1.1-1.4c-0.6,0-1,0.4-1.2,0.9c0,0.1-0.1,0.3-0.1,0.4v2.9h-0.9V66z"/>
			<path d="M187.3,69.5l-0.1-0.6h0c-0.3,0.4-0.8,0.7-1.5,0.7c-1,0-1.5-0.7-1.5-1.4c0-1.2,1-1.8,2.9-1.8v-0.1c0-0.4-0.1-1.1-1.1-1.1
				c-0.4,0-0.9,0.1-1.3,0.4l-0.2-0.6c0.4-0.3,1-0.4,1.6-0.4c1.5,0,1.8,1,1.8,2v1.8c0,0.4,0,0.8,0.1,1.2H187.3z M187.1,67
				c-1,0-2,0.1-2,1.1c0,0.6,0.4,0.8,0.8,0.8c0.6,0,1-0.4,1.2-0.8c0-0.1,0.1-0.2,0.1-0.3V67z"/>
			<path d="M189.6,66.2c0-0.6,0-1.1,0-1.5h0.8l0,0.9h0c0.2-0.6,0.7-1.1,1.3-1.1c0.1,0,0.2,0,0.2,0v0.8c-0.1,0-0.2,0-0.3,0
				c-0.6,0-1.1,0.5-1.2,1.1c0,0.1,0,0.3,0,0.4v2.6h-0.9V66.2z"/>
			<path d="M194.2,63.3c0,0.3-0.2,0.5-0.6,0.5c-0.3,0-0.5-0.2-0.5-0.5c0-0.3,0.2-0.5,0.5-0.5C194,62.8,194.2,63,194.2,63.3z
				 M193.2,69.5v-4.8h0.9v4.8H193.2z"/>
			<path d="M198.5,69.5l-0.1-0.6h0c-0.3,0.4-0.8,0.7-1.5,0.7c-1,0-1.5-0.7-1.5-1.4c0-1.2,1-1.8,2.9-1.8v-0.1c0-0.4-0.1-1.1-1.1-1.1
				c-0.4,0-0.9,0.1-1.3,0.4l-0.2-0.6c0.4-0.3,1-0.4,1.6-0.4c1.5,0,1.8,1,1.8,2v1.8c0,0.4,0,0.8,0.1,1.2H198.5z M198.3,67
				c-1,0-2,0.1-2,1.1c0,0.6,0.4,0.8,0.8,0.8c0.6,0,1-0.4,1.2-0.8c0-0.1,0.1-0.2,0.1-0.3V67z"/>
			<path d="M200.7,68.6c0.3,0.2,0.7,0.3,1.2,0.3c0.6,0,0.9-0.3,0.9-0.7c0-0.4-0.2-0.6-0.9-0.9c-0.9-0.3-1.3-0.8-1.3-1.4
				c0-0.8,0.6-1.4,1.7-1.4c0.5,0,0.9,0.1,1.2,0.3l-0.2,0.6c-0.2-0.1-0.5-0.3-1-0.3c-0.5,0-0.8,0.3-0.8,0.7c0,0.4,0.3,0.6,0.9,0.8
				c0.8,0.3,1.3,0.7,1.3,1.5c0,0.8-0.7,1.4-1.8,1.4c-0.5,0-1-0.1-1.4-0.3L200.7,68.6z"/>
		</g>
	</g>
	<g class="st1">
		<g>
			<path d="M263.4,61.8c0.4-0.1,1-0.1,1.7-0.1c0.9,0,1.5,0.2,1.9,0.6c0.4,0.3,0.6,0.8,0.6,1.4c0,0.6-0.2,1.1-0.5,1.4
				c-0.5,0.5-1.2,0.7-2.1,0.7c-0.3,0-0.5,0-0.7-0.1v2.7h-0.9V61.8z M264.3,65.1c0.2,0,0.4,0.1,0.7,0.1c1,0,1.7-0.5,1.7-1.4
				c0-0.9-0.6-1.3-1.6-1.3c-0.4,0-0.7,0-0.8,0.1V65.1z"/>
			<path d="M269.2,66.2c0,1.2,0.8,1.7,1.7,1.7c0.6,0,1-0.1,1.3-0.2l0.1,0.6c-0.3,0.1-0.8,0.3-1.6,0.3c-1.5,0-2.4-1-2.4-2.4
				c0-1.5,0.9-2.6,2.3-2.6c1.6,0,2,1.4,2,2.3c0,0.2,0,0.3,0,0.4H269.2z M271.8,65.6c0-0.6-0.2-1.4-1.2-1.4c-0.9,0-1.3,0.8-1.3,1.4
				H271.8z"/>
			<path d="M274,65.2c0-0.6,0-1.1,0-1.5h0.8l0,0.9h0c0.2-0.6,0.7-1.1,1.3-1.1c0.1,0,0.2,0,0.2,0v0.8c-0.1,0-0.2,0-0.3,0
				c-0.6,0-1.1,0.5-1.2,1.1c0,0.1,0,0.3,0,0.4v2.6H274V65.2z"/>
			<path d="M277.5,65.2c0-0.6,0-1.1,0-1.5h0.8l0,0.9h0c0.2-0.6,0.7-1.1,1.3-1.1c0.1,0,0.2,0,0.2,0v0.8c-0.1,0-0.2,0-0.3,0
				c-0.6,0-1.1,0.5-1.2,1.1c0,0.1,0,0.3,0,0.4v2.6h-0.9V65.2z"/>
			<path d="M285.3,66c0,1.8-1.2,2.6-2.4,2.6c-1.3,0-2.3-1-2.3-2.5c0-1.6,1.1-2.6,2.4-2.6C284.4,63.6,285.3,64.6,285.3,66z
				 M281.5,66.1c0,1.1,0.6,1.9,1.5,1.9c0.8,0,1.5-0.8,1.5-1.9c0-0.8-0.4-1.9-1.4-1.9C281.9,64.2,281.5,65.2,281.5,66.1z"/>
			<path d="M286.6,67.6c0.3,0.2,0.7,0.3,1.2,0.3c0.6,0,0.9-0.3,0.9-0.7c0-0.4-0.2-0.6-0.9-0.9c-0.9-0.3-1.3-0.8-1.3-1.4
				c0-0.8,0.6-1.4,1.7-1.4c0.5,0,0.9,0.1,1.2,0.3l-0.2,0.6c-0.2-0.1-0.5-0.3-1-0.3c-0.5,0-0.8,0.3-0.8,0.7c0,0.4,0.3,0.6,0.9,0.8
				c0.8,0.3,1.3,0.7,1.3,1.5c0,0.8-0.7,1.4-1.8,1.4c-0.5,0-1-0.1-1.4-0.3L286.6,67.6z"/>
		</g>
	</g>
	<g class="st1">
		<g>
			<path d="M448.4,61.8c0.4-0.1,1-0.1,1.7-0.1c0.9,0,1.5,0.2,1.9,0.6c0.4,0.3,0.6,0.8,0.6,1.4c0,0.6-0.2,1.1-0.5,1.4
				c-0.5,0.5-1.2,0.7-2.1,0.7c-0.3,0-0.5,0-0.7-0.1v2.7h-0.9V61.8z M449.3,65.1c0.2,0,0.4,0.1,0.7,0.1c1,0,1.7-0.5,1.7-1.4
				c0-0.9-0.6-1.3-1.6-1.3c-0.4,0-0.7,0-0.8,0.1V65.1z"/>
			<path d="M454,66.2c0,1.2,0.8,1.7,1.7,1.7c0.6,0,1-0.1,1.3-0.2l0.1,0.6c-0.3,0.1-0.8,0.3-1.6,0.3c-1.5,0-2.4-1-2.4-2.4
				c0-1.5,0.9-2.6,2.3-2.6c1.6,0,2,1.4,2,2.3c0,0.2,0,0.3,0,0.4H454z M456.5,65.6c0-0.6-0.2-1.4-1.2-1.4c-0.9,0-1.3,0.8-1.3,1.4
				H456.5z"/>
			<path d="M457.9,68l2.2-2.8c0.2-0.3,0.4-0.5,0.6-0.7v0h-2.6v-0.7h3.7l0,0.5l-2.2,2.8c-0.2,0.3-0.4,0.5-0.6,0.8v0h2.8v0.7h-3.9V68z
				"/>
			<path d="M469.1,61.4v5.8c0,0.4,0,0.9,0,1.2h-0.8l0-0.8h0c-0.3,0.5-0.9,0.9-1.6,0.9c-1.2,0-2.1-1-2.1-2.5c0-1.6,1-2.6,2.2-2.6
				c0.7,0,1.2,0.3,1.5,0.7h0v-2.9H469.1z M468.2,65.6c0-0.1,0-0.3,0-0.4c-0.1-0.6-0.6-1-1.3-1c-0.9,0-1.4,0.8-1.4,1.9
				c0,1,0.5,1.8,1.4,1.8c0.6,0,1.1-0.4,1.3-1c0-0.1,0-0.2,0-0.4V65.6z"/>
			<path d="M471,66.2c0,1.2,0.8,1.7,1.7,1.7c0.6,0,1-0.1,1.3-0.2l0.2,0.6c-0.3,0.1-0.8,0.3-1.6,0.3c-1.5,0-2.4-1-2.4-2.4
				c0-1.5,0.9-2.6,2.3-2.6c1.6,0,2,1.4,2,2.3c0,0.2,0,0.3,0,0.4H471z M473.6,65.6c0-0.6-0.2-1.4-1.2-1.4c-0.9,0-1.3,0.8-1.3,1.4
				H473.6z"/>
			<path d="M482.4,68.3c-0.3,0.2-1,0.3-1.8,0.3c-1.9,0-3.3-1.2-3.3-3.4c0-2.1,1.4-3.5,3.5-3.5c0.8,0,1.4,0.2,1.6,0.3l-0.2,0.7
				c-0.3-0.2-0.8-0.3-1.4-0.3c-1.6,0-2.6,1-2.6,2.8c0,1.6,1,2.7,2.6,2.7c0.5,0,1.1-0.1,1.4-0.3L482.4,68.3z"/>
			<path d="M487.7,66c0,1.8-1.2,2.6-2.4,2.6c-1.3,0-2.3-1-2.3-2.5c0-1.6,1.1-2.6,2.4-2.6C486.8,63.6,487.7,64.6,487.7,66z
				 M483.9,66.1c0,1.1,0.6,1.9,1.5,1.9c0.8,0,1.5-0.8,1.5-1.9c0-0.8-0.4-1.9-1.4-1.9S483.9,65.2,483.9,66.1z"/>
			<path d="M488.8,61.4h0.9v7.1h-0.9V61.4z"/>
			<path d="M495.6,66c0,1.8-1.2,2.6-2.4,2.6c-1.3,0-2.3-1-2.3-2.5c0-1.6,1.1-2.6,2.4-2.6C494.6,63.6,495.6,64.6,495.6,66z
				 M491.7,66.1c0,1.1,0.6,1.9,1.5,1.9c0.8,0,1.5-0.8,1.5-1.9c0-0.8-0.4-1.9-1.4-1.9S491.7,65.2,491.7,66.1z"/>
			<path d="M496.7,65.2c0-0.6,0-1.1,0-1.5h0.8l0,0.9h0c0.2-0.6,0.7-1.1,1.3-1.1c0.1,0,0.2,0,0.2,0v0.8c-0.1,0-0.2,0-0.3,0
				c-0.6,0-1.1,0.5-1.2,1.1c0,0.1,0,0.3,0,0.4v2.6h-0.9V65.2z"/>
			<path d="M500.3,66.2c0,1.2,0.8,1.7,1.7,1.7c0.6,0,1-0.1,1.3-0.2l0.2,0.6c-0.3,0.1-0.8,0.3-1.6,0.3c-1.5,0-2.4-1-2.4-2.4
				c0-1.5,0.9-2.6,2.3-2.6c1.6,0,2,1.4,2,2.3c0,0.2,0,0.3,0,0.4H500.3z M502.9,65.6c0-0.6-0.2-1.4-1.2-1.4c-0.9,0-1.3,0.8-1.3,1.4
				H502.9z"/>
			<path d="M504.7,67.6c0.3,0.2,0.7,0.3,1.2,0.3c0.6,0,0.9-0.3,0.9-0.7c0-0.4-0.2-0.6-0.9-0.9c-0.9-0.3-1.3-0.8-1.3-1.4
				c0-0.8,0.6-1.4,1.7-1.4c0.5,0,0.9,0.1,1.2,0.3l-0.2,0.6c-0.2-0.1-0.5-0.3-1-0.3c-0.5,0-0.8,0.3-0.8,0.7c0,0.4,0.3,0.6,0.9,0.8
				c0.8,0.3,1.3,0.7,1.3,1.5c0,0.8-0.7,1.4-1.8,1.4c-0.5,0-1-0.1-1.4-0.3L504.7,67.6z"/>
		</g>
	</g>
	<g class="st1">
		<g>
			<path d="M449.5,142l-0.7,2.1h-0.9l2.3-6.7h1l2.3,6.7h-0.9l-0.7-2.1H449.5z M451.7,141.4l-0.7-1.9c-0.1-0.4-0.2-0.8-0.3-1.2h0
				c-0.1,0.4-0.2,0.8-0.3,1.2l-0.7,1.9H451.7z"/>
			<path d="M454.2,140.6c0-0.5,0-0.9,0-1.3h0.8l0,0.8h0c0.2-0.5,0.8-0.9,1.6-0.9c0.7,0,1.7,0.4,1.7,2.1v2.9h-0.9v-2.8
				c0-0.8-0.3-1.4-1.1-1.4c-0.6,0-1,0.4-1.2,0.9c0,0.1-0.1,0.3-0.1,0.4v2.9h-0.9V140.6z"/>
			<path d="M463.7,139.3c0,0.4,0,0.7,0,1.3v2.8c0,1.1-0.2,1.8-0.7,2.2c-0.5,0.4-1.1,0.6-1.8,0.6c-0.6,0-1.2-0.1-1.6-0.4l0.2-0.7
				c0.3,0.2,0.8,0.4,1.4,0.4c0.9,0,1.6-0.5,1.6-1.7v-0.5h0c-0.3,0.4-0.8,0.8-1.5,0.8c-1.2,0-2.1-1-2.1-2.4c0-1.6,1.1-2.6,2.2-2.6
				c0.8,0,1.3,0.4,1.5,0.8h0l0-0.7H463.7z M462.8,141.2c0-0.1,0-0.3,0-0.4c-0.2-0.5-0.6-0.9-1.2-0.9c-0.8,0-1.4,0.7-1.4,1.8
				c0,0.9,0.5,1.7,1.4,1.7c0.5,0,1-0.3,1.2-0.9c0.1-0.1,0.1-0.3,0.1-0.5V141.2z"/>
			<path d="M465.4,141.9c0,1.2,0.8,1.7,1.7,1.7c0.6,0,1-0.1,1.3-0.2l0.1,0.6c-0.3,0.1-0.8,0.3-1.6,0.3c-1.5,0-2.4-1-2.4-2.4
				c0-1.5,0.9-2.6,2.3-2.6c1.6,0,2,1.4,2,2.3c0,0.2,0,0.3,0,0.4H465.4z M467.9,141.3c0-0.6-0.2-1.4-1.2-1.4c-0.9,0-1.3,0.8-1.3,1.4
				H467.9z"/>
			<path d="M469.6,137.1h0.9v7.1h-0.9V137.1z"/>
			<path d="M476.1,141.7c0,1.8-1.2,2.6-2.4,2.6c-1.3,0-2.3-1-2.3-2.5c0-1.6,1.1-2.6,2.4-2.6C475.2,139.2,476.1,140.2,476.1,141.7z
				 M472.3,141.8c0,1.1,0.6,1.9,1.5,1.9c0.8,0,1.5-0.8,1.5-1.9c0-0.8-0.4-1.9-1.4-1.9S472.3,140.8,472.3,141.8z"/>
			<path d="M478,137.9v1.4h1.3v0.7H478v2.6c0,0.6,0.2,0.9,0.7,0.9c0.2,0,0.4,0,0.5-0.1l0,0.7c-0.2,0.1-0.4,0.1-0.8,0.1
				c-0.4,0-0.7-0.1-0.9-0.4c-0.2-0.3-0.3-0.7-0.3-1.3V140h-0.8v-0.7h0.8v-1.2L478,137.9z"/>
			<path d="M480.5,141.9c0,1.2,0.8,1.7,1.7,1.7c0.6,0,1-0.1,1.3-0.2l0.2,0.6c-0.3,0.1-0.8,0.3-1.6,0.3c-1.5,0-2.4-1-2.4-2.4
				c0-1.5,0.9-2.6,2.3-2.6c1.6,0,2,1.4,2,2.3c0,0.2,0,0.3,0,0.4H480.5z M483.1,141.3c0-0.6-0.2-1.4-1.2-1.4c-0.9,0-1.3,0.8-1.3,1.4
				H483.1z"/>
		</g>
	</g>
	<g class="st1">
		<g>
			<path d="M453.1,219.6c-0.3,0.2-1,0.3-1.8,0.3c-1.9,0-3.3-1.2-3.3-3.4c0-2.1,1.4-3.5,3.5-3.5c0.8,0,1.4,0.2,1.6,0.3l-0.2,0.7
				c-0.3-0.2-0.8-0.3-1.4-0.3c-1.6,0-2.6,1-2.6,2.8c0,1.7,1,2.7,2.6,2.7c0.5,0,1.1-0.1,1.4-0.3L453.1,219.6z"/>
			<path d="M455.7,212.9l-1.2,1.4h-0.6l0.9-1.4H455.7z M453.9,219.8V215h0.9v4.8H453.9z"/>
			<path d="M459.5,219.7c-0.2,0.1-0.7,0.3-1.4,0.3c-1.5,0-2.4-1-2.4-2.5c0-1.5,1-2.6,2.6-2.6c0.5,0,1,0.1,1.2,0.2l-0.2,0.7
				c-0.2-0.1-0.5-0.2-1-0.2c-1.1,0-1.7,0.8-1.7,1.8c0,1.1,0.7,1.8,1.7,1.8c0.5,0,0.8-0.1,1.1-0.2L459.5,219.7z"/>
			<path d="M460.2,212.7h0.9v7.1h-0.9V212.7z"/>
			<path d="M463.3,213.6c0,0.3-0.2,0.5-0.6,0.5c-0.3,0-0.5-0.2-0.5-0.5c0-0.3,0.2-0.5,0.5-0.5C463.1,213.1,463.3,213.3,463.3,213.6z
				 M462.3,219.8V215h0.9v4.8H462.3z"/>
			<path d="M468.6,212.7v5.8c0,0.4,0,0.9,0,1.2h-0.8l0-0.8h0c-0.3,0.5-0.9,0.9-1.6,0.9c-1.2,0-2.1-1-2.1-2.5c0-1.6,1-2.6,2.2-2.6
				c0.7,0,1.2,0.3,1.5,0.7h0v-2.9H468.6z M467.7,217c0-0.1,0-0.3,0-0.4c-0.1-0.6-0.6-1-1.3-1c-0.9,0-1.4,0.8-1.4,1.9
				c0,1,0.5,1.8,1.4,1.8c0.6,0,1.1-0.4,1.3-1c0-0.1,0-0.2,0-0.4V217z"/>
			<path d="M474.2,217.4c0,1.8-1.2,2.6-2.4,2.6c-1.3,0-2.3-1-2.3-2.5c0-1.6,1.1-2.6,2.4-2.6C473.3,214.9,474.2,215.9,474.2,217.4z
				 M470.4,217.4c0,1.1,0.6,1.9,1.5,1.9c0.8,0,1.5-0.8,1.5-1.9c0-0.8-0.4-1.9-1.4-1.9S470.4,216.5,470.4,217.4z"/>
			<path d="M474.9,218.9c0.3,0.2,0.7,0.3,1.2,0.3c0.6,0,0.9-0.3,0.9-0.7c0-0.4-0.2-0.6-0.9-0.9c-0.9-0.3-1.3-0.8-1.3-1.4
				c0-0.8,0.6-1.4,1.7-1.4c0.5,0,0.9,0.1,1.2,0.3l-0.2,0.6c-0.2-0.1-0.5-0.3-1-0.3c-0.5,0-0.8,0.3-0.8,0.7c0,0.4,0.3,0.6,0.9,0.8
				c0.8,0.3,1.3,0.7,1.3,1.5c0,0.8-0.7,1.4-1.8,1.4c-0.5,0-1-0.1-1.4-0.3L474.9,218.9z"/>
		</g>
	</g>
	<g class="st1">
		<g>
			<path d="M452.4,268.9c-0.3,0.1-0.9,0.3-1.7,0.3c-0.8,0-1.5-0.2-2-0.7c-0.5-0.4-0.8-1.2-0.8-2c0-1.6,1.1-2.8,2.9-2.8
				c0.6,0,1.1,0.1,1.3,0.2l-0.2,0.6c-0.3-0.1-0.6-0.2-1.2-0.2c-1.3,0-2.2,0.8-2.2,2.2c0,1.4,0.8,2.2,2.1,2.2c0.5,0,0.8-0.1,0.9-0.1
				v-1.6h-1.1v-0.6h1.8V268.9z"/>
			<path d="M456.5,268.1c0,0.4,0,0.8,0,1.1h-0.6l0-0.6h0c-0.2,0.3-0.6,0.7-1.3,0.7c-0.6,0-1.3-0.3-1.3-1.7v-2.3h0.7v2.1
				c0,0.7,0.2,1.2,0.9,1.2c0.5,0,0.8-0.3,0.9-0.6c0-0.1,0.1-0.2,0.1-0.4v-2.4h0.7V268.1z"/>
			<path d="M457.4,266.6c0-0.5,0-0.9,0-1.3h0.6l0,0.7h0c0.3-0.5,0.7-0.8,1.4-0.8c0.9,0,1.6,0.8,1.6,2c0,1.4-0.8,2.1-1.8,2.1
				c-0.5,0-1-0.2-1.2-0.6h0v2.1h-0.7V266.6z M458.1,267.6c0,0.1,0,0.2,0,0.3c0.1,0.5,0.6,0.8,1.1,0.8c0.7,0,1.2-0.6,1.2-1.5
				c0-0.8-0.4-1.4-1.2-1.4c-0.5,0-0.9,0.3-1.1,0.9c0,0.1,0,0.2,0,0.3V267.6z"/>
			<path d="M461.8,266.6c0-0.5,0-0.9,0-1.3h0.6l0,0.7h0c0.3-0.5,0.7-0.8,1.4-0.8c0.9,0,1.6,0.8,1.6,2c0,1.4-0.8,2.1-1.8,2.1
				c-0.5,0-1-0.2-1.2-0.6h0v2.1h-0.7V266.6z M462.5,267.6c0,0.1,0,0.2,0,0.3c0.1,0.5,0.6,0.8,1.1,0.8c0.7,0,1.2-0.6,1.2-1.5
				c0-0.8-0.4-1.4-1.2-1.4c-0.5,0-0.9,0.3-1.1,0.9c0,0.1,0,0.2,0,0.3V267.6z"/>
			<path d="M466.3,265.3l0.8,2.3c0.1,0.3,0.2,0.6,0.2,0.8h0c0.1-0.2,0.2-0.5,0.2-0.8l0.8-2.3h0.7l-1.1,2.8c-0.5,1.3-0.8,2-1.3,2.4
				c-0.3,0.3-0.7,0.4-0.9,0.5l-0.2-0.6c0.2-0.1,0.4-0.2,0.6-0.3c0.2-0.2,0.4-0.4,0.6-0.8c0-0.1,0.1-0.1,0.1-0.2s0-0.1,0-0.2
				l-1.4-3.6H466.3z"/>
		</g>
	</g>
	<g class="st1">
		<g>
			<path d="M483.9,263.8h0.7v4.8h2.3v0.6h-3V263.8z"/>
			<path d="M490.9,267.2c0,1.4-1,2.1-1.9,2.1c-1,0-1.9-0.8-1.9-2c0-1.3,0.8-2.1,1.9-2.1C490.1,265.2,490.9,266,490.9,267.2z
				 M487.8,267.2c0,0.8,0.5,1.5,1.2,1.5c0.7,0,1.2-0.6,1.2-1.5c0-0.7-0.3-1.5-1.2-1.5C488.2,265.7,487.8,266.5,487.8,267.2z"/>
			<path d="M494.3,269c-0.2,0.1-0.6,0.2-1.1,0.2c-1.2,0-1.9-0.8-1.9-2c0-1.2,0.8-2.1,2.1-2.1c0.4,0,0.8,0.1,1,0.2l-0.2,0.5
				c-0.2-0.1-0.4-0.2-0.8-0.2c-0.9,0-1.4,0.7-1.4,1.5c0,0.9,0.6,1.4,1.3,1.4c0.4,0,0.7-0.1,0.9-0.2L494.3,269z"/>
			<path d="M495,263.5h0.7v2.4h0c0.1-0.2,0.3-0.4,0.5-0.5c0.2-0.1,0.5-0.2,0.7-0.2c0.5,0,1.4,0.3,1.4,1.7v2.3h-0.7v-2.2
				c0-0.6-0.2-1.2-0.9-1.2c-0.5,0-0.8,0.3-0.9,0.7c0,0.1,0,0.2,0,0.3v2.3H495V263.5z"/>
			<path d="M501.3,269.2l-0.1-0.5h0c-0.2,0.3-0.6,0.6-1.2,0.6c-0.8,0-1.2-0.6-1.2-1.1c0-0.9,0.8-1.4,2.3-1.4v-0.1
				c0-0.3-0.1-0.9-0.9-0.9c-0.4,0-0.7,0.1-1,0.3l-0.2-0.5c0.3-0.2,0.8-0.3,1.3-0.3c1.2,0,1.5,0.8,1.5,1.6v1.4c0,0.3,0,0.7,0.1,0.9
				H501.3z M501.2,267.2c-0.8,0-1.6,0.1-1.6,0.9c0,0.5,0.3,0.7,0.7,0.7c0.5,0,0.8-0.3,0.9-0.6c0-0.1,0-0.2,0-0.2V267.2z"/>
		</g>
	</g>
	<g class="st1">
		<g>
			<path d="M520.3,263.8c0.3-0.1,0.8-0.1,1.3-0.1c0.7,0,1.1,0.1,1.5,0.4c0.3,0.2,0.4,0.5,0.4,1c0,0.5-0.3,1-0.9,1.2v0
				c0.5,0.1,1.1,0.6,1.1,1.4c0,0.5-0.2,0.8-0.5,1.1c-0.4,0.3-1,0.5-1.9,0.5c-0.5,0-0.8,0-1.1-0.1V263.8z M521,266.1h0.6
				c0.7,0,1.2-0.4,1.2-0.9c0-0.6-0.5-0.9-1.2-0.9c-0.3,0-0.5,0-0.6,0V266.1z M521,268.6c0.1,0,0.3,0,0.6,0c0.7,0,1.4-0.3,1.4-1
				c0-0.7-0.6-1-1.4-1H521V268.6z"/>
			<path d="M524.8,267.4c0,1,0.6,1.3,1.3,1.3c0.5,0,0.8-0.1,1.1-0.2l0.1,0.5c-0.2,0.1-0.7,0.2-1.3,0.2c-1.2,0-1.9-0.8-1.9-2
				c0-1.2,0.7-2.1,1.8-2.1c1.3,0,1.6,1.1,1.6,1.8c0,0.1,0,0.3,0,0.3H524.8z M526.9,266.9c0-0.4-0.2-1.1-1-1.1c-0.7,0-1,0.7-1.1,1.1
				H526.9z"/>
			<path d="M529.1,264.2v1.1h1v0.5h-1v2.1c0,0.5,0.1,0.8,0.5,0.8c0.2,0,0.3,0,0.4,0l0,0.5c-0.1,0.1-0.4,0.1-0.6,0.1
				c-0.3,0-0.6-0.1-0.8-0.3c-0.2-0.2-0.3-0.6-0.3-1v-2.1h-0.6v-0.5h0.6v-0.9L529.1,264.2z"/>
			<path d="M531.5,264.2v1.1h1v0.5h-1v2.1c0,0.5,0.1,0.8,0.5,0.8c0.2,0,0.3,0,0.4,0l0,0.5c-0.1,0.1-0.4,0.1-0.6,0.1
				c-0.3,0-0.6-0.1-0.8-0.3c-0.2-0.2-0.3-0.6-0.3-1v-2.1h-0.6v-0.5h0.6v-0.9L531.5,264.2z"/>
			<path d="M535.3,269.2l-0.1-0.5h0c-0.2,0.3-0.6,0.6-1.2,0.6c-0.8,0-1.2-0.6-1.2-1.1c0-0.9,0.8-1.4,2.3-1.4v-0.1
				c0-0.3-0.1-0.9-0.9-0.9c-0.4,0-0.7,0.1-1,0.3l-0.2-0.5c0.3-0.2,0.8-0.3,1.3-0.3c1.2,0,1.5,0.8,1.5,1.6v1.4c0,0.3,0,0.7,0.1,0.9
				H535.3z M535.2,267.2c-0.8,0-1.6,0.1-1.6,0.9c0,0.5,0.3,0.7,0.7,0.7c0.5,0,0.8-0.3,0.9-0.6c0-0.1,0-0.2,0-0.2V267.2z"/>
		</g>
	</g>
	<g class="st1">
		<g>
			<path d="M560,268.9c-0.3,0.1-0.9,0.3-1.7,0.3c-0.8,0-1.5-0.2-2-0.7c-0.5-0.4-0.8-1.2-0.8-2c0-1.6,1.1-2.8,2.9-2.8
				c0.6,0,1.1,0.1,1.3,0.2l-0.2,0.6c-0.3-0.1-0.6-0.2-1.2-0.2c-1.3,0-2.2,0.8-2.2,2.2c0,1.4,0.8,2.2,2.1,2.2c0.5,0,0.8-0.1,0.9-0.1
				v-1.6h-1.1v-0.6h1.8V268.9z"/>
			<path d="M560.9,263.5h0.7v5.7h-0.7V263.5z"/>
			<path d="M566.1,267.2c0,1.4-1,2.1-1.9,2.1c-1,0-1.9-0.8-1.9-2c0-1.3,0.8-2.1,1.9-2.1C565.3,265.2,566.1,266,566.1,267.2z
				 M563,267.2c0,0.8,0.5,1.5,1.2,1.5c0.7,0,1.2-0.6,1.2-1.5c0-0.7-0.3-1.5-1.2-1.5C563.4,265.7,563,266.5,563,267.2z"/>
			<path d="M566.8,269.2v-3.3h-0.5v-0.5h0.5v-0.2c0-1,0.6-1.7,1.7-1.7c0.4,0,0.8,0.1,1,0.3l-0.2,0.5c-0.2-0.1-0.5-0.2-0.8-0.2
				c-0.7,0-1,0.5-1,1.1v0.2h2.2v3.9h-0.7v-3.3h-1.6v3.3H566.8z"/>
			<path d="M570.7,268.4c0.2,0.1,0.6,0.3,0.9,0.3c0.5,0,0.8-0.3,0.8-0.6c0-0.3-0.2-0.5-0.7-0.7c-0.7-0.2-1-0.6-1-1.1
				c0-0.6,0.5-1.1,1.3-1.1c0.4,0,0.7,0.1,1,0.2l-0.2,0.5c-0.2-0.1-0.4-0.2-0.8-0.2c-0.4,0-0.6,0.2-0.6,0.5c0,0.3,0.2,0.5,0.7,0.7
				c0.7,0.3,1,0.6,1,1.2c0,0.7-0.5,1.2-1.4,1.2c-0.4,0-0.8-0.1-1.1-0.3L570.7,268.4z"/>
			<path d="M573.7,263.5h0.7v2.4h0c0.1-0.2,0.3-0.4,0.5-0.5c0.2-0.1,0.5-0.2,0.7-0.2c0.5,0,1.4,0.3,1.4,1.7v2.3h-0.7v-2.2
				c0-0.6-0.2-1.2-0.9-1.2c-0.5,0-0.8,0.3-0.9,0.7c0,0.1,0,0.2,0,0.3v2.3h-0.7V263.5z"/>
		</g>
	</g>
	<g class="st1">
		<g>
			<path d="M502.3,216.9c0-0.9-0.1-2.1-0.1-2.9h0c-0.2,0.8-0.5,1.6-0.8,2.6l-1.2,3.3h-0.7l-1.1-3.2c-0.3-1-0.6-1.8-0.8-2.6h0
				c0,0.8-0.1,2-0.1,3l-0.2,2.9h-0.8l0.5-6.7h1.1l1.2,3.3c0.3,0.8,0.5,1.6,0.7,2.3h0c0.2-0.7,0.4-1.4,0.7-2.3l1.2-3.3h1.1l0.4,6.7
				h-0.8L502.3,216.9z"/>
			<path d="M508.8,217.4c0,1.8-1.2,2.6-2.4,2.6c-1.3,0-2.3-1-2.3-2.5c0-1.6,1.1-2.6,2.4-2.6C507.9,214.9,508.8,215.9,508.8,217.4z
				 M505,217.4c0,1.1,0.6,1.9,1.5,1.9c0.8,0,1.5-0.8,1.5-1.9c0-0.8-0.4-1.9-1.4-1.9C505.4,215.5,505,216.5,505,217.4z"/>
			<path d="M509.7,212.7h0.9v7.1h-0.9V212.7z"/>
			<path d="M511.8,212.7h0.9v7.1h-0.9V212.7z"/>
			<path d="M514.2,215l1.1,2.9c0.1,0.3,0.2,0.7,0.3,1h0c0.1-0.3,0.2-0.7,0.3-1l1-2.8h0.9l-1.3,3.4c-0.6,1.7-1.1,2.5-1.7,3
				c-0.4,0.4-0.9,0.5-1.1,0.6l-0.2-0.7c0.2-0.1,0.5-0.2,0.8-0.4c0.2-0.2,0.5-0.5,0.7-1c0-0.1,0.1-0.2,0.1-0.2c0-0.1,0-0.1-0.1-0.2
				l-1.8-4.5H514.2z"/>
		</g>
	</g>
	<g class="st1">
		<g>
			<path d="M544.9,213.8h-2v-0.7h5v0.7h-2.1v6h-0.9V213.8z"/>
			<path d="M548.1,217.6c0,1.2,0.8,1.7,1.7,1.7c0.6,0,1-0.1,1.3-0.2l0.1,0.6c-0.3,0.1-0.8,0.3-1.6,0.3c-1.5,0-2.4-1-2.4-2.4
				s0.9-2.6,2.3-2.6c1.6,0,2,1.4,2,2.3c0,0.2,0,0.3,0,0.4H548.1z M550.7,216.9c0-0.6-0.2-1.4-1.2-1.4c-0.9,0-1.3,0.8-1.3,1.4H550.7z
				"/>
			<path d="M553.4,213.6v1.4h1.3v0.7h-1.3v2.6c0,0.6,0.2,0.9,0.7,0.9c0.2,0,0.4,0,0.5-0.1l0,0.7c-0.2,0.1-0.4,0.1-0.8,0.1
				c-0.4,0-0.7-0.1-0.9-0.4c-0.2-0.3-0.3-0.7-0.3-1.3v-2.6h-0.8V215h0.8v-1.2L553.4,213.6z"/>
			<path d="M555.4,216.5c0-0.6,0-1.1,0-1.5h0.8l0,0.9h0c0.2-0.7,0.7-1.1,1.3-1.1c0.1,0,0.2,0,0.2,0v0.8c-0.1,0-0.2,0-0.3,0
				c-0.6,0-1.1,0.5-1.2,1.1c0,0.1,0,0.3,0,0.4v2.6h-0.9V216.5z"/>
			<path d="M561.1,219.8l-0.1-0.6h0c-0.3,0.4-0.8,0.7-1.5,0.7c-1,0-1.5-0.7-1.5-1.4c0-1.2,1-1.8,2.9-1.8v-0.1c0-0.4-0.1-1.1-1.1-1.1
				c-0.5,0-0.9,0.1-1.3,0.4l-0.2-0.6c0.4-0.3,1-0.4,1.6-0.4c1.5,0,1.8,1,1.8,2v1.8c0,0.4,0,0.8,0.1,1.2H561.1z M560.9,217.4
				c-1,0-2,0.1-2,1.1c0,0.6,0.4,0.8,0.8,0.8c0.6,0,1-0.4,1.2-0.8c0-0.1,0.1-0.2,0.1-0.3V217.4z"/>
		</g>
	</g>
	<g class="st1">
		<g>
			<path d="M521.4,137.5c0.4-0.1,1-0.1,1.6-0.1c0.9,0,1.4,0.1,1.8,0.5c0.3,0.3,0.6,0.7,0.6,1.2c0,0.6-0.4,1.2-1.1,1.5v0
				c0.6,0.2,1.4,0.7,1.4,1.7c0,0.6-0.2,1-0.6,1.3c-0.5,0.4-1.2,0.6-2.3,0.6c-0.6,0-1.1,0-1.3-0.1V137.5z M522.3,140.3h0.8
				c0.9,0,1.5-0.5,1.5-1.1c0-0.8-0.6-1.1-1.5-1.1c-0.4,0-0.6,0-0.8,0.1V140.3z M522.3,143.5c0.2,0,0.4,0,0.7,0
				c0.9,0,1.7-0.3,1.7-1.3c0-0.9-0.8-1.3-1.7-1.3h-0.7V143.5z"/>
			<path d="M529.2,144.2l-0.1-0.6h0c-0.3,0.4-0.8,0.7-1.5,0.7c-1,0-1.5-0.7-1.5-1.4c0-1.2,1-1.8,2.9-1.8V141c0-0.4-0.1-1.1-1.1-1.1
				c-0.5,0-0.9,0.1-1.3,0.4l-0.2-0.6c0.4-0.3,1-0.4,1.6-0.4c1.5,0,1.8,1,1.8,2v1.8c0,0.4,0,0.8,0.1,1.2H529.2z M529.1,141.7
				c-1,0-2,0.1-2,1.1c0,0.6,0.4,0.8,0.8,0.8c0.6,0,1-0.4,1.2-0.8c0-0.1,0.1-0.2,0.1-0.3V141.7z"/>
			<path d="M535.3,139.3c0,0.4,0,0.7,0,1.3v2.8c0,1.1-0.2,1.8-0.7,2.2c-0.5,0.4-1.1,0.6-1.8,0.6c-0.6,0-1.2-0.1-1.6-0.4l0.2-0.7
				c0.3,0.2,0.8,0.4,1.4,0.4c0.9,0,1.6-0.5,1.6-1.7v-0.5h0c-0.3,0.4-0.8,0.8-1.5,0.8c-1.2,0-2.1-1-2.1-2.4c0-1.6,1.1-2.6,2.2-2.6
				c0.8,0,1.3,0.4,1.5,0.8h0l0-0.7H535.3z M534.4,141.2c0-0.1,0-0.3,0-0.4c-0.2-0.5-0.6-0.9-1.2-0.9c-0.8,0-1.4,0.7-1.4,1.8
				c0,0.9,0.5,1.7,1.4,1.7c0.5,0,1-0.3,1.2-0.9c0.1-0.1,0.1-0.3,0.1-0.5V141.2z"/>
			<path d="M536.4,140.8c0-0.6,0-1.1,0-1.5h0.8l0,0.9h0c0.2-0.6,0.7-1.1,1.3-1.1c0.1,0,0.2,0,0.2,0v0.8c-0.1,0-0.2,0-0.3,0
				c-0.6,0-1.1,0.5-1.2,1.1c0,0.1,0,0.3,0,0.4v2.6h-0.9V140.8z"/>
			<path d="M539.8,141.9c0,1.2,0.8,1.7,1.7,1.7c0.6,0,1-0.1,1.3-0.2l0.2,0.6c-0.3,0.1-0.8,0.3-1.6,0.3c-1.5,0-2.4-1-2.4-2.4
				c0-1.5,0.9-2.6,2.3-2.6c1.6,0,2,1.4,2,2.3c0,0.2,0,0.3,0,0.4H539.8z M542.4,141.3c0-0.6-0.2-1.4-1.2-1.4c-0.9,0-1.3,0.8-1.3,1.4
				H542.4z"/>
		</g>
	</g>
	<g class="st1">
		<g>
			<path d="M526.1,68.3c-0.3,0.2-1,0.3-1.8,0.3c-1.9,0-3.3-1.2-3.3-3.4c0-2.1,1.4-3.5,3.5-3.5c0.8,0,1.4,0.2,1.6,0.3l-0.2,0.7
				c-0.3-0.2-0.8-0.3-1.4-0.3c-1.6,0-2.6,1-2.6,2.8c0,1.6,1,2.7,2.6,2.7c0.5,0,1.1-0.1,1.4-0.3L526.1,68.3z"/>
			<path d="M530.1,68.5l-0.1-0.6h0c-0.3,0.4-0.8,0.7-1.5,0.7c-1,0-1.5-0.7-1.5-1.4c0-1.2,1-1.8,2.9-1.8v-0.1c0-0.4-0.1-1.1-1.1-1.1
				c-0.5,0-0.9,0.1-1.3,0.4l-0.2-0.6c0.4-0.3,1-0.4,1.6-0.4c1.5,0,1.8,1,1.8,2v1.8c0,0.4,0,0.8,0.1,1.2H530.1z M529.9,66
				c-1,0-2,0.1-2,1.1c0,0.6,0.4,0.8,0.8,0.8c0.6,0,1-0.4,1.2-0.8c0-0.1,0.1-0.2,0.1-0.3V66z"/>
			<path d="M532.4,65.2c0-0.6,0-1.1,0-1.5h0.8l0,0.9h0c0.2-0.6,0.8-1.1,1.3-1.1c0.1,0,0.2,0,0.2,0v0.8c-0.1,0-0.2,0-0.3,0
				c-0.6,0-1.1,0.5-1.2,1.1c0,0.1,0,0.3,0,0.4v2.6h-0.9V65.2z"/>
			<path d="M536,65.2c0-0.6,0-1.1,0-1.6h0.8l0,0.8h0c0.4-0.6,0.9-0.9,1.7-0.9c1.2,0,2,1,2,2.5c0,1.7-1.1,2.6-2.2,2.6
				c-0.6,0-1.2-0.3-1.5-0.8h0v2.6H536V65.2z M536.9,66.5c0,0.1,0,0.2,0,0.4c0.2,0.6,0.7,1,1.3,1c0.9,0,1.5-0.8,1.5-1.9
				c0-1-0.5-1.8-1.4-1.8c-0.6,0-1.2,0.4-1.3,1.1c0,0.1-0.1,0.2-0.1,0.4V66.5z"/>
			<path d="M544.6,68.5l-0.1-0.6h0c-0.3,0.4-0.8,0.7-1.5,0.7c-1,0-1.5-0.7-1.5-1.4c0-1.2,1-1.8,2.9-1.8v-0.1c0-0.4-0.1-1.1-1.1-1.1
				c-0.4,0-0.9,0.1-1.3,0.4l-0.2-0.6c0.4-0.3,1-0.4,1.6-0.4c1.5,0,1.8,1,1.8,2v1.8c0,0.4,0,0.8,0.1,1.2H544.6z M544.5,66
				c-1,0-2,0.1-2,1.1c0,0.6,0.4,0.8,0.8,0.8c0.6,0,1-0.4,1.2-0.8c0-0.1,0-0.2,0-0.3V66z"/>
			<path d="M550.3,62.5h-2v-0.7h5v0.7h-2.1v6h-0.9V62.5z"/>
			<path d="M555.9,61.6l-1.2,1.4H554l0.9-1.4H555.9z M554.1,68.5v-4.8h0.9v4.8H554.1z"/>
			<path d="M556.7,65c0-0.5,0-0.9,0-1.3h0.8l0,0.8h0c0.3-0.5,0.7-0.9,1.5-0.9c0.7,0,1.2,0.4,1.4,1h0c0.1-0.3,0.3-0.5,0.5-0.6
				c0.3-0.2,0.6-0.3,1.1-0.3c0.6,0,1.6,0.4,1.6,2.1v2.8h-0.9v-2.7c0-0.9-0.3-1.5-1-1.5c-0.5,0-0.9,0.4-1,0.8c0,0.1-0.1,0.3-0.1,0.4
				v3h-0.9v-2.9c0-0.8-0.3-1.3-1-1.3c-0.6,0-1,0.4-1.1,0.9c-0.1,0.1-0.1,0.3-0.1,0.4v2.9h-0.9V65z"/>
			<path d="M566.2,62.3c0,0.3-0.2,0.5-0.6,0.5c-0.3,0-0.5-0.2-0.5-0.5c0-0.3,0.2-0.5,0.5-0.5C566,61.8,566.2,62,566.2,62.3z
				 M565.3,68.5v-4.8h0.9v4.8H565.3z"/>
			<path d="M572,61.4v5.8c0,0.4,0,0.9,0,1.2h-0.8l0-0.8h0c-0.3,0.5-0.9,0.9-1.6,0.9c-1.2,0-2.1-1-2.1-2.5c0-1.6,1-2.6,2.2-2.6
				c0.7,0,1.2,0.3,1.5,0.7h0v-2.9H572z M571.1,65.6c0-0.1,0-0.3,0-0.4c-0.1-0.6-0.6-1-1.3-1c-0.9,0-1.4,0.8-1.4,1.9
				c0,1,0.5,1.8,1.4,1.8c0.6,0,1.1-0.4,1.3-1c0-0.1,0-0.2,0-0.4V65.6z"/>
			<path d="M576.4,68.5l-0.1-0.6h0c-0.3,0.4-0.8,0.7-1.5,0.7c-1,0-1.5-0.7-1.5-1.4c0-1.2,1-1.8,2.9-1.8v-0.1c0-0.4-0.1-1.1-1.1-1.1
				c-0.5,0-0.9,0.1-1.3,0.4l-0.2-0.6c0.4-0.3,1-0.4,1.6-0.4c1.5,0,1.8,1,1.8,2v1.8c0,0.4,0,0.8,0.1,1.2H576.4z M576.3,66
				c-1,0-2,0.1-2,1.1c0,0.6,0.4,0.8,0.8,0.8c0.6,0,1-0.4,1.2-0.8c0-0.1,0.1-0.2,0.1-0.3V66z"/>
		</g>
	</g>
	<g class="st1">
		<g>
			<path d="M611.6,68.2c-0.4,0.1-1.2,0.4-2.1,0.4c-1,0-1.9-0.3-2.5-0.9c-0.6-0.6-0.9-1.5-0.9-2.5c0-2,1.4-3.5,3.6-3.5
				c0.8,0,1.4,0.2,1.7,0.3l-0.2,0.7c-0.4-0.2-0.8-0.3-1.5-0.3c-1.6,0-2.7,1-2.7,2.7c0,1.7,1,2.7,2.6,2.7c0.6,0,1-0.1,1.2-0.2v-2
				h-1.4V65h2.2V68.2z"/>
			<path d="M613.6,66.2c0,1.2,0.8,1.7,1.7,1.7c0.6,0,1-0.1,1.3-0.2l0.2,0.6c-0.3,0.1-0.8,0.3-1.6,0.3c-1.5,0-2.4-1-2.4-2.4
				c0-1.5,0.9-2.6,2.3-2.6c1.6,0,2,1.4,2,2.3c0,0.2,0,0.3,0,0.4H613.6z M616.2,65.6c0-0.6-0.2-1.4-1.2-1.4c-0.9,0-1.3,0.8-1.3,1.4
				H616.2z"/>
			<path d="M621.9,68.3c-0.2,0.1-0.7,0.3-1.4,0.3c-1.5,0-2.4-1-2.4-2.5c0-1.5,1-2.6,2.6-2.6c0.5,0,1,0.1,1.2,0.2l-0.2,0.7
				c-0.2-0.1-0.5-0.2-1-0.2c-1.1,0-1.7,0.8-1.7,1.8c0,1.1,0.7,1.8,1.7,1.8c0.5,0,0.8-0.1,1.1-0.2L621.9,68.3z"/>
			<path d="M624,65.9L624,65.9c0.1-0.2,0.3-0.4,0.5-0.5l1.4-1.7h1.1l-1.9,2l2.1,2.8h-1.1l-1.7-2.3l-0.5,0.5v1.8h-0.9v-7.1h0.9V65.9z
				"/>
			<path d="M632.5,66c0,1.8-1.2,2.6-2.4,2.6c-1.3,0-2.3-1-2.3-2.5c0-1.6,1.1-2.6,2.4-2.6C631.5,63.6,632.5,64.6,632.5,66z
				 M628.6,66.1c0,1.1,0.6,1.9,1.5,1.9c0.8,0,1.5-0.8,1.5-1.9c0-0.8-0.4-1.9-1.4-1.9S628.6,65.2,628.6,66.1z"/>
			<path d="M633.7,67.6c0.3,0.2,0.7,0.3,1.2,0.3c0.6,0,0.9-0.3,0.9-0.7c0-0.4-0.2-0.6-0.9-0.9c-0.9-0.3-1.3-0.8-1.3-1.4
				c0-0.8,0.6-1.4,1.7-1.4c0.5,0,0.9,0.1,1.2,0.3l-0.2,0.6c-0.2-0.1-0.5-0.3-1-0.3c-0.5,0-0.8,0.3-0.8,0.7c0,0.4,0.3,0.6,0.9,0.8
				c0.8,0.3,1.3,0.7,1.3,1.5c0,0.8-0.7,1.4-1.8,1.4c-0.5,0-1-0.1-1.4-0.3L633.7,67.6z"/>
		</g>
	</g>
	<g class="st1">
		<g>
			<path d="M606.2,179c0.3,0.2,0.8,0.4,1.2,0.4c0.7,0,1.1-0.4,1.1-0.9c0-0.5-0.3-0.8-1-1.1c-0.9-0.3-1.4-0.8-1.4-1.5
				c0-0.8,0.7-1.5,1.7-1.5c0.6,0,1,0.1,1.2,0.3l-0.2,0.6c-0.2-0.1-0.5-0.3-1-0.3c-0.7,0-1,0.4-1,0.8c0,0.5,0.3,0.8,1.1,1
				c0.9,0.4,1.4,0.8,1.4,1.6c0,0.8-0.6,1.6-1.9,1.6c-0.5,0-1.1-0.2-1.4-0.3L606.2,179z"/>
			<path d="M610.8,178c0,1,0.6,1.3,1.3,1.3c0.5,0,0.8-0.1,1.1-0.2l0.1,0.5c-0.2,0.1-0.7,0.2-1.3,0.2c-1.2,0-1.9-0.8-1.9-2
				s0.7-2.1,1.8-2.1c1.3,0,1.6,1.1,1.6,1.8c0,0.1,0,0.3,0,0.3H610.8z M612.9,177.5c0-0.4-0.2-1.1-1-1.1c-0.7,0-1,0.7-1.1,1.1H612.9z
				"/>
			<path d="M614.7,177.2c0-0.5,0-0.8,0-1.2h0.6l0,0.8h0c0.2-0.5,0.6-0.8,1.1-0.8c0.1,0,0.1,0,0.2,0v0.7c-0.1,0-0.1,0-0.2,0
				c-0.5,0-0.8,0.4-0.9,0.9c0,0.1,0,0.2,0,0.3v2.1h-0.7V177.2z"/>
			<path d="M617.5,177.2c0-0.5,0-0.9,0-1.3h0.6l0,0.7h0c0.3-0.5,0.7-0.8,1.4-0.8c0.9,0,1.6,0.8,1.6,2c0,1.4-0.8,2.1-1.8,2.1
				c-0.5,0-1-0.2-1.2-0.6h0v2.1h-0.7V177.2z M618.2,178.3c0,0.1,0,0.2,0,0.3c0.1,0.5,0.6,0.8,1.1,0.8c0.7,0,1.2-0.6,1.2-1.5
				c0-0.8-0.4-1.4-1.2-1.4c-0.5,0-0.9,0.3-1.1,0.9c0,0.1,0,0.2,0,0.3V178.3z"/>
			<path d="M623,174.9c0,0.2-0.2,0.4-0.4,0.4c-0.2,0-0.4-0.2-0.4-0.4c0-0.2,0.2-0.4,0.4-0.4C622.9,174.4,623,174.6,623,174.9z
				 M622.2,179.8V176h0.7v3.9H622.2z"/>
			<path d="M624.7,178c0,1,0.6,1.3,1.3,1.3c0.5,0,0.8-0.1,1.1-0.2l0.1,0.5c-0.2,0.1-0.7,0.2-1.3,0.2c-1.2,0-1.9-0.8-1.9-2
				s0.7-2.1,1.8-2.1c1.3,0,1.6,1.1,1.6,1.8c0,0.1,0,0.3,0,0.3H624.7z M626.8,177.5c0-0.4-0.2-1.1-1-1.1c-0.7,0-1,0.7-1.1,1.1H626.8z
				"/>
			<path d="M628.5,177c0-0.4,0-0.7,0-1h0.6l0,0.6h0c0.2-0.4,0.6-0.7,1.3-0.7c0.5,0,1.4,0.3,1.4,1.6v2.3h-0.7v-2.2
				c0-0.6-0.2-1.1-0.9-1.1c-0.5,0-0.8,0.3-0.9,0.7c0,0.1,0,0.2,0,0.3v2.3h-0.7V177z"/>
			<path d="M634,174.9v1.1h1v0.5h-1v2.1c0,0.5,0.1,0.8,0.5,0.8c0.2,0,0.3,0,0.4,0l0,0.5c-0.1,0.1-0.4,0.1-0.6,0.1
				c-0.3,0-0.6-0.1-0.8-0.3c-0.2-0.2-0.3-0.6-0.3-1v-2.1h-0.6V176h0.6V175L634,174.9z"/>
			<path d="M636.3,178c0,1,0.6,1.3,1.3,1.3c0.5,0,0.8-0.1,1.1-0.2l0.1,0.5c-0.2,0.1-0.7,0.2-1.3,0.2c-1.2,0-1.9-0.8-1.9-2
				s0.7-2.1,1.8-2.1c1.3,0,1.6,1.1,1.6,1.8c0,0.1,0,0.3,0,0.3H636.3z M638.4,177.5c0-0.4-0.2-1.1-1-1.1c-0.7,0-1,0.7-1.1,1.1H638.4z
				"/>
			<path d="M640.1,179.1c0.2,0.1,0.6,0.3,0.9,0.3c0.5,0,0.8-0.3,0.8-0.6c0-0.3-0.2-0.5-0.7-0.7c-0.7-0.2-1-0.6-1-1.1
				c0-0.6,0.5-1.1,1.3-1.1c0.4,0,0.7,0.1,1,0.2l-0.2,0.5c-0.2-0.1-0.4-0.2-0.8-0.2c-0.4,0-0.6,0.2-0.6,0.5c0,0.3,0.2,0.5,0.7,0.7
				c0.7,0.3,1,0.6,1,1.2c0,0.7-0.5,1.2-1.4,1.2c-0.4,0-0.8-0.1-1.1-0.3L640.1,179.1z"/>
		</g>
	</g>
	<g class="st1">
		<g>
			<path d="M606.3,267.2c0.4-0.1,0.9-0.1,1.5-0.1c1,0,1.7,0.2,2.2,0.7c0.5,0.4,0.8,1.1,0.8,1.9c0,0.9-0.3,1.6-0.8,2.1
				c-0.5,0.5-1.3,0.8-2.4,0.8c-0.5,0-0.9,0-1.3-0.1V267.2z M607,271.9c0.2,0,0.4,0,0.7,0c1.5,0,2.3-0.8,2.3-2.3
				c0-1.3-0.7-2.1-2.2-2.1c-0.4,0-0.6,0-0.8,0.1V271.9z"/>
			<path d="M611.8,269.8c0-0.5,0-0.8,0-1.2h0.6l0,0.8h0c0.2-0.5,0.6-0.8,1.1-0.8c0.1,0,0.1,0,0.2,0v0.7c-0.1,0-0.1,0-0.2,0
				c-0.5,0-0.8,0.4-0.9,0.9c0,0.1,0,0.2,0,0.3v2.1h-0.7V269.8z"/>
			<path d="M616.7,272.5l-0.1-0.5h0c-0.2,0.3-0.6,0.6-1.2,0.6c-0.8,0-1.2-0.6-1.2-1.1c0-0.9,0.8-1.4,2.3-1.4V270
				c0-0.3-0.1-0.9-0.9-0.9c-0.4,0-0.7,0.1-1,0.3l-0.2-0.5c0.3-0.2,0.8-0.3,1.3-0.3c1.2,0,1.5,0.8,1.5,1.6v1.4c0,0.3,0,0.7,0.1,0.9
				H616.7z M616.6,270.5c-0.8,0-1.6,0.1-1.6,0.9c0,0.5,0.3,0.7,0.7,0.7c0.5,0,0.8-0.3,0.9-0.6c0-0.1,0-0.2,0-0.2V270.5z"/>
			<path d="M621.9,268.6c0,0.3,0,0.6,0,1.1v2.2c0,0.9-0.2,1.4-0.6,1.8c-0.4,0.4-0.9,0.5-1.4,0.5c-0.5,0-1-0.1-1.3-0.3l0.2-0.5
				c0.3,0.2,0.7,0.3,1.1,0.3c0.7,0,1.2-0.4,1.2-1.4v-0.4h0c-0.2,0.4-0.6,0.6-1.2,0.6c-1,0-1.6-0.8-1.6-1.9c0-1.3,0.9-2.1,1.7-2.1
				c0.7,0,1,0.4,1.2,0.7h0l0-0.6H621.9z M621.2,270.2c0-0.1,0-0.2,0-0.3c-0.1-0.4-0.5-0.7-1-0.7c-0.7,0-1.2,0.6-1.2,1.5
				c0,0.8,0.4,1.4,1.1,1.4c0.4,0,0.8-0.3,1-0.7c0-0.1,0.1-0.3,0.1-0.4V270.2z"/>
			<path d="M626.8,270.5c0,1.4-1,2.1-1.9,2.1c-1,0-1.9-0.8-1.9-2c0-1.3,0.8-2.1,1.9-2.1C626,268.5,626.8,269.3,626.8,270.5z
				 M623.7,270.6c0,0.8,0.5,1.5,1.2,1.5c0.7,0,1.2-0.6,1.2-1.5c0-0.7-0.3-1.5-1.2-1.5C624.1,269.1,623.7,269.8,623.7,270.6z"/>
			<path d="M627.9,269.7c0-0.4,0-0.7,0-1h0.6l0,0.6h0c0.2-0.4,0.6-0.7,1.3-0.7c0.5,0,1.4,0.3,1.4,1.6v2.3h-0.7v-2.2
				c0-0.6-0.2-1.1-0.9-1.1c-0.5,0-0.8,0.3-0.9,0.7c0,0.1,0,0.2,0,0.3v2.3h-0.7V269.7z"/>
			<path d="M634.4,267.2c0.3-0.1,0.8-0.1,1.3-0.1c0.7,0,1.1,0.1,1.5,0.4c0.3,0.2,0.4,0.5,0.4,1c0,0.5-0.3,1-0.9,1.2v0
				c0.5,0.1,1.1,0.6,1.1,1.4c0,0.5-0.2,0.8-0.5,1.1c-0.4,0.3-1,0.5-1.9,0.5c-0.5,0-0.8,0-1.1-0.1V267.2z M635.1,269.4h0.6
				c0.7,0,1.2-0.4,1.2-0.9c0-0.6-0.5-0.9-1.2-0.9c-0.3,0-0.5,0-0.6,0V269.4z M635.1,272c0.1,0,0.3,0,0.6,0c0.7,0,1.4-0.3,1.4-1
				c0-0.7-0.6-1-1.4-1h-0.6V272z"/>
			<path d="M641.1,272.5L641,272h0c-0.2,0.3-0.6,0.6-1.2,0.6c-0.8,0-1.2-0.6-1.2-1.1c0-0.9,0.8-1.4,2.3-1.4V270
				c0-0.3-0.1-0.9-0.9-0.9c-0.4,0-0.7,0.1-1,0.3l-0.2-0.5c0.3-0.2,0.8-0.3,1.3-0.3c1.2,0,1.5,0.8,1.5,1.6v1.4c0,0.3,0,0.7,0.1,0.9
				H641.1z M641,270.5c-0.8,0-1.6,0.1-1.6,0.9c0,0.5,0.3,0.7,0.7,0.7c0.5,0,0.8-0.3,0.9-0.6c0-0.1,0-0.2,0-0.2V270.5z"/>
			<path d="M643,269.8c0-0.5,0-0.8,0-1.2h0.6l0,0.8h0c0.2-0.5,0.6-0.8,1.1-0.8c0.1,0,0.1,0,0.2,0v0.7c-0.1,0-0.1,0-0.2,0
				c-0.5,0-0.8,0.4-0.9,0.9c0,0.1,0,0.2,0,0.3v2.1H643V269.8z"/>
			<path d="M645.8,272.5c0-0.3,0-0.7,0-1v-4.7h0.7v2.4h0c0.2-0.4,0.7-0.7,1.3-0.7c1,0,1.6,0.8,1.6,2c0,1.4-0.9,2.1-1.7,2.1
				c-0.6,0-1-0.2-1.3-0.7h0l0,0.6H645.8z M646.5,270.9c0,0.1,0,0.2,0,0.3c0.1,0.5,0.5,0.8,1.1,0.8c0.7,0,1.2-0.6,1.2-1.5
				c0-0.8-0.4-1.4-1.2-1.4c-0.5,0-0.9,0.3-1.1,0.9c0,0.1,0,0.2,0,0.3V270.9z"/>
			<path d="M653.8,271.4c0,0.4,0,0.8,0,1.1h-0.6l0-0.6h0c-0.2,0.3-0.6,0.7-1.3,0.7c-0.6,0-1.3-0.3-1.3-1.7v-2.3h0.7v2.1
				c0,0.7,0.2,1.2,0.9,1.2c0.5,0,0.8-0.3,0.9-0.6c0-0.1,0.1-0.2,0.1-0.4v-2.4h0.7V271.4z"/>
			<path d="M658.6,266.8v4.7c0,0.3,0,0.7,0,1H658l0-0.7h0c-0.2,0.4-0.7,0.8-1.3,0.8c-0.9,0-1.7-0.8-1.7-2c0-1.3,0.8-2.1,1.7-2.1
				c0.6,0,1,0.3,1.2,0.6h0v-2.3H658.6z M657.8,270.2c0-0.1,0-0.2,0-0.3c-0.1-0.4-0.5-0.8-1-0.8c-0.7,0-1.2,0.6-1.2,1.5
				c0,0.8,0.4,1.4,1.1,1.4c0.5,0,0.9-0.3,1-0.8c0-0.1,0-0.2,0-0.3V270.2z"/>
			<path d="M663.4,270.5c0,1.4-1,2.1-1.9,2.1c-1,0-1.9-0.8-1.9-2c0-1.3,0.8-2.1,1.9-2.1C662.7,268.5,663.4,269.3,663.4,270.5z
				 M660.4,270.6c0,0.8,0.5,1.5,1.2,1.5c0.7,0,1.2-0.6,1.2-1.5c0-0.7-0.3-1.5-1.2-1.5C660.7,269.1,660.4,269.8,660.4,270.6z"/>
		</g>
	</g>
	<g class="st1">
		<g>
			<path d="M678.5,269.7c0-0.6-0.1-1.2-0.1-1.7h0c-0.1,0.5-0.3,1-0.5,1.5l-0.7,2h-0.4l-0.7-1.9c-0.2-0.6-0.4-1.1-0.5-1.6h0
				c0,0.5,0,1.2-0.1,1.8l-0.1,1.7H675l0.3-4h0.7l0.7,2c0.2,0.5,0.3,0.9,0.4,1.4h0c0.1-0.4,0.2-0.9,0.4-1.4l0.7-2h0.7l0.3,4h-0.5
				L678.5,269.7z"/>
			<path d="M682.7,270c0,1.1-0.7,1.5-1.4,1.5c-0.8,0-1.4-0.6-1.4-1.5c0-1,0.6-1.5,1.4-1.5C682.2,268.5,682.7,269.1,682.7,270z
				 M680.4,270.1c0,0.6,0.4,1.1,0.9,1.1c0.5,0,0.9-0.5,0.9-1.1c0-0.5-0.2-1.1-0.9-1.1C680.7,268.9,680.4,269.5,680.4,270.1z"/>
			<path d="M683.6,269.4c0-0.3,0-0.5,0-0.8h0.5l0,0.5h0c0.1-0.3,0.5-0.5,1-0.5c0.4,0,1,0.2,1,1.2v1.7h-0.5v-1.7
				c0-0.5-0.2-0.9-0.7-0.9c-0.3,0-0.6,0.2-0.7,0.5c0,0.1,0,0.2,0,0.2v1.7h-0.5V269.4z"/>
			<path d="M687.6,267.8c0,0.2-0.1,0.3-0.3,0.3c-0.2,0-0.3-0.1-0.3-0.3c0-0.2,0.1-0.3,0.3-0.3C687.5,267.5,687.6,267.6,687.6,267.8z
				 M687,271.5v-2.9h0.5v2.9H687z"/>
			<path d="M689.2,267.8v0.8h0.8v0.4h-0.8v1.6c0,0.4,0.1,0.6,0.4,0.6c0.1,0,0.2,0,0.3,0l0,0.4c-0.1,0-0.3,0.1-0.5,0.1
				c-0.2,0-0.4-0.1-0.6-0.2c-0.1-0.2-0.2-0.4-0.2-0.8V269h-0.5v-0.4h0.5v-0.7L689.2,267.8z"/>
			<path d="M693.3,270c0,1.1-0.7,1.5-1.4,1.5c-0.8,0-1.4-0.6-1.4-1.5c0-1,0.6-1.5,1.4-1.5C692.8,268.5,693.3,269.1,693.3,270z
				 M691,270.1c0,0.6,0.4,1.1,0.9,1.1c0.5,0,0.9-0.5,0.9-1.1c0-0.5-0.2-1.1-0.9-1.1C691.3,268.9,691,269.5,691,270.1z"/>
			<path d="M694.1,269.5c0-0.3,0-0.6,0-0.9h0.5l0,0.6h0c0.1-0.4,0.5-0.6,0.8-0.6c0.1,0,0.1,0,0.2,0v0.5c-0.1,0-0.1,0-0.2,0
				c-0.4,0-0.6,0.3-0.7,0.7c0,0.1,0,0.2,0,0.2v1.5h-0.5V269.5z"/>
		</g>
	</g>
	<g class="st1">
		<g>
			<path d="M662.4,179.7c-0.3,0.1-0.8,0.3-1.4,0.3c-1.5,0-2.7-1-2.7-2.7c0-1.7,1.1-2.8,2.8-2.8c0.7,0,1.1,0.1,1.3,0.2l-0.2,0.6
				c-0.3-0.1-0.6-0.2-1.1-0.2c-1.3,0-2.1,0.8-2.1,2.2c0,1.3,0.8,2.2,2.1,2.2c0.4,0,0.9-0.1,1.1-0.2L662.4,179.7z"/>
			<path d="M665.5,179.8l-0.1-0.5h0c-0.2,0.3-0.6,0.6-1.2,0.6c-0.8,0-1.2-0.6-1.2-1.1c0-0.9,0.8-1.4,2.3-1.4v-0.1
				c0-0.3-0.1-0.9-0.9-0.9c-0.4,0-0.7,0.1-1,0.3l-0.2-0.5c0.3-0.2,0.8-0.3,1.3-0.3c1.2,0,1.5,0.8,1.5,1.6v1.4c0,0.3,0,0.7,0.1,0.9
				H665.5z M665.4,177.9c-0.8,0-1.6,0.1-1.6,0.9c0,0.5,0.3,0.7,0.7,0.7c0.5,0,0.8-0.3,0.9-0.6c0-0.1,0-0.2,0-0.2V177.9z"/>
			<path d="M667.4,177c0-0.4,0-0.7,0-1h0.6l0,0.6h0c0.2-0.4,0.6-0.7,1.2-0.7c0.5,0,0.9,0.3,1.1,0.8h0c0.1-0.2,0.3-0.4,0.4-0.5
				c0.2-0.2,0.5-0.3,0.9-0.3c0.5,0,1.3,0.3,1.3,1.7v2.3h-0.7v-2.2c0-0.7-0.3-1.2-0.8-1.2c-0.4,0-0.7,0.3-0.8,0.6
				c0,0.1-0.1,0.2-0.1,0.4v2.4h-0.7v-2.3c0-0.6-0.3-1.1-0.8-1.1c-0.4,0-0.8,0.4-0.9,0.7c0,0.1-0.1,0.2-0.1,0.3v2.3h-0.7V177z"/>
			<path d="M676.4,179.8l-0.1-0.5h0c-0.2,0.3-0.6,0.6-1.2,0.6c-0.8,0-1.2-0.6-1.2-1.1c0-0.9,0.8-1.4,2.3-1.4v-0.1
				c0-0.3-0.1-0.9-0.9-0.9c-0.4,0-0.7,0.1-1,0.3l-0.2-0.5c0.3-0.2,0.8-0.3,1.3-0.3c1.2,0,1.5,0.8,1.5,1.6v1.4c0,0.3,0,0.7,0.1,0.9
				H676.4z M676.3,177.9c-0.8,0-1.6,0.1-1.6,0.9c0,0.5,0.3,0.7,0.7,0.7c0.5,0,0.8-0.3,0.9-0.6c0-0.1,0-0.2,0-0.2V177.9z"/>
			<path d="M678.4,174.2h0.7v5.7h-0.7V174.2z"/>
			<path d="M680.8,178c0,1,0.6,1.3,1.3,1.3c0.5,0,0.8-0.1,1.1-0.2l0.1,0.5c-0.2,0.1-0.7,0.2-1.3,0.2c-1.2,0-1.9-0.8-1.9-2
				s0.7-2.1,1.8-2.1c1.3,0,1.6,1.1,1.6,1.8c0,0.1,0,0.3,0,0.3H680.8z M682.9,177.5c0-0.4-0.2-1.1-1-1.1c-0.7,0-1,0.7-1.1,1.1H682.9z
				"/>
			<path d="M688.2,177.9c0,1.4-1,2.1-1.9,2.1c-1,0-1.9-0.8-1.9-2c0-1.3,0.8-2.1,1.9-2.1C687.4,175.9,688.2,176.7,688.2,177.9z
				 M685.1,177.9c0,0.8,0.5,1.5,1.2,1.5c0.7,0,1.2-0.6,1.2-1.5c0-0.7-0.3-1.5-1.2-1.5C685.4,176.4,685.1,177.2,685.1,177.9z
				 M687.3,174.3l-1,1.1h-0.5l0.7-1.1H687.3z"/>
			<path d="M689.2,177c0-0.4,0-0.7,0-1h0.6l0,0.6h0c0.2-0.4,0.6-0.7,1.3-0.7c0.5,0,1.4,0.3,1.4,1.6v2.3h-0.7v-2.2
				c0-0.6-0.2-1.1-0.9-1.1c-0.5,0-0.8,0.3-0.9,0.7c0,0.1,0,0.2,0,0.3v2.3h-0.7V177z"/>
		</g>
	</g>
	<g class="st1">
		<g>
			<path d="M268.6,234.2c-0.4,0.1-1.2,0.4-2.1,0.4c-1,0-1.9-0.3-2.5-0.9c-0.6-0.6-0.9-1.5-0.9-2.5c0-2,1.4-3.5,3.6-3.5
				c0.8,0,1.4,0.2,1.7,0.3l-0.2,0.7c-0.4-0.2-0.8-0.3-1.5-0.3c-1.6,0-2.7,1-2.7,2.7c0,1.7,1,2.7,2.6,2.7c0.6,0,1-0.1,1.2-0.2v-2
				h-1.4V231h2.2V234.2z"/>
			<path d="M272.9,234.5l-0.1-0.6h0c-0.3,0.4-0.8,0.7-1.5,0.7c-1,0-1.5-0.7-1.5-1.4c0-1.2,1-1.8,2.9-1.8v-0.1c0-0.4-0.1-1.1-1.1-1.1
				c-0.4,0-0.9,0.1-1.3,0.4l-0.2-0.6c0.4-0.3,1-0.4,1.6-0.4c1.5,0,1.8,1,1.8,2v1.8c0,0.4,0,0.8,0.1,1.2H272.9z M272.7,232
				c-1,0-2,0.1-2,1.1c0,0.6,0.4,0.8,0.8,0.8c0.6,0,1-0.4,1.2-0.8c0-0.1,0.1-0.2,0.1-0.3V232z"/>
			<path d="M276.3,228.3v1.4h1.3v0.7h-1.3v2.6c0,0.6,0.2,0.9,0.7,0.9c0.2,0,0.4,0,0.5-0.1l0,0.7c-0.2,0.1-0.4,0.1-0.8,0.1
				c-0.4,0-0.7-0.1-0.9-0.4c-0.2-0.3-0.3-0.7-0.3-1.3v-2.6h-0.8v-0.7h0.8v-1.2L276.3,228.3z"/>
			<path d="M283.1,232c0,1.8-1.2,2.6-2.4,2.6c-1.3,0-2.3-1-2.3-2.5c0-1.6,1.1-2.6,2.4-2.6C282.2,229.6,283.1,230.6,283.1,232z
				 M279.3,232.1c0,1.1,0.6,1.9,1.5,1.9c0.8,0,1.5-0.8,1.5-1.9c0-0.8-0.4-1.9-1.4-1.9C279.7,230.2,279.3,231.2,279.3,232.1z"/>
			<path d="M284.3,233.6c0.3,0.2,0.7,0.3,1.2,0.3c0.6,0,0.9-0.3,0.9-0.7c0-0.4-0.2-0.7-0.9-0.9c-0.9-0.3-1.3-0.8-1.3-1.4
				c0-0.8,0.6-1.4,1.7-1.4c0.5,0,0.9,0.1,1.2,0.3l-0.2,0.6c-0.2-0.1-0.5-0.3-1-0.3c-0.5,0-0.8,0.3-0.8,0.7c0,0.4,0.3,0.6,0.9,0.8
				c0.8,0.3,1.3,0.7,1.3,1.5c0,0.8-0.7,1.4-1.8,1.4c-0.5,0-1-0.1-1.4-0.3L284.3,233.6z"/>
		</g>
	</g>
	<g class="st1">
		<g>
			<path d="M346.7,234.3c-0.3,0.2-1,0.3-1.8,0.3c-1.9,0-3.3-1.2-3.3-3.4c0-2.1,1.4-3.5,3.5-3.5c0.8,0,1.4,0.2,1.6,0.3l-0.2,0.7
				c-0.3-0.2-0.8-0.3-1.4-0.3c-1.6,0-2.6,1-2.6,2.8c0,1.6,0.9,2.7,2.6,2.7c0.5,0,1.1-0.1,1.4-0.3L346.7,234.3z"/>
			<path d="M352.3,232c0,1.8-1.2,2.6-2.4,2.6c-1.3,0-2.3-1-2.3-2.5c0-1.6,1.1-2.6,2.4-2.6C351.3,229.6,352.3,230.6,352.3,232z
				 M348.4,232.1c0,1.1,0.6,1.9,1.5,1.9c0.8,0,1.5-0.8,1.5-1.9c0-0.8-0.4-1.9-1.4-1.9C348.9,230.2,348.4,231.2,348.4,232.1z"/>
			<path d="M353.6,231c0-0.5,0-0.9,0-1.3h0.8l0,0.8h0c0.2-0.5,0.8-0.9,1.6-0.9c0.7,0,1.7,0.4,1.7,2.1v2.9h-0.9v-2.8
				c0-0.8-0.3-1.4-1.1-1.4c-0.6,0-1,0.4-1.2,0.9c0,0.1-0.1,0.3-0.1,0.4v2.9h-0.9V231z"/>
			<path d="M359.9,232.2c0,1.2,0.8,1.7,1.7,1.7c0.6,0,1-0.1,1.3-0.2l0.1,0.6c-0.3,0.1-0.8,0.3-1.6,0.3c-1.5,0-2.4-1-2.4-2.4
				c0-1.5,0.9-2.6,2.3-2.6c1.6,0,2,1.4,2,2.3c0,0.2,0,0.3,0,0.4H359.9z M362.5,231.6c0-0.6-0.2-1.4-1.2-1.4c-0.9,0-1.3,0.8-1.3,1.4
				H362.5z"/>
			<path d="M363.5,235.9c0.4,0,0.7-0.1,1-0.4c0.2-0.3,0.3-0.7,0.3-1.8v-4h0.9v4.4c0,0.9-0.1,1.5-0.6,2c-0.4,0.4-1,0.5-1.5,0.5
				L363.5,235.9z M365.8,228.3c0,0.3-0.2,0.5-0.5,0.5c-0.3,0-0.5-0.2-0.5-0.5c0-0.3,0.2-0.5,0.6-0.5
				C365.6,227.8,365.8,228,365.8,228.3z"/>
			<path d="M371.7,232c0,1.8-1.2,2.6-2.4,2.6c-1.3,0-2.3-1-2.3-2.5c0-1.6,1.1-2.6,2.4-2.6C370.8,229.6,371.7,230.6,371.7,232z
				 M367.9,232.1c0,1.1,0.6,1.9,1.5,1.9c0.8,0,1.5-0.8,1.5-1.9c0-0.8-0.4-1.9-1.4-1.9S367.9,231.2,367.9,232.1z"/>
			<path d="M373,233.6c0.3,0.2,0.7,0.3,1.2,0.3c0.6,0,0.9-0.3,0.9-0.7c0-0.4-0.2-0.7-0.9-0.9c-0.9-0.3-1.3-0.8-1.3-1.4
				c0-0.8,0.6-1.4,1.7-1.4c0.5,0,0.9,0.1,1.2,0.3l-0.2,0.6c-0.2-0.1-0.5-0.3-1-0.3c-0.5,0-0.8,0.3-0.8,0.7c0,0.4,0.3,0.6,0.9,0.8
				c0.8,0.3,1.3,0.7,1.3,1.5c0,0.8-0.7,1.4-1.8,1.4c-0.5,0-1-0.1-1.4-0.3L373,233.6z"/>
		</g>
	</g>
	<g class="st1">
		<g>
			<path d="M398,227.8c0.3-0.1,0.8-0.1,1.2-0.1c0.7,0,1.1,0.1,1.4,0.4c0.2,0.2,0.4,0.5,0.4,0.9c0,0.6-0.4,1-0.9,1.2v0
				c0.4,0.1,0.6,0.5,0.7,1c0.2,0.7,0.3,1.1,0.4,1.3h-0.6c-0.1-0.1-0.2-0.5-0.3-1.1c-0.1-0.7-0.4-0.9-0.9-0.9h-0.6v2H398V227.8z
				 M398.6,230h0.6c0.7,0,1.1-0.4,1.1-0.9c0-0.6-0.4-0.9-1.1-0.9c-0.3,0-0.5,0-0.6,0.1V230z"/>
			<path d="M403.9,232.5l0-0.4h0c-0.2,0.3-0.6,0.5-1,0.5c-0.7,0-1-0.5-1-1c0-0.8,0.7-1.3,2-1.3v-0.1c0-0.3-0.1-0.8-0.8-0.8
				c-0.3,0-0.6,0.1-0.9,0.3l-0.1-0.4c0.3-0.2,0.7-0.3,1.1-0.3c1,0,1.3,0.7,1.3,1.4v1.3c0,0.3,0,0.6,0.1,0.8H403.9z M403.8,230.8
				c-0.7,0-1.4,0.1-1.4,0.8c0,0.4,0.3,0.6,0.6,0.6c0.4,0,0.7-0.3,0.8-0.6c0-0.1,0-0.1,0-0.2V230.8z"/>
			<path d="M406.3,228.1v1h0.9v0.5h-0.9v1.8c0,0.4,0.1,0.7,0.5,0.7c0.2,0,0.3,0,0.4,0l0,0.5c-0.1,0-0.3,0.1-0.5,0.1
				c-0.3,0-0.5-0.1-0.7-0.3c-0.2-0.2-0.2-0.5-0.2-0.9v-1.8h-0.5v-0.5h0.5v-0.8L406.3,228.1z"/>
			<path d="M411.1,230.8c0,1.3-0.9,1.8-1.7,1.8c-0.9,0-1.6-0.7-1.6-1.7c0-1.1,0.7-1.8,1.7-1.8C410.4,229,411.1,229.7,411.1,230.8z
				 M408.4,230.8c0,0.7,0.4,1.3,1,1.3c0.6,0,1-0.6,1-1.3c0-0.6-0.3-1.3-1-1.3S408.4,230.2,408.4,230.8z"/>
			<path d="M412,230c0-0.4,0-0.6,0-0.9h0.5l0,0.6h0c0.2-0.3,0.6-0.6,1.1-0.6c0.5,0,1.2,0.3,1.2,1.4v2h-0.6v-2c0-0.5-0.2-1-0.8-1
				c-0.4,0-0.7,0.3-0.8,0.6c0,0.1,0,0.2,0,0.3v2H412V230z"/>
			<path d="M416.4,230.9c0,0.8,0.5,1.2,1.2,1.2c0.4,0,0.7-0.1,0.9-0.2l0.1,0.4c-0.2,0.1-0.6,0.2-1.1,0.2c-1,0-1.7-0.7-1.7-1.7
				s0.6-1.8,1.6-1.8c1.1,0,1.4,1,1.4,1.6c0,0.1,0,0.2,0,0.3H416.4z M418.2,230.5c0-0.4-0.2-1-0.9-1c-0.6,0-0.9,0.6-0.9,1H418.2z"/>
			<path d="M419.7,231.9c0.2,0.1,0.5,0.2,0.8,0.2c0.4,0,0.7-0.2,0.7-0.5c0-0.3-0.2-0.5-0.6-0.6c-0.6-0.2-0.9-0.6-0.9-1
				c0-0.5,0.4-1,1.2-1c0.3,0,0.6,0.1,0.8,0.2l-0.2,0.4c-0.1-0.1-0.4-0.2-0.7-0.2c-0.4,0-0.6,0.2-0.6,0.5c0,0.3,0.2,0.4,0.6,0.6
				c0.6,0.2,0.9,0.5,0.9,1c0,0.6-0.5,1-1.3,1c-0.4,0-0.7-0.1-1-0.2L419.7,231.9z"/>
		</g>
	</g>
	<g class="st1">
		<g>
			<path d="M341.8,272.7c0.4-0.1,0.9-0.1,1.3-0.1c0.7,0,1.2,0.1,1.6,0.4c0.3,0.2,0.4,0.6,0.4,1c0,0.7-0.4,1.2-1,1.4v0
				c0.4,0.1,0.7,0.5,0.8,1.1c0.2,0.8,0.3,1.3,0.4,1.5h-0.7c-0.1-0.2-0.2-0.6-0.4-1.3c-0.2-0.7-0.4-1-1.1-1h-0.7v2.3h-0.7V272.7z
				 M342.5,275.1h0.7c0.7,0,1.2-0.4,1.2-1c0-0.7-0.5-1-1.2-1c-0.3,0-0.6,0-0.7,0.1V275.1z"/>
			<path d="M348.5,278l-0.1-0.5h0c-0.2,0.3-0.6,0.6-1.2,0.6c-0.8,0-1.2-0.6-1.2-1.1c0-0.9,0.8-1.4,2.3-1.4v-0.1
				c0-0.3-0.1-0.9-0.9-0.9c-0.4,0-0.7,0.1-1,0.3l-0.2-0.5c0.3-0.2,0.8-0.3,1.3-0.3c1.2,0,1.5,0.8,1.5,1.6v1.4c0,0.3,0,0.7,0.1,0.9
				H348.5z M348.4,276c-0.8,0-1.6,0.1-1.6,0.9c0,0.5,0.3,0.7,0.7,0.7c0.5,0,0.8-0.3,0.9-0.6c0-0.1,0-0.2,0-0.2V276z"/>
			<path d="M351.2,273v1.1h1v0.5h-1v2.1c0,0.5,0.1,0.8,0.5,0.8c0.2,0,0.3,0,0.4,0l0,0.5c-0.1,0.1-0.4,0.1-0.6,0.1
				c-0.3,0-0.6-0.1-0.8-0.3c-0.2-0.2-0.3-0.6-0.3-1v-2.1h-0.6v-0.5h0.6v-0.9L351.2,273z"/>
			<path d="M355.4,278l-0.1-0.5h0c-0.2,0.3-0.6,0.6-1.2,0.6c-0.8,0-1.2-0.6-1.2-1.1c0-0.9,0.8-1.4,2.3-1.4v-0.1
				c0-0.3-0.1-0.9-0.9-0.9c-0.4,0-0.7,0.1-1,0.3l-0.2-0.5c0.3-0.2,0.8-0.3,1.3-0.3c1.2,0,1.5,0.8,1.5,1.6v1.4c0,0.3,0,0.7,0.1,0.9
				H355.4z M355.3,276c-0.8,0-1.6,0.1-1.6,0.9c0,0.5,0.3,0.7,0.7,0.7c0.5,0,0.8-0.3,0.9-0.6c0-0.1,0-0.2,0-0.2V276z"/>
			<path d="M357.2,277.3c0.2,0.1,0.6,0.3,0.9,0.3c0.5,0,0.8-0.3,0.8-0.6c0-0.3-0.2-0.5-0.7-0.7c-0.7-0.2-1-0.6-1-1.1
				c0-0.6,0.5-1.1,1.3-1.1c0.4,0,0.7,0.1,1,0.2l-0.2,0.5c-0.2-0.1-0.4-0.2-0.8-0.2c-0.4,0-0.6,0.2-0.6,0.5c0,0.3,0.2,0.5,0.7,0.7
				c0.7,0.3,1,0.6,1,1.2c0,0.7-0.5,1.2-1.4,1.2c-0.4,0-0.8-0.1-1.1-0.3L357.2,277.3z"/>
		</g>
	</g>
	<g class="st1">
		<g>
			<path d="M374.5,274.9c-0.2,0.1-0.5,0.2-1,0.2c-1,0-1.8-0.7-1.8-1.9c0-1.2,0.8-1.9,1.9-1.9c0.5,0,0.8,0.1,0.9,0.2l-0.1,0.4
				c-0.2-0.1-0.4-0.2-0.7-0.2c-0.9,0-1.4,0.6-1.4,1.5c0,0.9,0.5,1.5,1.4,1.5c0.3,0,0.6-0.1,0.8-0.2L374.5,274.9z"/>
			<path d="M377.6,273.6c0,1-0.7,1.4-1.3,1.4c-0.7,0-1.3-0.5-1.3-1.4c0-0.9,0.6-1.4,1.3-1.4C377.1,272.3,377.6,272.8,377.6,273.6z
				 M375.5,273.7c0,0.6,0.3,1,0.8,1c0.5,0,0.8-0.4,0.8-1c0-0.5-0.2-1-0.8-1S375.5,273.2,375.5,273.7z"/>
			<path d="M378.3,273.1c0-0.3,0-0.5,0-0.7h0.4l0,0.4h0c0.1-0.3,0.4-0.5,0.9-0.5c0.4,0,0.9,0.2,0.9,1.1v1.6h-0.5v-1.5
				c0-0.4-0.2-0.8-0.6-0.8c-0.3,0-0.6,0.2-0.6,0.5c0,0.1,0,0.1,0,0.2v1.6h-0.5V273.1z"/>
			<path d="M381.8,273.8c0,0.7,0.4,0.9,0.9,0.9c0.3,0,0.6-0.1,0.7-0.1l0.1,0.3c-0.2,0.1-0.5,0.2-0.9,0.2c-0.8,0-1.3-0.5-1.3-1.3
				s0.5-1.4,1.2-1.4c0.9,0,1.1,0.8,1.1,1.3c0,0.1,0,0.2,0,0.2H381.8z M383.2,273.4c0-0.3-0.1-0.8-0.7-0.8c-0.5,0-0.7,0.5-0.7,0.8
				H383.2z"/>
			<path d="M383.8,275.8c0.2,0,0.4-0.1,0.5-0.2c0.1-0.2,0.2-0.4,0.2-1v-2.2h0.5v2.4c0,0.5-0.1,0.9-0.3,1.1c-0.2,0.2-0.6,0.3-0.8,0.3
				L383.8,275.8z M385,271.6c0,0.2-0.1,0.3-0.3,0.3c-0.2,0-0.3-0.1-0.3-0.3c0-0.2,0.1-0.3,0.3-0.3C384.9,271.3,385,271.4,385,271.6z
				"/>
			<path d="M386.4,271.6c0,0.2-0.1,0.3-0.3,0.3c-0.2,0-0.3-0.1-0.3-0.3c0-0.2,0.1-0.3,0.3-0.3C386.3,271.3,386.4,271.4,386.4,271.6z
				 M385.9,275v-2.7h0.5v2.7H385.9z"/>
			<path d="M387.3,271.1h0.5v3.9h-0.5V271.1z"/>
			<path d="M388.7,271.1h0.5v3.9h-0.5V271.1z"/>
			<path d="M392.6,273.6c0,1-0.7,1.4-1.3,1.4c-0.7,0-1.3-0.5-1.3-1.4c0-0.9,0.6-1.4,1.3-1.4C392.1,272.3,392.6,272.8,392.6,273.6z
				 M390.5,273.7c0,0.6,0.3,1,0.8,1c0.5,0,0.8-0.4,0.8-1c0-0.5-0.2-1-0.8-1S390.5,273.2,390.5,273.7z"/>
			<path d="M374.2,277.7v3.2c0,0.2,0,0.5,0,0.7h-0.4l0-0.5h0c-0.1,0.3-0.5,0.5-0.9,0.5c-0.6,0-1.1-0.5-1.1-1.4
				c0-0.9,0.5-1.4,1.2-1.4c0.4,0,0.7,0.2,0.8,0.4h0v-1.6H374.2z M373.7,280c0-0.1,0-0.1,0-0.2c-0.1-0.3-0.3-0.6-0.7-0.6
				c-0.5,0-0.8,0.4-0.8,1c0,0.5,0.3,1,0.8,1c0.3,0,0.6-0.2,0.7-0.6c0-0.1,0-0.1,0-0.2V280z"/>
			<path d="M375.4,280.4c0,0.7,0.4,0.9,0.9,0.9c0.3,0,0.6-0.1,0.7-0.1l0.1,0.3c-0.2,0.1-0.5,0.2-0.9,0.2c-0.8,0-1.3-0.5-1.3-1.3
				c0-0.8,0.5-1.4,1.2-1.4c0.9,0,1.1,0.8,1.1,1.3c0,0.1,0,0.2,0,0.2H375.4z M376.8,280c0-0.3-0.1-0.8-0.7-0.8
				c-0.5,0-0.7,0.5-0.7,0.8H376.8z"/>
			<path d="M379.9,278.2c0,0.2-0.1,0.3-0.3,0.3c-0.2,0-0.3-0.1-0.3-0.3c0-0.2,0.1-0.3,0.3-0.3C379.8,277.9,379.9,278,379.9,278.2z
				 M379.3,281.6v-2.7h0.5v2.7H379.3z"/>
			<path d="M380.8,279.7c0-0.3,0-0.5,0-0.7h0.4l0,0.4h0c0.1-0.3,0.4-0.5,0.9-0.5c0.4,0,0.9,0.2,0.9,1.1v1.6h-0.5v-1.5
				c0-0.4-0.2-0.8-0.6-0.8c-0.3,0-0.6,0.2-0.6,0.5c0,0.1,0,0.1,0,0.2v1.6h-0.5V279.7z"/>
			<path d="M386.2,277.7v3.2c0,0.2,0,0.5,0,0.7h-0.4l0-0.5h0c-0.1,0.3-0.5,0.5-0.9,0.5c-0.6,0-1.1-0.5-1.1-1.4
				c0-0.9,0.5-1.4,1.2-1.4c0.4,0,0.7,0.2,0.8,0.4h0v-1.6H386.2z M385.8,280c0-0.1,0-0.1,0-0.2c-0.1-0.3-0.3-0.6-0.7-0.6
				c-0.5,0-0.8,0.4-0.8,1c0,0.5,0.3,1,0.8,1c0.3,0,0.6-0.2,0.7-0.6c0-0.1,0-0.1,0-0.2V280z"/>
			<path d="M387.7,278.2c0,0.2-0.1,0.3-0.3,0.3c-0.2,0-0.3-0.1-0.3-0.3c0-0.2,0.1-0.3,0.3-0.3C387.6,277.9,387.7,278,387.7,278.2z
				 M387.2,281.6v-2.7h0.5v2.7H387.2z"/>
			<path d="M390.1,281.6l0-0.3h0c-0.1,0.2-0.4,0.4-0.8,0.4c-0.5,0-0.8-0.4-0.8-0.8c0-0.6,0.6-1,1.6-1v-0.1c0-0.2-0.1-0.6-0.6-0.6
				c-0.2,0-0.5,0.1-0.7,0.2l-0.1-0.3c0.2-0.1,0.5-0.2,0.9-0.2c0.8,0,1,0.6,1,1.1v1c0,0.2,0,0.5,0,0.6H390.1z M390,280.2
				c-0.5,0-1.1,0.1-1.1,0.6c0,0.3,0.2,0.5,0.5,0.5c0.3,0,0.6-0.2,0.6-0.4c0,0,0-0.1,0-0.2V280.2z"/>
			<path d="M391.3,281.1c0.1,0.1,0.4,0.2,0.6,0.2c0.4,0,0.5-0.2,0.5-0.4c0-0.2-0.1-0.4-0.5-0.5c-0.5-0.2-0.7-0.4-0.7-0.8
				c0-0.4,0.3-0.8,0.9-0.8c0.3,0,0.5,0.1,0.7,0.2l-0.1,0.4c-0.1-0.1-0.3-0.2-0.5-0.2c-0.3,0-0.4,0.2-0.4,0.4c0,0.2,0.2,0.3,0.5,0.5
				c0.5,0.2,0.7,0.4,0.7,0.8c0,0.5-0.4,0.8-1,0.8c-0.3,0-0.6-0.1-0.7-0.2L391.3,281.1z"/>
		</g>
	</g>
	<g class="st1">
		<g>
			<path d="M403.3,270.6v1.4h1.6v-1.4h0.4v3.4h-0.4v-1.6h-1.6v1.6h-0.4v-3.4H403.3z"/>
			<path d="M407.6,274l0-0.3h0c-0.1,0.2-0.4,0.4-0.7,0.4c-0.5,0-0.7-0.3-0.7-0.7c0-0.6,0.5-0.9,1.5-0.9v0c0-0.2-0.1-0.6-0.6-0.6
				c-0.2,0-0.5,0.1-0.6,0.2l-0.1-0.3c0.2-0.1,0.5-0.2,0.8-0.2c0.7,0,0.9,0.5,0.9,1v0.9c0,0.2,0,0.4,0,0.6H407.6z M407.5,272.8
				c-0.5,0-1,0.1-1,0.5c0,0.3,0.2,0.4,0.4,0.4c0.3,0,0.5-0.2,0.6-0.4c0,0,0-0.1,0-0.1V272.8z M407.7,270.5l-0.6,0.7h-0.3l0.4-0.7
				H407.7z"/>
			<path d="M408.8,272.2c0-0.2,0-0.5,0-0.7h0.4l0,0.4h0c0.1-0.2,0.4-0.4,0.8-0.4c0.3,0,0.6,0.2,0.7,0.5h0c0.1-0.1,0.2-0.2,0.3-0.3
				c0.1-0.1,0.3-0.2,0.5-0.2c0.3,0,0.8,0.2,0.8,1.1v1.4h-0.4v-1.4c0-0.5-0.2-0.7-0.5-0.7c-0.2,0-0.4,0.2-0.5,0.4c0,0.1,0,0.1,0,0.2
				v1.5h-0.4v-1.5c0-0.4-0.2-0.7-0.5-0.7c-0.3,0-0.5,0.2-0.5,0.4c0,0.1,0,0.1,0,0.2v1.5h-0.4V272.2z"/>
			<path d="M413,273.5c0.1,0.1,0.4,0.2,0.6,0.2c0.3,0,0.5-0.2,0.5-0.4c0-0.2-0.1-0.3-0.5-0.4c-0.4-0.2-0.6-0.4-0.6-0.7
				c0-0.4,0.3-0.7,0.8-0.7c0.2,0,0.5,0.1,0.6,0.2l-0.1,0.3c-0.1-0.1-0.3-0.1-0.5-0.1c-0.3,0-0.4,0.1-0.4,0.3c0,0.2,0.1,0.3,0.5,0.4
				c0.4,0.2,0.6,0.4,0.6,0.7c0,0.4-0.3,0.7-0.9,0.7c-0.3,0-0.5-0.1-0.7-0.2L413,273.5z"/>
			<path d="M415.7,270.9v0.7h0.6v0.3h-0.6v1.3c0,0.3,0.1,0.5,0.3,0.5c0.1,0,0.2,0,0.3,0l0,0.3c-0.1,0-0.2,0.1-0.4,0.1
				c-0.2,0-0.4-0.1-0.5-0.2c-0.1-0.1-0.2-0.3-0.2-0.6v-1.3h-0.4v-0.3h0.4V271L415.7,270.9z"/>
			<path d="M417.2,272.9c0,0.6,0.4,0.8,0.8,0.8c0.3,0,0.5-0.1,0.7-0.1l0.1,0.3c-0.2,0.1-0.4,0.1-0.8,0.1c-0.7,0-1.2-0.5-1.2-1.2
				s0.4-1.3,1.1-1.3c0.8,0,1,0.7,1,1.1c0,0.1,0,0.2,0,0.2H417.2z M418.5,272.6c0-0.3-0.1-0.7-0.6-0.7c-0.4,0-0.6,0.4-0.7,0.7H418.5z
				"/>
			<path d="M419.6,272.3c0-0.3,0-0.5,0-0.8h0.4l0,0.5h0c0.1-0.3,0.4-0.5,0.7-0.5c0,0,0.1,0,0.1,0v0.4c0,0-0.1,0-0.2,0
				c-0.3,0-0.5,0.2-0.6,0.6c0,0.1,0,0.1,0,0.2v1.3h-0.4V272.3z"/>
			<path d="M421.3,273.5c0.1,0.1,0.4,0.2,0.6,0.2c0.3,0,0.5-0.2,0.5-0.4c0-0.2-0.1-0.3-0.5-0.4c-0.4-0.2-0.6-0.4-0.6-0.7
				c0-0.4,0.3-0.7,0.8-0.7c0.2,0,0.5,0.1,0.6,0.2l-0.1,0.3c-0.1-0.1-0.3-0.1-0.5-0.1c-0.3,0-0.4,0.1-0.4,0.3c0,0.2,0.1,0.3,0.5,0.4
				c0.4,0.2,0.6,0.4,0.6,0.7c0,0.4-0.3,0.7-0.9,0.7c-0.3,0-0.5-0.1-0.7-0.2L421.3,273.5z"/>
		</g>
	</g>
	<g class="st1">
		<g>
			<path d="M172.5,153.3c-0.3,0.2-1,0.3-1.8,0.3c-1.9,0-3.3-1.2-3.3-3.4c0-2.1,1.4-3.5,3.5-3.5c0.8,0,1.4,0.2,1.6,0.3l-0.2,0.7
				c-0.3-0.2-0.8-0.3-1.4-0.3c-1.6,0-2.6,1-2.6,2.8c0,1.6,0.9,2.7,2.6,2.7c0.5,0,1.1-0.1,1.4-0.3L172.5,153.3z"/>
			<path d="M178,151c0,1.8-1.2,2.6-2.4,2.6c-1.3,0-2.3-1-2.3-2.5c0-1.6,1.1-2.6,2.4-2.6C177.1,148.6,178,149.6,178,151z
				 M174.2,151.1c0,1.1,0.6,1.9,1.5,1.9c0.8,0,1.5-0.8,1.5-1.9c0-0.8-0.4-1.9-1.4-1.9C174.7,149.2,174.2,150.2,174.2,151.1z"/>
			<path d="M182.9,153.3c-0.2,0.1-0.7,0.3-1.4,0.3c-1.5,0-2.4-1-2.4-2.5c0-1.5,1-2.6,2.6-2.6c0.5,0,1,0.1,1.2,0.2l-0.2,0.7
				c-0.2-0.1-0.5-0.2-1-0.2c-1.1,0-1.7,0.8-1.7,1.8c0,1.1,0.7,1.8,1.7,1.8c0.5,0,0.8-0.1,1.1-0.2L182.9,153.3z"/>
			<path d="M185,150.9L185,150.9c0.1-0.2,0.3-0.4,0.4-0.5l1.4-1.7h1.1l-1.9,2l2.1,2.8h-1.1l-1.7-2.3l-0.4,0.5v1.8h-0.9v-7.1h0.9
				V150.9z"/>
			<path d="M191.9,153.5l-0.1-0.6h0c-0.3,0.4-0.8,0.7-1.5,0.7c-1,0-1.5-0.7-1.5-1.4c0-1.2,1-1.8,2.9-1.8v-0.1c0-0.4-0.1-1.1-1.1-1.1
				c-0.4,0-0.9,0.1-1.3,0.4l-0.2-0.6c0.4-0.3,1-0.4,1.6-0.4c1.5,0,1.8,1,1.8,2v1.8c0,0.4,0,0.8,0.1,1.2H191.9z M191.8,151
				c-1,0-2,0.1-2,1.1c0,0.6,0.4,0.8,0.8,0.8c0.6,0,1-0.4,1.2-0.8c0-0.1,0.1-0.2,0.1-0.3V151z"/>
			<path d="M195.3,147.3v1.4h1.3v0.7h-1.3v2.6c0,0.6,0.2,0.9,0.7,0.9c0.2,0,0.4,0,0.5-0.1l0,0.7c-0.2,0.1-0.4,0.1-0.8,0.1
				c-0.4,0-0.7-0.1-0.9-0.4c-0.2-0.3-0.3-0.7-0.3-1.3v-2.6h-0.8v-0.7h0.8v-1.2L195.3,147.3z"/>
			<path d="M198.8,147.3c0,0.3-0.2,0.5-0.6,0.5c-0.3,0-0.5-0.2-0.5-0.5c0-0.3,0.2-0.5,0.5-0.5C198.6,146.8,198.8,147,198.8,147.3z
				 M197.8,153.5v-4.8h0.9v4.8H197.8z"/>
			<path d="M200.9,151.2c0,1.2,0.8,1.7,1.7,1.7c0.6,0,1-0.1,1.3-0.2l0.1,0.6c-0.3,0.1-0.8,0.3-1.6,0.3c-1.5,0-2.4-1-2.4-2.4
				c0-1.5,0.9-2.6,2.3-2.6c1.6,0,2,1.4,2,2.3c0,0.2,0,0.3,0,0.4H200.9z M203.5,150.6c0-0.6-0.2-1.4-1.2-1.4c-0.9,0-1.3,0.8-1.3,1.4
				H203.5z"/>
			<path d="M205.7,146.4h0.9v7.1h-0.9V146.4z"/>
			<path d="M208.2,152.6c0.3,0.2,0.7,0.3,1.2,0.3c0.6,0,0.9-0.3,0.9-0.7c0-0.4-0.2-0.6-0.9-0.9c-0.9-0.3-1.3-0.8-1.3-1.4
				c0-0.8,0.6-1.4,1.7-1.4c0.5,0,0.9,0.1,1.2,0.3l-0.2,0.6c-0.2-0.1-0.5-0.3-1-0.3c-0.5,0-0.8,0.3-0.8,0.7c0,0.4,0.3,0.6,0.9,0.8
				c0.8,0.3,1.3,0.7,1.3,1.5c0,0.8-0.7,1.4-1.8,1.4c-0.5,0-1-0.1-1.4-0.3L208.2,152.6z"/>
		</g>
	</g>
	<g class="st1">
		<g>
			<path d="M167.8,231.8c0.4-0.1,1-0.1,1.7-0.1c0.9,0,1.5,0.2,1.9,0.6c0.4,0.3,0.6,0.8,0.6,1.4c0,0.6-0.2,1.1-0.5,1.4
				c-0.5,0.5-1.2,0.7-2.1,0.7c-0.3,0-0.5,0-0.7-0.1v2.7h-0.9V231.8z M168.6,235.1c0.2,0,0.4,0.1,0.7,0.1c1,0,1.7-0.5,1.7-1.4
				c0-0.9-0.6-1.3-1.6-1.3c-0.4,0-0.7,0-0.8,0.1V235.1z"/>
			<path d="M175.7,238.5l-0.1-0.6h0c-0.3,0.4-0.8,0.7-1.5,0.7c-1,0-1.5-0.7-1.5-1.4c0-1.2,1-1.8,2.9-1.8v-0.1c0-0.4-0.1-1.1-1.1-1.1
				c-0.4,0-0.9,0.1-1.3,0.4L173,234c0.4-0.3,1-0.4,1.6-0.4c1.5,0,1.8,1,1.8,2v1.8c0,0.4,0,0.8,0.1,1.2H175.7z M175.6,236
				c-1,0-2,0.2-2,1.1c0,0.6,0.4,0.8,0.8,0.8c0.6,0,1-0.4,1.2-0.8c0-0.1,0.1-0.2,0.1-0.3V236z M176,231.6l-1.2,1.4h-0.6l0.9-1.4H176z
				"/>
			<path d="M176.9,239.9c0.4,0,0.7-0.1,1-0.4c0.2-0.3,0.3-0.7,0.3-1.8v-4h0.9v4.4c0,0.9-0.1,1.5-0.6,2c-0.4,0.4-1,0.5-1.5,0.5
				L176.9,239.9z M179.2,232.3c0,0.3-0.2,0.5-0.5,0.5c-0.3,0-0.5-0.2-0.5-0.5c0-0.3,0.2-0.5,0.6-0.5
				C179,231.8,179.2,232,179.2,232.3z"/>
			<path d="M183.5,238.5l-0.1-0.6h0c-0.3,0.4-0.8,0.7-1.5,0.7c-1,0-1.5-0.7-1.5-1.4c0-1.2,1-1.8,2.9-1.8v-0.1c0-0.4-0.1-1.1-1.1-1.1
				c-0.4,0-0.9,0.1-1.3,0.4l-0.2-0.6c0.4-0.3,1-0.4,1.6-0.4c1.5,0,1.8,1,1.8,2v1.8c0,0.4,0,0.8,0.1,1.2H183.5z M183.3,236
				c-1,0-2,0.2-2,1.1c0,0.6,0.4,0.8,0.8,0.8c0.6,0,1-0.4,1.2-0.8c0-0.1,0.1-0.2,0.1-0.3V236z"/>
			<path d="M185.9,235.2c0-0.6,0-1.1,0-1.5h0.8l0,1h0c0.2-0.6,0.7-1.1,1.3-1.1c0.1,0,0.2,0,0.2,0v0.8c-0.1,0-0.2,0-0.3,0
				c-0.6,0-1.1,0.5-1.2,1.1c0,0.1,0,0.3,0,0.4v2.6h-0.9V235.2z"/>
			<path d="M193.7,236c0,1.8-1.2,2.6-2.4,2.6c-1.3,0-2.3-1-2.3-2.5c0-1.6,1.1-2.6,2.4-2.6C192.7,233.6,193.7,234.6,193.7,236z
				 M189.8,236.1c0,1.1,0.6,1.9,1.5,1.9c0.8,0,1.5-0.8,1.5-1.9c0-0.8-0.4-1.9-1.4-1.9C190.3,234.2,189.8,235.2,189.8,236.1z"/>
			<path d="M194.9,237.6c0.3,0.2,0.7,0.3,1.2,0.3c0.6,0,0.9-0.3,0.9-0.7c0-0.4-0.2-0.6-0.9-0.9c-0.9-0.3-1.3-0.8-1.3-1.4
				c0-0.8,0.6-1.4,1.7-1.4c0.5,0,0.9,0.1,1.2,0.3l-0.2,0.6c-0.2-0.1-0.5-0.3-1-0.3c-0.5,0-0.8,0.3-0.8,0.7c0,0.4,0.3,0.6,0.9,0.8
				c0.8,0.3,1.3,0.7,1.3,1.5c0,0.8-0.7,1.4-1.8,1.4c-0.5,0-1-0.1-1.4-0.3L194.9,237.6z"/>
			<path d="M205.8,231.4v5.8c0,0.4,0,0.9,0,1.2H205l0-0.8h0c-0.3,0.5-0.9,0.9-1.6,0.9c-1.2,0-2.1-1-2.1-2.5c0-1.6,1-2.6,2.2-2.6
				c0.7,0,1.2,0.3,1.5,0.7h0v-2.9H205.8z M204.9,235.6c0-0.1,0-0.3,0-0.4c-0.1-0.6-0.6-1-1.3-1c-0.9,0-1.4,0.8-1.4,1.9
				c0,1,0.5,1.8,1.4,1.8c0.6,0,1.1-0.4,1.3-1c0-0.1,0-0.2,0-0.4V235.6z"/>
			<path d="M208,236.2c0,1.2,0.8,1.7,1.7,1.7c0.6,0,1-0.1,1.3-0.2l0.1,0.6c-0.3,0.1-0.8,0.3-1.6,0.3c-1.5,0-2.4-1-2.4-2.4
				c0-1.5,0.9-2.6,2.3-2.6c1.6,0,2,1.4,2,2.3c0,0.2,0,0.3,0,0.4H208z M210.6,235.6c0-0.6-0.2-1.4-1.2-1.4c-0.9,0-1.3,0.8-1.3,1.4
				H210.6z"/>
			<path d="M212.7,231.4h0.9v7.1h-0.9V231.4z"/>
			<path d="M168.8,248.4l-0.7,2.1h-0.9l2.3-6.7h1l2.3,6.7H172l-0.7-2.1H168.8z M171.1,247.7l-0.7-1.9c-0.1-0.4-0.2-0.8-0.3-1.2h0
				c-0.1,0.4-0.2,0.8-0.3,1.2l-0.7,1.9H171.1z"/>
			<path d="M174.1,247c0-0.5,0-0.9,0-1.3h0.8l0,0.8h0c0.3-0.5,0.7-0.9,1.5-0.9c0.7,0,1.2,0.4,1.4,1h0c0.1-0.3,0.3-0.5,0.5-0.6
				c0.3-0.2,0.6-0.3,1.1-0.3c0.6,0,1.6,0.4,1.6,2.1v2.8h-0.9v-2.7c0-0.9-0.3-1.5-1-1.5c-0.5,0-0.9,0.4-1,0.8c0,0.1-0.1,0.3-0.1,0.4
				v3h-0.9v-2.9c0-0.8-0.3-1.3-1-1.3c-0.5,0-0.9,0.4-1.1,0.9c-0.1,0.1-0.1,0.3-0.1,0.4v2.9h-0.9V247z"/>
			<path d="M187,248c0,1.8-1.2,2.6-2.4,2.6c-1.3,0-2.3-1-2.3-2.5c0-1.6,1.1-2.6,2.4-2.6C186.1,245.6,187,246.6,187,248z
				 M183.2,248.1c0,1.1,0.6,1.9,1.5,1.9c0.8,0,1.5-0.8,1.5-1.9c0-0.8-0.4-1.9-1.4-1.9C183.6,246.2,183.2,247.2,183.2,248.1z"/>
			<path d="M188.4,247.2c0-0.6,0-1.1,0-1.5h0.8l0,1h0c0.2-0.6,0.7-1.1,1.3-1.1c0.1,0,0.2,0,0.2,0v0.8c-0.1,0-0.2,0-0.3,0
				c-0.6,0-1.1,0.5-1.2,1.1c0,0.1,0,0.3,0,0.4v2.6h-0.9V247.2z"/>
		</g>
	</g>
	<g class="st1">
		<g>
			<path d="M32.3,194.9c0.4-0.1,1-0.1,1.6-0.1c0.9,0,1.4,0.1,1.8,0.5c0.3,0.3,0.6,0.7,0.6,1.2c0,0.7-0.4,1.2-1.1,1.5v0
				c0.6,0.2,1.4,0.7,1.4,1.7c0,0.6-0.2,1-0.6,1.3c-0.5,0.4-1.2,0.6-2.3,0.6c-0.6,0-1.1,0-1.3-0.1V194.9z M33.1,197.6h0.8
				c0.9,0,1.5-0.5,1.5-1.1c0-0.8-0.6-1.1-1.5-1.1c-0.4,0-0.6,0-0.8,0.1V197.6z M33.1,200.8c0.2,0,0.4,0,0.7,0c0.9,0,1.7-0.3,1.7-1.3
				c0-0.9-0.8-1.3-1.7-1.3h-0.7V200.8z"/>
			<path d="M41.9,200.2c0,0.5,0,0.9,0,1.3h-0.8l0-0.8h0c-0.2,0.4-0.7,0.9-1.6,0.9c-0.8,0-1.7-0.4-1.7-2.1v-2.8h0.9v2.7
				c0,0.9,0.3,1.5,1.1,1.5c0.6,0,1-0.4,1.2-0.8c0-0.1,0.1-0.3,0.1-0.4v-3h0.9V200.2z"/>
			<path d="M47.8,194.4v5.8c0,0.4,0,0.9,0,1.2h-0.8l0-0.8h0c-0.3,0.5-0.9,0.9-1.6,0.9c-1.2,0-2.1-1-2.1-2.5c0-1.6,1-2.6,2.2-2.6
				c0.7,0,1.2,0.3,1.5,0.7h0v-2.9H47.8z M47,198.6c0-0.1,0-0.3,0-0.4c-0.1-0.6-0.6-1-1.3-1c-0.9,0-1.4,0.8-1.4,1.9
				c0,1,0.5,1.8,1.4,1.8c0.6,0,1.1-0.4,1.3-1c0-0.1,0-0.2,0-0.4V198.6z"/>
			<path d="M53.7,196.7c0,0.4,0,0.7,0,1.3v2.8c0,1.1-0.2,1.8-0.7,2.2c-0.5,0.4-1.1,0.6-1.8,0.6c-0.6,0-1.2-0.1-1.6-0.4l0.2-0.7
				c0.3,0.2,0.8,0.4,1.4,0.4c0.9,0,1.6-0.5,1.6-1.7v-0.5h0c-0.3,0.5-0.8,0.8-1.5,0.8c-1.2,0-2.1-1-2.1-2.4c0-1.6,1.1-2.6,2.2-2.6
				c0.8,0,1.3,0.4,1.5,0.8h0l0-0.7H53.7z M52.8,198.6c0-0.2,0-0.3,0-0.4c-0.2-0.5-0.6-0.9-1.2-0.9c-0.8,0-1.4,0.7-1.4,1.8
				c0,1,0.5,1.7,1.4,1.7c0.5,0,1-0.3,1.2-0.9c0-0.1,0.1-0.3,0.1-0.5V198.6z"/>
			<path d="M55.9,199.2c0,1.2,0.8,1.7,1.7,1.7c0.6,0,1-0.1,1.3-0.2l0.1,0.6c-0.3,0.1-0.8,0.3-1.6,0.3c-1.5,0-2.4-1-2.4-2.4
				c0-1.5,0.9-2.6,2.3-2.6c1.6,0,2,1.4,2,2.3c0,0.2,0,0.3,0,0.4H55.9z M58.5,198.6c0-0.6-0.2-1.4-1.2-1.4c-0.9,0-1.3,0.8-1.3,1.4
				H58.5z"/>
			<path d="M60.6,198.2c0-0.6,0-1.1,0-1.5h0.8l0,1h0c0.2-0.6,0.7-1.1,1.3-1.1c0.1,0,0.2,0,0.2,0v0.8c-0.1,0-0.2,0-0.3,0
				c-0.6,0-1.1,0.5-1.2,1.1c0,0.1,0,0.3,0,0.4v2.6h-0.9V198.2z"/>
			<path d="M65.2,195.3c0,0.3-0.2,0.5-0.6,0.5c-0.3,0-0.5-0.2-0.5-0.5c0-0.3,0.2-0.5,0.5-0.5C65,194.8,65.2,195,65.2,195.3z
				 M64.2,201.5v-4.8h0.9v4.8H64.2z"/>
			<path d="M71,196.7c0,0.4,0,0.7,0,1.3v2.8c0,1.1-0.2,1.8-0.7,2.2c-0.5,0.4-1.1,0.6-1.8,0.6c-0.6,0-1.2-0.1-1.6-0.4l0.2-0.7
				c0.3,0.2,0.8,0.4,1.4,0.4c0.9,0,1.6-0.5,1.6-1.7v-0.5h0c-0.3,0.5-0.8,0.8-1.5,0.8c-1.2,0-2.1-1-2.1-2.4c0-1.6,1.1-2.6,2.2-2.6
				c0.8,0,1.3,0.4,1.5,0.8h0l0-0.7H71z M70.1,198.6c0-0.2,0-0.3,0-0.4c-0.2-0.5-0.6-0.9-1.2-0.9c-0.8,0-1.4,0.7-1.4,1.8
				c0,1,0.5,1.7,1.4,1.7c0.5,0,1-0.3,1.2-0.9c0-0.1,0.1-0.3,0.1-0.5V198.6z"/>
			<path d="M75.3,201.5l-0.1-0.6h0c-0.3,0.4-0.8,0.7-1.5,0.7c-1,0-1.5-0.7-1.5-1.4c0-1.2,1-1.8,2.9-1.8v-0.1c0-0.4-0.1-1.1-1.1-1.1
				c-0.4,0-0.9,0.1-1.3,0.4l-0.2-0.6c0.4-0.3,1-0.4,1.6-0.4c1.5,0,1.8,1,1.8,2v1.8c0,0.4,0,0.8,0.1,1.2H75.3z M75.2,199
				c-1,0-2,0.2-2,1.1c0,0.6,0.4,0.8,0.8,0.8c0.6,0,1-0.4,1.2-0.8c0-0.1,0.1-0.2,0.1-0.3V199z"/>
			<path d="M77.7,198.2c0-0.6,0-1.1,0-1.5h0.8l0,1h0c0.2-0.6,0.7-1.1,1.3-1.1c0.1,0,0.2,0,0.2,0v0.8c-0.1,0-0.2,0-0.3,0
				c-0.6,0-1.1,0.5-1.2,1.1c0,0.1,0,0.3,0,0.4v2.6h-0.9V198.2z"/>
			<path d="M81.1,200.6c0.3,0.2,0.7,0.3,1.2,0.3c0.6,0,0.9-0.3,0.9-0.7c0-0.4-0.2-0.6-0.9-0.9c-0.9-0.3-1.3-0.8-1.3-1.4
				c0-0.8,0.6-1.4,1.7-1.4c0.5,0,0.9,0.1,1.2,0.3l-0.2,0.6c-0.2-0.1-0.5-0.3-1-0.3c-0.5,0-0.8,0.3-0.8,0.7c0,0.4,0.3,0.6,0.9,0.8
				c0.8,0.3,1.3,0.7,1.3,1.5c0,0.8-0.7,1.4-1.8,1.4c-0.5,0-1-0.1-1.4-0.3L81.1,200.6z"/>
		</g>
	</g>
	<g>
	</g>
	<g>
	</g>
	<g>
	</g>
	<g>
	</g>
	<g>
	</g>
	<g>
	</g>
	<g>
	</g>
	<g>
	</g>
	<g>
	</g>
	<g>
	</g>
</g>
</svg>
