<?xml version="1.0" encoding="utf-8"?>
<!-- Generator: Adobe Illustrator 21.0.0, SVG Export Plug-In . SVG Version: 6.00 Build 0)  -->
<svg version="1.1" xmlns="http://www.w3.org/2000/svg" xmlns:xlink="http://www.w3.org/1999/xlink" x="0px" y="0px"
	 viewBox="0 0 350 592" style="enable-background:new 0 0 350 592;" xml:space="preserve">
<style type="text/css">
	.st0{fill:none;stroke:#B78263;}
	.st1{opacity:0.4;fill:#F9AF85;}
	.st2{fill:#F9AF85;}
	.st3{fill:#FFFFFF;}
	.st4{opacity:0.5;}
</style>
<g id="Layer_2">
	<polyline class="st0" points="174.9,63.1 174.9,83.3 106.7,83.3 106.7,106.8 	"/>
	<polyline class="st0" points="174.9,83.3 243,83.3 243,106.8 	"/>
	<line class="st0" x1="106.7" y1="146.9" x2="106.7" y2="214.7"/>
	<line class="st0" x1="106.7" y1="176" x2="38.6" y2="176"/>
	<line class="st0" x1="38.6" y1="176" x2="38.6" y2="214.7"/>
	<line class="st0" x1="243" y1="146.9" x2="243" y2="214.7"/>
	<line class="st0" x1="243" y1="176" x2="174.9" y2="176"/>
	<line class="st0" x1="174.9" y1="176" x2="174.9" y2="214.7"/>
	<line class="st0" x1="243" y1="176" x2="311.2" y2="176"/>
	<line class="st0" x1="311.2" y1="176" x2="311.2" y2="214.7"/>
	<rect x="144.6" y="304.7" class="st1" width="186" height="264.3"/>
	<rect x="16.5" y="283.7" class="st1" width="316.7" height="288.2"/>
	<rect x="19.5" y="304.7" class="st1" width="122" height="264.3"/>
	<rect x="19.5" y="323.5" class="st2" width="122" height="152"/>
	<rect x="144.6" y="323.5" class="st2" width="186" height="120.5"/>
	<rect x="144.6" y="448.5" class="st2" width="121.4" height="120.5"/>
	<rect x="270" y="448.5" class="st2" width="60.7" height="120.5"/>
	<rect x="19.5" y="478.3" class="st2" width="122" height="90.7"/>
</g>
<g id="Layer_1">
	<g>
		<rect x="16.5" y="199.7" class="st2" width="44.2" height="44.2"/>
		<g>
			<g>
				<path class="st3" d="M32.3,207.2c1.2-0.2,2.8-0.3,4.5-0.3c2.8,0,4.6,0.5,6.1,1.6c1.5,1.1,2.5,3,2.5,5.6c0,2.8-1,4.8-2.5,6
					c-1.6,1.3-3.9,1.9-6.8,1.9c-1.7,0-3-0.1-3.8-0.2V207.2z M35.7,219.3c0.3,0.1,0.7,0.1,1.2,0.1c3,0,5-1.7,5-5.2
					c0-3.1-1.8-4.7-4.7-4.7c-0.7,0-1.2,0.1-1.5,0.1V219.3z"/>
			</g>
		</g>
		<g>
			<path class="st3" d="M31.8,236.2c0.4,0.2,1.2,0.6,2,0.6c1.6,0,2.1-1,2.1-1.8c0-1.3-1.2-1.8-2.4-1.8h-0.7v-0.9h0.7
				c0.9,0,2-0.5,2-1.5c0-0.7-0.5-1.4-1.6-1.4c-0.7,0-1.4,0.3-1.8,0.6l-0.3-0.9c0.5-0.4,1.4-0.7,2.4-0.7c1.8,0,2.6,1.1,2.6,2.2
				c0,0.9-0.6,1.7-1.7,2.1v0c1.1,0.2,2,1.1,2,2.3c0,1.5-1.1,2.7-3.3,2.7c-1,0-1.9-0.3-2.4-0.6L31.8,236.2z"/>
			<path class="st3" d="M44.7,233c0,3.1-1.1,4.8-3.2,4.8c-1.8,0-3-1.7-3-4.7c0-3.1,1.3-4.7,3.2-4.7C43.6,228.4,44.7,230.1,44.7,233z
				 M39.8,233.1c0,2.4,0.7,3.7,1.8,3.7c1.3,0,1.9-1.5,1.9-3.8c0-2.2-0.6-3.7-1.8-3.7C40.5,229.3,39.8,230.6,39.8,233.1z"/>
		</g>
	</g>
	<g>
		<rect x="84.7" y="199.7" class="st2" width="44.2" height="44.2"/>
		<g>
			<g>
				<path class="st3" d="M110.8,215.5h-5.5v3.5h6.1v2.8H102V207h9.2v2.8h-5.8v3.1h5.5V215.5z"/>
			</g>
		</g>
		<g>
			<path class="st3" d="M105.4,229.6h-3.5l-0.4,2.3c0.2,0,0.4-0.1,0.7-0.1c0.7,0,1.4,0.2,2,0.5c0.7,0.4,1.3,1.2,1.3,2.3
				c0,1.8-1.4,3.1-3.4,3.1c-1,0-1.8-0.3-2.3-0.6l0.3-0.9c0.4,0.2,1.1,0.5,1.9,0.5c1.2,0,2.2-0.8,2.2-2c0-1.2-0.8-2-2.6-2
				c-0.5,0-0.9,0.1-1.3,0.1l0.6-4.4h4.4V229.6z"/>
			<path class="st3" d="M113.2,233c0,3.1-1.1,4.8-3.2,4.8c-1.8,0-3-1.7-3-4.7c0-3.1,1.3-4.7,3.2-4.7
				C112.1,228.4,113.2,230.1,113.2,233z M108.2,233.1c0,2.4,0.7,3.7,1.8,3.7c1.3,0,1.9-1.5,1.9-3.8c0-2.2-0.6-3.7-1.8-3.7
				C109,229.3,108.2,230.6,108.2,233.1z"/>
		</g>
	</g>
	<g>
		<rect x="84.7" y="106.8" class="st2" width="44.2" height="44.2"/>
		<g>
			<g>
				<path class="st3" d="M102.1,112.7c0.9-0.2,2.7-0.3,4.3-0.3c2,0,3.3,0.2,4.4,0.8c1,0.6,1.8,1.6,1.8,2.9c0,1.3-0.8,2.6-2.4,3.2v0
					c1.7,0.5,2.9,1.7,2.9,3.7c0,1.3-0.6,2.4-1.5,3.1c-1.1,0.9-2.9,1.3-5.8,1.3c-1.6,0-2.9-0.1-3.6-0.2V112.7z M105.4,118.3h1.1
					c1.8,0,2.7-0.7,2.7-1.8c0-1.1-0.9-1.7-2.4-1.7c-0.7,0-1.1,0-1.4,0.1V118.3z M105.4,124.9c0.3,0,0.7,0,1.3,0
					c1.5,0,2.9-0.6,2.9-2.1c0-1.5-1.3-2.1-3-2.1h-1.1V124.9z"/>
			</g>
		</g>
		<g>
			<path class="st3" d="M100.2,141.7c0-1.1,0.7-2,1.8-2.4l0,0c-1-0.5-1.4-1.3-1.4-2c0-1.4,1.2-2.4,2.8-2.4c1.8,0,2.6,1.1,2.6,2.2
				c0,0.8-0.4,1.6-1.5,2.1v0c1.1,0.4,1.8,1.2,1.8,2.4c0,1.6-1.4,2.6-3.1,2.6C101.3,144.1,100.2,143,100.2,141.7z M105.1,141.6
				c0-1.1-0.8-1.6-2-2c-1.1,0.3-1.6,1-1.6,1.9c0,0.9,0.7,1.7,1.8,1.7C104.4,143.2,105.1,142.5,105.1,141.6z M101.7,137
				c0,0.9,0.7,1.4,1.7,1.7c0.8-0.3,1.4-0.8,1.4-1.7c0-0.7-0.4-1.5-1.5-1.5C102.2,135.6,101.7,136.3,101.7,137z"/>
			<path class="st3" d="M113.5,139.3c0,3.1-1.1,4.8-3.2,4.8c-1.8,0-3-1.7-3-4.7c0-3.1,1.3-4.7,3.2-4.7
				C112.4,134.7,113.5,136.4,113.5,139.3z M108.6,139.5c0,2.4,0.7,3.7,1.8,3.7c1.3,0,1.9-1.5,1.9-3.8c0-2.2-0.6-3.7-1.8-3.7
				C109.3,135.7,108.6,137,108.6,139.5z"/>
		</g>
	</g>
	<g>
		<rect x="152.8" y="199.7" class="st2" width="44.2" height="44.2"/>
		<g>
			<g>
				<path class="st3" d="M171.2,207h9.1v2.8h-5.7v3.4h5.3v2.7h-5.3v6h-3.4V207z"/>
			</g>
		</g>
		<g>
			<path class="st3" d="M168,237.6v-0.8l1-0.9c2.3-2.2,3.4-3.4,3.4-4.8c0-0.9-0.4-1.8-1.8-1.8c-0.8,0-1.5,0.4-1.9,0.8l-0.4-0.9
				c0.6-0.5,1.5-0.9,2.6-0.9c2,0,2.8,1.3,2.8,2.6c0,1.7-1.2,3-3.1,4.9l-0.7,0.7v0h4.1v1H168z"/>
			<path class="st3" d="M181.2,233c0,3.1-1.1,4.8-3.2,4.8c-1.8,0-3-1.7-3-4.7c0-3.1,1.3-4.7,3.2-4.7
				C180.1,228.4,181.2,230.1,181.2,233z M176.3,233.1c0,2.4,0.7,3.7,1.8,3.7c1.3,0,1.9-1.5,1.9-3.8c0-2.2-0.6-3.7-1.8-3.7
				C177.1,229.3,176.3,230.6,176.3,233.1z"/>
		</g>
	</g>
	<g>
		<rect x="221" y="199.7" class="st2" width="44.2" height="44.2"/>
		<g>
			<g>
				<path class="st3" d="M249.1,221.1c-1,0.4-3,0.8-5,0.8c-2.7,0-4.7-0.7-6-2c-1.4-1.3-2.1-3.2-2.1-5.4c0-4.9,3.6-7.7,8.5-7.7
					c1.9,0,3.4,0.4,4.1,0.7l-0.7,2.7c-0.8-0.4-1.8-0.6-3.5-0.6c-2.8,0-4.9,1.6-4.9,4.8c0,3.1,1.9,4.9,4.7,4.9c0.8,0,1.4-0.1,1.7-0.2
					v-3.1h-2.3v-2.6h5.5V221.1z"/>
			</g>
		</g>
		<g>
			<path class="st3" d="M240.1,237.6v-2.5h-4.2v-0.8l4.1-5.8h1.3v5.7h1.3v1h-1.3v2.5H240.1z M240.1,234.2v-3c0-0.5,0-1,0-1.4h0
				c-0.3,0.5-0.5,0.9-0.8,1.3l-2.2,3.1v0H240.1z"/>
			<path class="st3" d="M249.5,233c0,3.1-1.1,4.8-3.2,4.8c-1.8,0-3-1.7-3-4.7c0-3.1,1.3-4.7,3.2-4.7
				C248.4,228.4,249.5,230.1,249.5,233z M244.5,233.1c0,2.4,0.7,3.7,1.8,3.7c1.3,0,1.9-1.5,1.9-3.8c0-2.2-0.6-3.7-1.8-3.7
				C245.3,229.3,244.5,230.6,244.5,233.1z"/>
		</g>
	</g>
	<g>
		<rect x="289.1" y="199.7" class="st2" width="44.2" height="44.2"/>
		<g>
			<g>
				<path class="st3" d="M308.5,207v5.7h5.5V207h3.3v14.8H314v-6.2h-5.5v6.2h-3.4V207H308.5z"/>
			</g>
		</g>
		<g>
			<path class="st3" d="M309.9,229.4c-0.3,0-0.6,0-0.9,0.1c-1.9,0.3-3,1.7-3.2,3.2h0c0.4-0.6,1.2-1.1,2.2-1.1c1.6,0,2.7,1.2,2.7,2.9
				c0,1.7-1.1,3.2-3,3.2c-1.9,0-3.2-1.5-3.2-3.9c0-1.8,0.6-3.2,1.5-4.1c0.8-0.7,1.8-1.2,2.9-1.3c0.4-0.1,0.7-0.1,0.9-0.1V229.4z
				 M309.5,234.6c0-1.3-0.7-2.1-1.9-2.1c-0.7,0-1.4,0.5-1.8,1.1c-0.1,0.1-0.1,0.3-0.1,0.5c0,1.5,0.7,2.6,2,2.6
				C308.8,236.8,309.5,235.9,309.5,234.6z"/>
			<path class="st3" d="M317.9,233c0,3.1-1.1,4.8-3.2,4.8c-1.8,0-3-1.7-3-4.7c0-3.1,1.3-4.7,3.2-4.7
				C316.8,228.4,317.9,230.1,317.9,233z M313,233.1c0,2.4,0.7,3.7,1.8,3.7c1.3,0,1.9-1.5,1.9-3.8c0-2.2-0.6-3.7-1.8-3.7
				C313.8,229.3,313,230.6,313,233.1z"/>
		</g>
	</g>
	<g>
		<rect x="221.1" y="106.8" class="st2" width="44.2" height="44.2"/>
		<g>
			<g>
				<path class="st3" d="M249,126.9c-0.6,0.3-2,0.6-3.8,0.6c-5.1,0-7.8-3.2-7.8-7.4c0-5.1,3.6-7.9,8.1-7.9c1.7,0,3.1,0.4,3.7,0.7
					l-0.7,2.7c-0.7-0.3-1.6-0.6-2.8-0.6c-2.7,0-4.7,1.6-4.7,4.9c0,3,1.8,4.8,4.8,4.8c1,0,2.1-0.2,2.8-0.5L249,126.9z"/>
			</g>
		</g>
		<g>
			<path class="st3" d="M235.7,136L235.7,136l-1.6,0.9l-0.2-0.9l2-1.1h1v9.1h-1.2V136z"/>
			<path class="st3" d="M240.2,144v-0.8l1-0.9c2.3-2.2,3.4-3.4,3.4-4.8c0-0.9-0.4-1.8-1.8-1.8c-0.8,0-1.5,0.4-1.9,0.8l-0.4-0.9
				c0.6-0.5,1.5-0.9,2.6-0.9c2,0,2.8,1.3,2.8,2.6c0,1.7-1.2,3-3.1,4.9l-0.7,0.7v0h4.1v1H240.2z"/>
			<path class="st3" d="M253.5,139.3c0,3.1-1.1,4.8-3.2,4.8c-1.8,0-3-1.7-3-4.7c0-3.1,1.3-4.7,3.2-4.7
				C252.4,134.7,253.5,136.4,253.5,139.3z M248.5,139.5c0,2.4,0.7,3.7,1.8,3.7c1.3,0,1.9-1.5,1.9-3.8c0-2.2-0.6-3.7-1.8-3.7
				C249.3,135.7,248.5,137,248.5,139.5z"/>
		</g>
	</g>
	<g>
		<rect x="152.9" y="19" class="st2" width="44.2" height="44.2"/>
		<g>
			<path class="st3" d="M172.9,36.2l-1.1,3.8h-3.5l4.5-14.8h4.4l4.6,14.8h-3.6l-1.1-3.8H172.9z M176.7,33.6l-0.9-3.1
				c-0.3-0.9-0.5-2-0.7-2.9h0c-0.2,0.9-0.4,2-0.7,2.9l-0.9,3.1H176.7z"/>
		</g>
		<g>
			<path class="st3" d="M164.1,57v-0.8l1-0.9c2.3-2.2,3.4-3.4,3.4-4.8c0-0.9-0.4-1.8-1.8-1.8c-0.8,0-1.5,0.4-1.9,0.8l-0.4-0.9
				c0.6-0.5,1.5-0.9,2.6-0.9c2,0,2.8,1.3,2.8,2.6c0,1.7-1.2,3-3.1,4.9l-0.7,0.7v0h4.1v1H164.1z"/>
			<path class="st3" d="M177.3,52.3c0,3.1-1.1,4.8-3.2,4.8c-1.8,0-3-1.7-3-4.7c0-3.1,1.3-4.7,3.2-4.7
				C176.2,47.7,177.3,49.4,177.3,52.3z M172.4,52.5c0,2.4,0.7,3.7,1.8,3.7c1.3,0,1.9-1.5,1.9-3.8c0-2.2-0.6-3.7-1.8-3.7
				C173.2,48.7,172.4,50,172.4,52.5z"/>
			<path class="st3" d="M184.5,52.3c0,3.1-1.1,4.8-3.2,4.8c-1.8,0-3-1.7-3-4.7c0-3.1,1.3-4.7,3.2-4.7
				C183.4,47.7,184.5,49.4,184.5,52.3z M179.6,52.5c0,2.4,0.7,3.7,1.8,3.7c1.3,0,1.9-1.5,1.9-3.8c0-2.2-0.6-3.7-1.8-3.7
				C180.4,48.7,179.6,50,179.6,52.5z"/>
		</g>
	</g>
	<g class="st4">
		<path d="M171.8,295.8l-1.1,3.4h-1.4l3.7-10.8h1.7l3.7,10.8h-1.5l-1.2-3.4H171.8z M175.4,294.7l-1.1-3.1c-0.2-0.7-0.4-1.3-0.6-2h0
			c-0.2,0.6-0.3,1.3-0.5,2l-1.1,3.1H175.4z"/>
	</g>
	<g class="st4">
		<path d="M75.8,309.2c0.6-0.1,1.6-0.2,2.5-0.2c1.4,0,2.3,0.2,3,0.8c0.6,0.4,0.9,1.1,0.9,1.9c0,1-0.7,2-1.8,2.4v0
			c1,0.3,2.2,1.1,2.2,2.7c0,0.9-0.4,1.6-0.9,2.2c-0.8,0.7-2,1-3.7,1c-1,0-1.7-0.1-2.2-0.1V309.2z M77.1,313.6h1.3
			c1.5,0,2.3-0.8,2.3-1.8c0-1.3-1-1.8-2.4-1.8c-0.6,0-1,0-1.2,0.1V313.6z M77.1,318.8c0.3,0,0.7,0.1,1.2,0.1c1.4,0,2.8-0.5,2.8-2.1
			c0-1.5-1.3-2.1-2.8-2.1h-1.2V318.8z"/>
	</g>
	<g class="st4">
		<path d="M81.3,397.5h-4.2v3.9h4.7v1.2h-6.1v-10.8h5.8v1.2h-4.4v3.4h4.2V397.5z"/>
	</g>
	<g class="st4">
		<path d="M235.9,377.1v4.5h5.2v-4.5h1.4v10.8h-1.4v-5.1h-5.2v5.1h-1.4v-10.8H235.9z"/>
	</g>
	<g class="st4">
		<path d="M210.1,511.4c-0.6,0.2-1.9,0.6-3.3,0.6c-1.6,0-3-0.4-4-1.4c-0.9-0.9-1.5-2.3-1.5-4c0-3.2,2.2-5.6,5.8-5.6
			c1.2,0,2.2,0.3,2.7,0.5l-0.3,1.1c-0.6-0.3-1.3-0.5-2.4-0.5c-2.6,0-4.3,1.6-4.3,4.3c0,2.7,1.6,4.4,4.2,4.4c0.9,0,1.5-0.1,1.9-0.3
			v-3.2h-2.2v-1.1h3.6V511.4z"/>
	</g>
	<g class="st4">
		<path d="M296.8,501.1h5.8v1.2h-4.4v3.6h4.1v1.2h-4.1v4.9h-1.4V501.1z"/>
	</g>
	<g class="st4">
		<path d="M75.8,517.2c0.8-0.1,1.9-0.2,3-0.2c2,0,3.4,0.5,4.4,1.3c1,0.9,1.5,2.1,1.5,3.9c0,1.8-0.5,3.2-1.6,4.2
			c-1,1-2.7,1.6-4.8,1.6c-1,0-1.8,0-2.5-0.1V517.2z M77.1,526.8c0.4,0.1,0.9,0.1,1.4,0.1c3,0,4.6-1.7,4.6-4.6c0-2.5-1.4-4.2-4.4-4.2
			c-0.7,0-1.3,0.1-1.6,0.1V526.8z"/>
	</g>
	<g class="st4">
		<path d="M241.4,319.5c-0.5,0.3-1.5,0.5-2.8,0.5c-3,0-5.3-1.9-5.3-5.5c0-3.4,2.3-5.7,5.6-5.7c1.3,0,2.2,0.3,2.6,0.5l-0.3,1.1
			c-0.5-0.3-1.3-0.4-2.2-0.4c-2.5,0-4.2,1.6-4.2,4.4c0,2.6,1.5,4.3,4.1,4.3c0.8,0,1.7-0.2,2.3-0.4L241.4,319.5z"/>
	</g>
	<g>
	</g>
	<g>
	</g>
	<g>
	</g>
	<g>
	</g>
	<g>
	</g>
	<g>
	</g>
	<g>
	</g>
	<g>
	</g>
	<g>
	</g>
	<g>
	</g>
</g>
</svg>
