<?xml version="1.0" encoding="utf-8"?>
<!-- Generator: Adobe Illustrator 21.0.0, SVG Export Plug-In . SVG Version: 6.00 Build 0)  -->
<svg version="1.1" xmlns="http://www.w3.org/2000/svg" xmlns:xlink="http://www.w3.org/1999/xlink" x="0px" y="0px"
	 viewBox="0 0 730 320" style="enable-background:new 0 0 730 320;" xml:space="preserve">
<style type="text/css">
	.st0{fill:#666666;}
	.st1{fill:none;stroke:#333333;stroke-miterlimit:10;}
	.st2{fill:#ED1C24;}
	.st3{fill:#FBB03B;}
</style>
<g id="Layer_2">
	<g>
		<g>
			<path class="st0" d="M60.5,270.1c0-0.3,0-0.6,0.1-0.8c0.1-0.3,0.1-0.5,0.2-0.8c0.1-0.2,0.2-0.5,0.4-0.7s0.4-0.3,0.7-0.4
				c0.3-0.1,0.6-0.2,1-0.2s0.7,0.1,1,0.2c0.3,0.1,0.5,0.3,0.7,0.4s0.3,0.4,0.4,0.7c0.1,0.2,0.2,0.5,0.2,0.8c0.1,0.3,0.1,0.6,0.1,0.8
				s0,0.6,0,0.8s0,0.5,0,0.8c0,0.3,0,0.6-0.1,0.8c-0.1,0.3-0.1,0.5-0.2,0.8c-0.1,0.2-0.2,0.5-0.4,0.6s-0.4,0.3-0.7,0.4
				c-0.3,0.1-0.6,0.2-1,0.2c-0.4,0-0.7-0.1-1-0.2c-0.3-0.1-0.5-0.3-0.7-0.4s-0.3-0.4-0.4-0.6c-0.1-0.2-0.2-0.5-0.2-0.8
				c-0.1-0.3-0.1-0.6-0.1-0.8c0-0.3,0-0.6,0-0.8S60.5,270.4,60.5,270.1z M61.4,271.9c0,0.3,0.1,0.7,0.2,1c0.1,0.3,0.2,0.6,0.5,0.8
				c0.2,0.2,0.5,0.3,0.9,0.3s0.7-0.1,0.9-0.3c0.2-0.2,0.4-0.5,0.5-0.8c0.1-0.3,0.1-0.6,0.2-1c0-0.3,0-0.7,0-0.9c0-0.2,0-0.4,0-0.6
				s0-0.4-0.1-0.7s-0.1-0.4-0.1-0.6c-0.1-0.2-0.1-0.4-0.3-0.5c-0.1-0.2-0.3-0.3-0.4-0.4s-0.4-0.1-0.6-0.1c-0.2,0-0.5,0-0.6,0.1
				s-0.3,0.2-0.4,0.4s-0.2,0.3-0.3,0.5c-0.1,0.2-0.1,0.4-0.1,0.6c0,0.2,0,0.4-0.1,0.7s0,0.4,0,0.6C61.4,271.2,61.4,271.5,61.4,271.9
				z"/>
		</g>
		<g>
			<path class="st0" d="M105.9,269.4c0-0.3,0-0.6,0.1-0.8c0.1-0.3,0.1-0.5,0.2-0.8c0.1-0.2,0.2-0.5,0.4-0.7s0.4-0.3,0.7-0.4
				c0.3-0.1,0.6-0.2,1-0.2s0.7,0.1,1,0.2c0.3,0.1,0.5,0.3,0.7,0.4s0.3,0.4,0.4,0.7c0.1,0.2,0.2,0.5,0.2,0.8c0.1,0.3,0.1,0.6,0.1,0.8
				s0,0.6,0,0.8s0,0.5,0,0.8c0,0.3,0,0.6-0.1,0.8c-0.1,0.3-0.1,0.5-0.2,0.8c-0.1,0.2-0.2,0.5-0.4,0.6s-0.4,0.3-0.7,0.4
				c-0.3,0.1-0.6,0.2-1,0.2c-0.4,0-0.7-0.1-1-0.2c-0.3-0.1-0.5-0.3-0.7-0.4s-0.3-0.4-0.4-0.6c-0.1-0.2-0.2-0.5-0.2-0.8
				c-0.1-0.3-0.1-0.6-0.1-0.8c0-0.3,0-0.6,0-0.8S105.9,269.7,105.9,269.4z M106.8,271.2c0,0.3,0.1,0.7,0.2,1
				c0.1,0.3,0.2,0.6,0.5,0.8c0.2,0.2,0.5,0.3,0.9,0.3s0.7-0.1,0.9-0.3c0.2-0.2,0.4-0.5,0.5-0.8c0.1-0.3,0.1-0.6,0.2-1
				c0-0.3,0-0.7,0-0.9c0-0.2,0-0.4,0-0.6s0-0.4-0.1-0.7s-0.1-0.4-0.1-0.6c-0.1-0.2-0.1-0.4-0.3-0.5c-0.1-0.2-0.3-0.3-0.4-0.4
				s-0.4-0.1-0.6-0.1c-0.2,0-0.5,0-0.6,0.1s-0.3,0.2-0.4,0.4s-0.2,0.3-0.3,0.5c-0.1,0.2-0.1,0.4-0.1,0.6c0,0.2,0,0.4-0.1,0.7
				s0,0.4,0,0.6C106.8,270.5,106.8,270.8,106.8,271.2z"/>
			<path class="st0" d="M113.2,272.7v1.2h-1.2v-1.2H113.2z"/>
			<path class="st0" d="M115.2,268.1c0.1-0.3,0.2-0.6,0.5-0.8c0.2-0.2,0.5-0.4,0.8-0.5c0.3-0.1,0.6-0.2,1-0.2c0.3,0,0.6,0,0.9,0.1
				c0.3,0.1,0.5,0.2,0.7,0.4c0.2,0.2,0.4,0.4,0.5,0.7c0.1,0.3,0.2,0.6,0.2,0.9c0,0.3-0.1,0.6-0.2,0.9c-0.1,0.2-0.2,0.5-0.4,0.7
				c-0.2,0.2-0.4,0.4-0.6,0.5s-0.4,0.3-0.7,0.5c-0.2,0.1-0.5,0.3-0.7,0.4s-0.4,0.3-0.6,0.4c-0.2,0.2-0.4,0.3-0.5,0.5
				c-0.1,0.2-0.2,0.4-0.3,0.6h3.8v0.8h-4.8c0-0.4,0.1-0.8,0.2-1.1s0.3-0.6,0.5-0.8c0.2-0.2,0.4-0.4,0.6-0.6c0.2-0.2,0.5-0.3,0.7-0.5
				c0.3-0.2,0.6-0.4,0.8-0.5c0.2-0.2,0.4-0.3,0.6-0.5c0.2-0.2,0.3-0.3,0.4-0.5s0.1-0.4,0.1-0.7c0-0.2,0-0.4-0.1-0.5
				c-0.1-0.2-0.2-0.3-0.3-0.4c-0.1-0.1-0.3-0.2-0.5-0.3c-0.2-0.1-0.4-0.1-0.5-0.1c-0.3,0-0.5,0.1-0.7,0.2c-0.2,0.1-0.3,0.2-0.5,0.4
				c-0.1,0.2-0.2,0.4-0.3,0.6s-0.1,0.4-0.1,0.7h-0.9C115,268.8,115.1,268.4,115.2,268.1z"/>
		</g>
		<g>
			<path class="st0" d="M147.7,269.4c0-0.3,0-0.6,0.1-0.8c0.1-0.3,0.1-0.5,0.2-0.8c0.1-0.2,0.2-0.5,0.4-0.7s0.4-0.3,0.7-0.4
				c0.3-0.1,0.6-0.2,1-0.2s0.7,0.1,1,0.2c0.3,0.1,0.5,0.3,0.7,0.4s0.3,0.4,0.4,0.7c0.1,0.2,0.2,0.5,0.2,0.8c0.1,0.3,0.1,0.6,0.1,0.8
				s0,0.6,0,0.8s0,0.5,0,0.8c0,0.3,0,0.6-0.1,0.8c-0.1,0.3-0.1,0.5-0.2,0.8c-0.1,0.2-0.2,0.5-0.4,0.6s-0.4,0.3-0.7,0.4
				c-0.3,0.1-0.6,0.2-1,0.2c-0.4,0-0.7-0.1-1-0.2c-0.3-0.1-0.5-0.3-0.7-0.4s-0.3-0.4-0.4-0.6c-0.1-0.2-0.2-0.5-0.2-0.8
				c-0.1-0.3-0.1-0.6-0.1-0.8c0-0.3,0-0.6,0-0.8S147.7,269.7,147.7,269.4z M148.7,271.2c0,0.3,0.1,0.7,0.2,1
				c0.1,0.3,0.2,0.6,0.5,0.8c0.2,0.2,0.5,0.3,0.9,0.3s0.7-0.1,0.9-0.3c0.2-0.2,0.4-0.5,0.5-0.8c0.1-0.3,0.1-0.6,0.2-1
				c0-0.3,0-0.7,0-0.9c0-0.2,0-0.4,0-0.6s0-0.4-0.1-0.7s-0.1-0.4-0.1-0.6c-0.1-0.2-0.1-0.4-0.3-0.5c-0.1-0.2-0.3-0.3-0.4-0.4
				s-0.4-0.1-0.6-0.1c-0.2,0-0.5,0-0.6,0.1s-0.3,0.2-0.4,0.4s-0.2,0.3-0.3,0.5c-0.1,0.2-0.1,0.4-0.1,0.6c0,0.2,0,0.4-0.1,0.7
				s0,0.4,0,0.6C148.7,270.5,148.7,270.8,148.7,271.2z"/>
			<path class="st0" d="M155.1,272.7v1.2h-1.2v-1.2H155.1z"/>
			<path class="st0" d="M161.3,271.4v0.8h-1v1.7h-0.8v-1.7h-3.2v-0.9l3.3-4.8h0.7v4.9H161.3z M159.4,267.8L159.4,267.8l-2.5,3.6h2.5
				V267.8z"/>
		</g>
		<g>
			<path class="st0" d="M189.3,269.4c0-0.3,0-0.6,0.1-0.8c0.1-0.3,0.1-0.5,0.2-0.8c0.1-0.2,0.2-0.5,0.4-0.7s0.4-0.3,0.7-0.4
				c0.3-0.1,0.6-0.2,1-0.2s0.7,0.1,1,0.2c0.3,0.1,0.5,0.3,0.7,0.4s0.3,0.4,0.4,0.7c0.1,0.2,0.2,0.5,0.2,0.8c0.1,0.3,0.1,0.6,0.1,0.8
				s0,0.6,0,0.8s0,0.5,0,0.8c0,0.3,0,0.6-0.1,0.8c-0.1,0.3-0.1,0.5-0.2,0.8c-0.1,0.2-0.2,0.5-0.4,0.6s-0.4,0.3-0.7,0.4
				c-0.3,0.1-0.6,0.2-1,0.2c-0.4,0-0.7-0.1-1-0.2c-0.3-0.1-0.5-0.3-0.7-0.4s-0.3-0.4-0.4-0.6c-0.1-0.2-0.2-0.5-0.2-0.8
				c-0.1-0.3-0.1-0.6-0.1-0.8c0-0.3,0-0.6,0-0.8S189.3,269.7,189.3,269.4z M190.3,271.2c0,0.3,0.1,0.7,0.2,1
				c0.1,0.3,0.2,0.6,0.5,0.8c0.2,0.2,0.5,0.3,0.9,0.3s0.7-0.1,0.9-0.3c0.2-0.2,0.4-0.5,0.5-0.8c0.1-0.3,0.1-0.6,0.2-1
				c0-0.3,0-0.7,0-0.9c0-0.2,0-0.4,0-0.6s0-0.4-0.1-0.7s-0.1-0.4-0.1-0.6c-0.1-0.2-0.1-0.4-0.3-0.5c-0.1-0.2-0.3-0.3-0.4-0.4
				s-0.4-0.1-0.6-0.1c-0.2,0-0.5,0-0.6,0.1s-0.3,0.2-0.4,0.4s-0.2,0.3-0.3,0.5c-0.1,0.2-0.1,0.4-0.1,0.6c0,0.2,0,0.4-0.1,0.7
				s0,0.4,0,0.6C190.2,270.5,190.2,270.8,190.3,271.2z"/>
			<path class="st0" d="M196.6,272.7v1.2h-1.2v-1.2H196.6z"/>
			<path class="st0" d="M201.4,267.6c-0.2-0.2-0.5-0.3-0.9-0.3c-0.4,0-0.7,0.1-0.9,0.3c-0.2,0.2-0.4,0.4-0.5,0.7
				c-0.1,0.3-0.2,0.6-0.3,0.9c0,0.3-0.1,0.6-0.1,0.9l0,0c0.2-0.3,0.5-0.6,0.8-0.7c0.3-0.2,0.7-0.2,1.1-0.2c0.4,0,0.7,0.1,0.9,0.2
				s0.5,0.3,0.7,0.5c0.2,0.2,0.3,0.5,0.4,0.8c0.1,0.3,0.2,0.6,0.2,0.9c0,0.3,0,0.5-0.1,0.8s-0.2,0.6-0.4,0.8s-0.4,0.4-0.8,0.6
				s-0.7,0.2-1.2,0.2c-0.5,0-1-0.1-1.3-0.3c-0.3-0.2-0.6-0.5-0.8-0.8c-0.2-0.3-0.3-0.7-0.4-1.1s-0.1-0.8-0.1-1.2c0-0.5,0-1,0.1-1.5
				c0.1-0.5,0.2-0.9,0.4-1.3c0.2-0.4,0.5-0.7,0.8-0.9c0.3-0.2,0.8-0.3,1.3-0.3c0.6,0,1.1,0.2,1.5,0.5s0.6,0.8,0.6,1.4h-0.9
				C201.8,268.1,201.6,267.8,201.4,267.6z M199.8,270.1c-0.2,0.1-0.3,0.2-0.5,0.4s-0.2,0.3-0.3,0.5c-0.1,0.2-0.1,0.4-0.1,0.6
				s0,0.4,0.1,0.6c0.1,0.2,0.2,0.4,0.3,0.5s0.3,0.3,0.5,0.3c0.2,0.1,0.4,0.1,0.6,0.1c0.2,0,0.5,0,0.6-0.1c0.2-0.1,0.3-0.2,0.5-0.4
				c0.1-0.2,0.2-0.3,0.3-0.5c0.1-0.2,0.1-0.4,0.1-0.6c0-0.2,0-0.4-0.1-0.6c-0.1-0.2-0.1-0.4-0.3-0.5s-0.3-0.3-0.5-0.4
				c-0.2-0.1-0.4-0.1-0.7-0.1C200.2,269.9,200,270,199.8,270.1z"/>
		</g>
		<g>
			<path class="st0" d="M230.9,269.4c0-0.3,0-0.6,0.1-0.8c0.1-0.3,0.1-0.5,0.2-0.8c0.1-0.2,0.2-0.5,0.4-0.7s0.4-0.3,0.7-0.4
				c0.3-0.1,0.6-0.2,1-0.2s0.7,0.1,1,0.2c0.3,0.1,0.5,0.3,0.7,0.4s0.3,0.4,0.4,0.7c0.1,0.2,0.2,0.5,0.2,0.8c0.1,0.3,0.1,0.6,0.1,0.8
				s0,0.6,0,0.8s0,0.5,0,0.8c0,0.3,0,0.6-0.1,0.8c-0.1,0.3-0.1,0.5-0.2,0.8c-0.1,0.2-0.2,0.5-0.4,0.6s-0.4,0.3-0.7,0.4
				c-0.3,0.1-0.6,0.2-1,0.2c-0.4,0-0.7-0.1-1-0.2c-0.3-0.1-0.5-0.3-0.7-0.4s-0.3-0.4-0.4-0.6c-0.1-0.2-0.2-0.5-0.2-0.8
				c-0.1-0.3-0.1-0.6-0.1-0.8c0-0.3,0-0.6,0-0.8S230.9,269.7,230.9,269.4z M231.8,271.2c0,0.3,0.1,0.7,0.2,1
				c0.1,0.3,0.2,0.6,0.5,0.8c0.2,0.2,0.5,0.3,0.9,0.3s0.7-0.1,0.9-0.3c0.2-0.2,0.4-0.5,0.5-0.8c0.1-0.3,0.1-0.6,0.2-1
				c0-0.3,0-0.7,0-0.9c0-0.2,0-0.4,0-0.6s0-0.4-0.1-0.7s-0.1-0.4-0.1-0.6c-0.1-0.2-0.1-0.4-0.3-0.5c-0.1-0.2-0.3-0.3-0.4-0.4
				s-0.4-0.1-0.6-0.1c-0.2,0-0.5,0-0.6,0.1s-0.3,0.2-0.4,0.4s-0.2,0.3-0.3,0.5c-0.1,0.2-0.1,0.4-0.1,0.6c0,0.2,0,0.4-0.1,0.7
				s0,0.4,0,0.6C231.8,270.5,231.8,270.8,231.8,271.2z"/>
			<path class="st0" d="M238.2,272.7v1.2h-1.2v-1.2H238.2z"/>
			<path class="st0" d="M239.9,267.6c0.1-0.2,0.3-0.4,0.5-0.6c0.2-0.2,0.4-0.3,0.7-0.4c0.3-0.1,0.5-0.1,0.8-0.1c0.4,0,0.7,0.1,1,0.2
				c0.3,0.1,0.5,0.2,0.7,0.4c0.2,0.2,0.3,0.4,0.4,0.6s0.1,0.5,0.1,0.7c0,0.3-0.1,0.6-0.3,0.9s-0.4,0.5-0.7,0.6
				c0.4,0.1,0.8,0.4,1,0.7c0.2,0.3,0.3,0.7,0.3,1.2c0,0.4-0.1,0.7-0.2,1s-0.3,0.5-0.5,0.7c-0.2,0.2-0.5,0.3-0.8,0.4
				c-0.3,0.1-0.6,0.1-1,0.1c-0.4,0-0.7,0-1-0.1s-0.6-0.2-0.8-0.4s-0.4-0.4-0.5-0.7c-0.1-0.3-0.2-0.6-0.2-1c0-0.4,0.1-0.8,0.3-1.1
				c0.2-0.3,0.5-0.6,1-0.7c-0.3-0.1-0.6-0.3-0.7-0.6c-0.2-0.3-0.3-0.6-0.3-0.9C239.8,268.1,239.8,267.8,239.9,267.6z M240.9,272.8
				c0.3,0.3,0.7,0.4,1.1,0.4c0.2,0,0.4,0,0.6-0.1c0.2-0.1,0.3-0.2,0.5-0.3s0.2-0.3,0.3-0.5c0.1-0.2,0.1-0.4,0.1-0.6
				c0-0.2,0-0.4-0.1-0.6c-0.1-0.2-0.2-0.3-0.3-0.4c-0.1-0.1-0.3-0.2-0.5-0.3c-0.2-0.1-0.4-0.1-0.6-0.1c-0.2,0-0.4,0-0.6,0.1
				c-0.2,0.1-0.4,0.2-0.5,0.3c-0.1,0.1-0.3,0.3-0.3,0.4c-0.1,0.2-0.1,0.4-0.1,0.6C240.4,272.2,240.6,272.6,240.9,272.8z M240.8,269
				c0.1,0.1,0.2,0.3,0.3,0.4s0.3,0.2,0.4,0.2c0.2,0,0.3,0.1,0.5,0.1c0.4,0,0.6-0.1,0.9-0.3c0.2-0.2,0.3-0.5,0.3-0.9
				s-0.1-0.7-0.3-0.8c-0.2-0.2-0.5-0.3-0.9-0.3c-0.2,0-0.3,0-0.5,0.1c-0.2,0-0.3,0.1-0.4,0.2c-0.1,0.1-0.2,0.2-0.3,0.4
				c-0.1,0.1-0.1,0.3-0.1,0.5C240.7,268.6,240.7,268.8,240.8,269z"/>
		</g>
		<g>
			<path class="st0" d="M274.8,273.9v-5.3h-1.9v-0.7c0.2,0,0.5,0,0.7-0.1s0.4-0.1,0.6-0.2c0.2-0.1,0.4-0.2,0.5-0.4s0.2-0.4,0.3-0.7
				h0.7v7.3H274.8z"/>
			<path class="st0" d="M279.8,272.7v1.2h-1.2v-1.2H279.8z"/>
			<path class="st0" d="M281.1,269.4c0-0.3,0-0.6,0.1-0.8c0.1-0.3,0.1-0.5,0.2-0.8c0.1-0.2,0.2-0.5,0.4-0.7s0.4-0.3,0.7-0.4
				c0.3-0.1,0.6-0.2,1-0.2s0.7,0.1,1,0.2c0.3,0.1,0.5,0.3,0.7,0.4s0.3,0.4,0.4,0.7c0.1,0.2,0.2,0.5,0.2,0.8c0.1,0.3,0.1,0.6,0.1,0.8
				s0,0.6,0,0.8s0,0.5,0,0.8c0,0.3,0,0.6-0.1,0.8c-0.1,0.3-0.1,0.5-0.2,0.8c-0.1,0.2-0.2,0.5-0.4,0.6s-0.4,0.3-0.7,0.4
				c-0.3,0.1-0.6,0.2-1,0.2c-0.4,0-0.7-0.1-1-0.2c-0.3-0.1-0.5-0.3-0.7-0.4s-0.3-0.4-0.4-0.6c-0.1-0.2-0.2-0.5-0.2-0.8
				c-0.1-0.3-0.1-0.6-0.1-0.8c0-0.3,0-0.6,0-0.8S281.1,269.7,281.1,269.4z M282.1,271.2c0,0.3,0.1,0.7,0.2,1
				c0.1,0.3,0.2,0.6,0.5,0.8c0.2,0.2,0.5,0.3,0.9,0.3s0.7-0.1,0.9-0.3c0.2-0.2,0.4-0.5,0.5-0.8c0.1-0.3,0.1-0.6,0.2-1
				c0-0.3,0-0.7,0-0.9c0-0.2,0-0.4,0-0.6s0-0.4-0.1-0.7s-0.1-0.4-0.1-0.6c-0.1-0.2-0.1-0.4-0.3-0.5c-0.1-0.2-0.3-0.3-0.4-0.4
				s-0.4-0.1-0.6-0.1c-0.2,0-0.5,0-0.6,0.1s-0.3,0.2-0.4,0.4s-0.2,0.3-0.3,0.5c-0.1,0.2-0.1,0.4-0.1,0.6c0,0.2,0,0.4-0.1,0.7
				s0,0.4,0,0.6C282,270.5,282,270.8,282.1,271.2z"/>
		</g>
		<g>
			<path class="st0" d="M314.6,273.9v-5.3h-1.9v-0.7c0.2,0,0.5,0,0.7-0.1s0.4-0.1,0.6-0.2c0.2-0.1,0.4-0.2,0.5-0.4s0.2-0.4,0.3-0.7
				h0.7v7.3H314.6z"/>
			<path class="st0" d="M319.6,272.7v1.2h-1.2v-1.2H319.6z"/>
			<path class="st0" d="M321.5,268.1c0.1-0.3,0.2-0.6,0.5-0.8c0.2-0.2,0.5-0.4,0.8-0.5c0.3-0.1,0.6-0.2,1-0.2c0.3,0,0.6,0,0.9,0.1
				c0.3,0.1,0.5,0.2,0.7,0.4c0.2,0.2,0.4,0.4,0.5,0.7c0.1,0.3,0.2,0.6,0.2,0.9c0,0.3-0.1,0.6-0.2,0.9c-0.1,0.2-0.2,0.5-0.4,0.7
				c-0.2,0.2-0.4,0.4-0.6,0.5s-0.4,0.3-0.7,0.5c-0.2,0.1-0.5,0.3-0.7,0.4s-0.4,0.3-0.6,0.4c-0.2,0.2-0.4,0.3-0.5,0.5
				c-0.1,0.2-0.2,0.4-0.3,0.6h3.8v0.8h-4.8c0-0.4,0.1-0.8,0.2-1.1s0.3-0.6,0.5-0.8c0.2-0.2,0.4-0.4,0.6-0.6c0.2-0.2,0.5-0.3,0.7-0.5
				c0.3-0.2,0.6-0.4,0.8-0.5c0.2-0.2,0.4-0.3,0.6-0.5c0.2-0.2,0.3-0.3,0.4-0.5s0.1-0.4,0.1-0.7c0-0.2,0-0.4-0.1-0.5
				c-0.1-0.2-0.2-0.3-0.3-0.4c-0.1-0.1-0.3-0.2-0.5-0.3c-0.2-0.1-0.4-0.1-0.5-0.1c-0.3,0-0.5,0.1-0.7,0.2c-0.2,0.1-0.3,0.2-0.5,0.4
				c-0.1,0.2-0.2,0.4-0.3,0.6s-0.1,0.4-0.1,0.7h-0.9C321.4,268.8,321.4,268.4,321.5,268.1z"/>
		</g>
		<line class="st1" x1="70.9" y1="261.6" x2="321.3" y2="261.6"/>
		<g>
			<g>
				<line class="st1" x1="112.9" y1="261.6" x2="112.9" y2="256.4"/>
				<line class="st1" x1="154.5" y1="261.6" x2="154.5" y2="256.4"/>
				<line class="st1" x1="196.1" y1="261.6" x2="196.1" y2="256.4"/>
				<line class="st1" x1="237.6" y1="261.6" x2="237.6" y2="256.4"/>
				<line class="st1" x1="279.2" y1="261.6" x2="279.2" y2="256.4"/>
				<line class="st1" x1="320.8" y1="261.6" x2="320.8" y2="256.4"/>
			</g>
		</g>
		<g>
			<path class="st0" d="M51.9,218.4c0-0.3,0-0.6,0.1-0.8c0.1-0.3,0.1-0.5,0.2-0.8c0.1-0.2,0.2-0.5,0.4-0.7s0.4-0.3,0.7-0.4
				c0.3-0.1,0.6-0.2,1-0.2s0.7,0.1,1,0.2c0.3,0.1,0.5,0.3,0.7,0.4s0.3,0.4,0.4,0.7c0.1,0.2,0.2,0.5,0.2,0.8c0.1,0.3,0.1,0.6,0.1,0.8
				s0,0.6,0,0.8s0,0.5,0,0.8c0,0.3,0,0.6-0.1,0.8c-0.1,0.3-0.1,0.5-0.2,0.8c-0.1,0.2-0.2,0.5-0.4,0.6s-0.4,0.3-0.7,0.4
				c-0.3,0.1-0.6,0.2-1,0.2c-0.4,0-0.7-0.1-1-0.2c-0.3-0.1-0.5-0.3-0.7-0.4s-0.3-0.4-0.4-0.6c-0.1-0.2-0.2-0.5-0.2-0.8
				c-0.1-0.3-0.1-0.6-0.1-0.8c0-0.3,0-0.6,0-0.8S51.9,218.6,51.9,218.4z M52.8,220.1c0,0.3,0.1,0.7,0.2,1c0.1,0.3,0.2,0.6,0.5,0.8
				c0.2,0.2,0.5,0.3,0.9,0.3s0.7-0.1,0.9-0.3c0.2-0.2,0.4-0.5,0.5-0.8c0.1-0.3,0.1-0.6,0.2-1c0-0.3,0-0.7,0-0.9c0-0.2,0-0.4,0-0.6
				s0-0.4-0.1-0.7s-0.1-0.4-0.1-0.6c-0.1-0.2-0.1-0.4-0.3-0.5c-0.1-0.2-0.3-0.3-0.4-0.4s-0.4-0.1-0.6-0.1c-0.2,0-0.5,0-0.6,0.1
				s-0.3,0.2-0.4,0.4s-0.2,0.3-0.3,0.5c-0.1,0.2-0.1,0.4-0.1,0.6c0,0.2,0,0.4-0.1,0.7s0,0.4,0,0.6C52.8,219.5,52.8,219.8,52.8,220.1
				z"/>
			<path class="st0" d="M59.2,221.7v1.2h-1.2v-1.2H59.2z"/>
			<path class="st0" d="M61.2,217c0.1-0.3,0.2-0.6,0.5-0.8c0.2-0.2,0.5-0.4,0.8-0.5c0.3-0.1,0.6-0.2,1-0.2c0.3,0,0.6,0,0.9,0.1
				c0.3,0.1,0.5,0.2,0.7,0.4c0.2,0.2,0.4,0.4,0.5,0.7c0.1,0.3,0.2,0.6,0.2,0.9c0,0.3-0.1,0.6-0.2,0.9c-0.1,0.2-0.2,0.5-0.4,0.7
				c-0.2,0.2-0.4,0.4-0.6,0.5s-0.4,0.3-0.7,0.5c-0.2,0.1-0.5,0.3-0.7,0.4s-0.4,0.3-0.6,0.4c-0.2,0.2-0.4,0.3-0.5,0.5
				c-0.1,0.2-0.2,0.4-0.3,0.6h3.8v0.8h-4.8c0-0.4,0.1-0.8,0.2-1.1s0.3-0.6,0.5-0.8c0.2-0.2,0.4-0.4,0.6-0.6c0.2-0.2,0.5-0.3,0.7-0.5
				c0.3-0.2,0.6-0.4,0.8-0.5c0.2-0.2,0.4-0.3,0.6-0.5c0.2-0.2,0.3-0.3,0.4-0.5s0.1-0.4,0.1-0.7c0-0.2,0-0.4-0.1-0.5
				c-0.1-0.2-0.2-0.3-0.3-0.4c-0.1-0.1-0.3-0.2-0.5-0.3c-0.2-0.1-0.4-0.1-0.5-0.1c-0.3,0-0.5,0.1-0.7,0.2c-0.2,0.1-0.3,0.2-0.5,0.4
				c-0.1,0.2-0.2,0.4-0.3,0.6s-0.1,0.4-0.1,0.7h-0.9C61,217.7,61.1,217.3,61.2,217z"/>
		</g>
		<g>
			<path class="st0" d="M52.4,176.8c0-0.3,0-0.6,0.1-0.8c0.1-0.3,0.1-0.5,0.2-0.8c0.1-0.2,0.2-0.5,0.4-0.7s0.4-0.3,0.7-0.4
				c0.3-0.1,0.6-0.2,1-0.2s0.7,0.1,1,0.2c0.3,0.1,0.5,0.3,0.7,0.4s0.3,0.4,0.4,0.7c0.1,0.2,0.2,0.5,0.2,0.8c0.1,0.3,0.1,0.6,0.1,0.8
				s0,0.6,0,0.8s0,0.5,0,0.8c0,0.3,0,0.6-0.1,0.8c-0.1,0.3-0.1,0.5-0.2,0.8c-0.1,0.2-0.2,0.5-0.4,0.6s-0.4,0.3-0.7,0.4
				c-0.3,0.1-0.6,0.2-1,0.2c-0.4,0-0.7-0.1-1-0.2c-0.3-0.1-0.5-0.3-0.7-0.4s-0.3-0.4-0.4-0.6c-0.1-0.2-0.2-0.5-0.2-0.8
				c-0.1-0.3-0.1-0.6-0.1-0.8c0-0.3,0-0.6,0-0.8S52.4,177.1,52.4,176.8z M53.3,178.5c0,0.3,0.1,0.7,0.2,1c0.1,0.3,0.2,0.6,0.5,0.8
				c0.2,0.2,0.5,0.3,0.9,0.3s0.7-0.1,0.9-0.3c0.2-0.2,0.4-0.5,0.5-0.8c0.1-0.3,0.1-0.6,0.2-1c0-0.3,0-0.7,0-0.9c0-0.2,0-0.4,0-0.6
				s0-0.4-0.1-0.7s-0.1-0.4-0.1-0.6c-0.1-0.2-0.1-0.4-0.3-0.5c-0.1-0.2-0.3-0.3-0.4-0.4s-0.4-0.1-0.6-0.1c-0.2,0-0.5,0-0.6,0.1
				s-0.3,0.2-0.4,0.4s-0.2,0.3-0.3,0.5c-0.1,0.2-0.1,0.4-0.1,0.6c0,0.2,0,0.4-0.1,0.7s0,0.4,0,0.6C53.3,177.9,53.3,178.2,53.3,178.5
				z"/>
			<path class="st0" d="M59.7,180.1v1.2h-1.2v-1.2H59.7z"/>
			<path class="st0" d="M65.9,178.7v0.8h-1v1.7h-0.8v-1.7h-3.2v-0.9l3.3-4.8h0.7v4.9H65.9z M64.1,175.1L64.1,175.1l-2.5,3.6h2.5
				V175.1z"/>
		</g>
		<g>
			<path class="st0" d="M52.4,136.1c0-0.3,0-0.6,0.1-0.9c0.1-0.3,0.1-0.5,0.2-0.8c0.1-0.2,0.2-0.5,0.4-0.7s0.4-0.3,0.7-0.4
				c0.3-0.1,0.6-0.2,1-0.2s0.7,0.1,1,0.2c0.3,0.1,0.5,0.3,0.7,0.4s0.3,0.4,0.4,0.7c0.1,0.2,0.2,0.5,0.2,0.8c0.1,0.3,0.1,0.6,0.1,0.9
				c0,0.3,0,0.6,0,0.8s0,0.5,0,0.8c0,0.3,0,0.6-0.1,0.9c-0.1,0.3-0.1,0.5-0.2,0.8c-0.1,0.2-0.2,0.5-0.4,0.6s-0.4,0.3-0.7,0.4
				c-0.3,0.1-0.6,0.2-1,0.2c-0.4,0-0.7-0.1-1-0.2c-0.3-0.1-0.5-0.3-0.7-0.4s-0.3-0.4-0.4-0.6c-0.1-0.2-0.2-0.5-0.2-0.8
				c-0.1-0.3-0.1-0.6-0.1-0.9c0-0.3,0-0.6,0-0.8S52.4,136.4,52.4,136.1z M53.3,137.8c0,0.3,0.1,0.7,0.2,1s0.2,0.6,0.5,0.8
				c0.2,0.2,0.5,0.3,0.9,0.3s0.7-0.1,0.9-0.3c0.2-0.2,0.4-0.5,0.5-0.8s0.1-0.6,0.2-1c0-0.3,0-0.7,0-0.9c0-0.2,0-0.4,0-0.6
				s0-0.4-0.1-0.7s-0.1-0.4-0.1-0.6c-0.1-0.2-0.1-0.4-0.3-0.5c-0.1-0.2-0.3-0.3-0.4-0.4s-0.4-0.1-0.6-0.1c-0.2,0-0.5,0-0.6,0.1
				s-0.3,0.2-0.4,0.4s-0.2,0.3-0.3,0.5c-0.1,0.2-0.1,0.4-0.1,0.6c0,0.2,0,0.4-0.1,0.7s0,0.4,0,0.6C53.3,137.2,53.3,137.5,53.3,137.8
				z"/>
			<path class="st0" d="M59.7,139.4v1.2h-1.2v-1.2H59.7z"/>
			<path class="st0" d="M64.5,134.2c-0.2-0.2-0.5-0.3-0.9-0.3c-0.4,0-0.7,0.1-0.9,0.3c-0.2,0.2-0.4,0.4-0.5,0.7
				c-0.1,0.3-0.2,0.6-0.3,0.9c0,0.3-0.1,0.6-0.1,0.9l0,0c0.2-0.3,0.5-0.6,0.8-0.7c0.3-0.2,0.7-0.2,1.1-0.2c0.4,0,0.7,0.1,0.9,0.2
				c0.3,0.1,0.5,0.3,0.7,0.5c0.2,0.2,0.3,0.5,0.4,0.8c0.1,0.3,0.2,0.6,0.2,0.9c0,0.3,0,0.5-0.1,0.8c-0.1,0.3-0.2,0.6-0.4,0.8
				c-0.2,0.2-0.4,0.4-0.8,0.6c-0.3,0.2-0.7,0.2-1.2,0.2c-0.5,0-1-0.1-1.3-0.3c-0.3-0.2-0.6-0.5-0.8-0.9c-0.2-0.3-0.3-0.7-0.4-1.1
				s-0.1-0.8-0.1-1.2c0-0.5,0-1,0.1-1.5c0.1-0.5,0.2-0.9,0.4-1.3c0.2-0.4,0.5-0.7,0.8-0.9c0.3-0.2,0.8-0.3,1.3-0.3
				c0.6,0,1.1,0.2,1.5,0.5s0.6,0.8,0.6,1.4h-0.9C64.8,134.7,64.7,134.4,64.5,134.2z M62.9,136.7c-0.2,0.1-0.3,0.2-0.5,0.4
				c-0.1,0.1-0.2,0.3-0.3,0.5c-0.1,0.2-0.1,0.4-0.1,0.6s0,0.4,0.1,0.6c0.1,0.2,0.2,0.4,0.3,0.5s0.3,0.3,0.5,0.3s0.4,0.1,0.6,0.1
				c0.2,0,0.5,0,0.6-0.1c0.2-0.1,0.3-0.2,0.5-0.4c0.1-0.2,0.2-0.3,0.3-0.5c0.1-0.2,0.1-0.4,0.1-0.6c0-0.2,0-0.4-0.1-0.6
				c-0.1-0.2-0.1-0.4-0.3-0.5c-0.1-0.1-0.3-0.3-0.5-0.4c-0.2-0.1-0.4-0.1-0.7-0.1C63.3,136.6,63.1,136.6,62.9,136.7z"/>
		</g>
		<g>
			<path class="st0" d="M52.4,94.5c0-0.3,0-0.6,0.1-0.9c0.1-0.3,0.1-0.5,0.2-0.8c0.1-0.2,0.2-0.5,0.4-0.7s0.4-0.3,0.7-0.4
				c0.3-0.1,0.6-0.2,1-0.2s0.7,0.1,1,0.2c0.3,0.1,0.5,0.3,0.7,0.4s0.3,0.4,0.4,0.7c0.1,0.2,0.2,0.5,0.2,0.8c0.1,0.3,0.1,0.6,0.1,0.9
				c0,0.3,0,0.6,0,0.8s0,0.5,0,0.8c0,0.3,0,0.6-0.1,0.9c-0.1,0.3-0.1,0.5-0.2,0.8c-0.1,0.2-0.2,0.5-0.4,0.6s-0.4,0.3-0.7,0.4
				c-0.3,0.1-0.6,0.2-1,0.2c-0.4,0-0.7-0.1-1-0.2c-0.3-0.1-0.5-0.3-0.7-0.4s-0.3-0.4-0.4-0.6c-0.1-0.2-0.2-0.5-0.2-0.8
				c-0.1-0.3-0.1-0.6-0.1-0.9c0-0.3,0-0.6,0-0.8S52.4,94.8,52.4,94.5z M53.3,96.2c0,0.3,0.1,0.7,0.2,1s0.2,0.6,0.5,0.8
				c0.2,0.2,0.5,0.3,0.9,0.3s0.7-0.1,0.9-0.3c0.2-0.2,0.4-0.5,0.5-0.8s0.1-0.6,0.2-1c0-0.3,0-0.7,0-0.9c0-0.2,0-0.4,0-0.6
				s0-0.4-0.1-0.7s-0.1-0.4-0.1-0.6c-0.1-0.2-0.1-0.4-0.3-0.5c-0.1-0.2-0.3-0.3-0.4-0.4s-0.4-0.1-0.6-0.1c-0.2,0-0.5,0-0.6,0.1
				s-0.3,0.2-0.4,0.4s-0.2,0.3-0.3,0.5c-0.1,0.2-0.1,0.4-0.1,0.6c0,0.2,0,0.4-0.1,0.7s0,0.4,0,0.6C53.3,95.6,53.3,95.9,53.3,96.2z"
				/>
			<path class="st0" d="M59.7,97.8v1.2h-1.2v-1.2H59.7z"/>
			<path class="st0" d="M61.4,92.7c0.1-0.2,0.3-0.4,0.5-0.6c0.2-0.2,0.4-0.3,0.7-0.4c0.3-0.1,0.5-0.1,0.8-0.1c0.4,0,0.7,0.1,1,0.2
				c0.3,0.1,0.5,0.2,0.7,0.4s0.3,0.4,0.4,0.6c0.1,0.2,0.1,0.5,0.1,0.7c0,0.3-0.1,0.6-0.3,0.9S65,94.8,64.6,95c0.4,0.1,0.8,0.4,1,0.7
				c0.2,0.3,0.3,0.7,0.3,1.2c0,0.4-0.1,0.7-0.2,1s-0.3,0.5-0.5,0.7c-0.2,0.2-0.5,0.3-0.8,0.4c-0.3,0.1-0.6,0.1-1,0.1
				c-0.4,0-0.7,0-1-0.1c-0.3-0.1-0.6-0.2-0.8-0.4s-0.4-0.4-0.5-0.7s-0.2-0.6-0.2-1c0-0.4,0.1-0.8,0.3-1.1c0.2-0.3,0.5-0.6,1-0.7
				c-0.3-0.1-0.6-0.3-0.7-0.6s-0.3-0.6-0.3-0.9C61.3,93.2,61.3,92.9,61.4,92.7z M62.4,97.9c0.3,0.3,0.7,0.4,1.1,0.4
				c0.2,0,0.4,0,0.6-0.1c0.2-0.1,0.3-0.2,0.5-0.3s0.2-0.3,0.3-0.5c0.1-0.2,0.1-0.4,0.1-0.6c0-0.2,0-0.4-0.1-0.6s-0.2-0.3-0.3-0.4
				c-0.1-0.1-0.3-0.2-0.5-0.3c-0.2-0.1-0.4-0.1-0.6-0.1c-0.2,0-0.4,0-0.6,0.1c-0.2,0.1-0.4,0.2-0.5,0.3c-0.1,0.1-0.3,0.3-0.3,0.4
				s-0.1,0.4-0.1,0.6C61.9,97.3,62.1,97.7,62.4,97.9z M62.3,94c0.1,0.1,0.2,0.3,0.3,0.4s0.3,0.2,0.4,0.2c0.2,0,0.3,0.1,0.5,0.1
				c0.4,0,0.6-0.1,0.9-0.3c0.2-0.2,0.3-0.5,0.3-0.9s-0.1-0.7-0.3-0.8c-0.2-0.2-0.5-0.3-0.9-0.3c-0.2,0-0.3,0-0.5,0.1
				c-0.2,0-0.3,0.1-0.4,0.2c-0.1,0.1-0.2,0.2-0.3,0.4c-0.1,0.1-0.1,0.3-0.1,0.5C62.2,93.7,62.2,93.9,62.3,94z"/>
		</g>
		<g>
			<path class="st0" d="M54.8,57.4v-5.3h-1.9v-0.7c0.2,0,0.5,0,0.7-0.1c0.2,0,0.4-0.1,0.6-0.2c0.2-0.1,0.4-0.2,0.5-0.4
				s0.2-0.4,0.3-0.7h0.7v7.3H54.8z"/>
			<path class="st0" d="M59.7,56.2v1.2h-1.2v-1.2H59.7z"/>
			<path class="st0" d="M61.1,52.9c0-0.3,0-0.6,0.1-0.9c0.1-0.3,0.1-0.5,0.2-0.8c0.1-0.2,0.2-0.5,0.4-0.7s0.4-0.3,0.7-0.4
				c0.3-0.1,0.6-0.2,1-0.2s0.7,0.1,1,0.2c0.3,0.1,0.5,0.3,0.7,0.4s0.3,0.4,0.4,0.7c0.1,0.2,0.2,0.5,0.2,0.8c0.1,0.3,0.1,0.6,0.1,0.9
				c0,0.3,0,0.6,0,0.8s0,0.5,0,0.8c0,0.3,0,0.6-0.1,0.9c-0.1,0.3-0.1,0.5-0.2,0.8c-0.1,0.2-0.2,0.5-0.4,0.6s-0.4,0.3-0.7,0.4
				c-0.3,0.1-0.6,0.2-1,0.2c-0.4,0-0.7-0.1-1-0.2c-0.3-0.1-0.5-0.3-0.7-0.4s-0.3-0.4-0.4-0.6c-0.1-0.2-0.2-0.5-0.2-0.8
				c-0.1-0.3-0.1-0.6-0.1-0.9c0-0.3,0-0.6,0-0.8S61,53.2,61.1,52.9z M62,54.7c0,0.3,0.1,0.7,0.2,1s0.2,0.6,0.5,0.8
				c0.2,0.2,0.5,0.3,0.9,0.3s0.7-0.1,0.9-0.3c0.2-0.2,0.4-0.5,0.5-0.8s0.1-0.6,0.2-1c0-0.3,0-0.7,0-0.9c0-0.2,0-0.4,0-0.6
				s0-0.4-0.1-0.7s-0.1-0.4-0.1-0.6c-0.1-0.2-0.1-0.4-0.3-0.5c-0.1-0.2-0.3-0.3-0.4-0.4s-0.4-0.1-0.6-0.1c-0.2,0-0.5,0-0.6,0.1
				s-0.3,0.2-0.4,0.4s-0.2,0.3-0.3,0.5c-0.1,0.2-0.1,0.4-0.1,0.6c0,0.2,0,0.4-0.1,0.7s0,0.4,0,0.6C62,54,62,54.3,62,54.7z"/>
		</g>
		<line class="st1" x1="71.3" y1="261.6" x2="71.3" y2="53.2"/>
		<g>
			<g>
				<line class="st1" x1="71.3" y1="220" x2="76.5" y2="220"/>
				<line class="st1" x1="71.3" y1="178.4" x2="76.5" y2="178.4"/>
				<line class="st1" x1="71.3" y1="136.9" x2="76.5" y2="136.9"/>
				<line class="st1" x1="71.3" y1="95.3" x2="76.5" y2="95.3"/>
				<line class="st1" x1="71.3" y1="53.7" x2="76.5" y2="53.7"/>
			</g>
		</g>
	</g>
	<g>
		<g>
			<path class="st0" d="M412.7,269.2c0-0.3,0-0.6,0.1-0.8s0.1-0.5,0.2-0.8c0.1-0.2,0.2-0.5,0.4-0.7c0.2-0.2,0.4-0.3,0.7-0.4
				c0.3-0.1,0.6-0.2,1-0.2s0.7,0.1,1,0.2c0.3,0.1,0.5,0.3,0.7,0.4s0.3,0.4,0.4,0.7s0.2,0.5,0.2,0.8c0.1,0.3,0.1,0.6,0.1,0.8
				s0,0.6,0,0.8s0,0.5,0,0.8c0,0.3,0,0.6-0.1,0.8c-0.1,0.3-0.1,0.5-0.2,0.8s-0.2,0.5-0.4,0.6s-0.4,0.3-0.7,0.4
				c-0.3,0.1-0.6,0.2-1,0.2c-0.4,0-0.7-0.1-1-0.2c-0.3-0.1-0.5-0.3-0.7-0.4c-0.2-0.2-0.3-0.4-0.4-0.6c-0.1-0.2-0.2-0.5-0.2-0.8
				s-0.1-0.6-0.1-0.8c0-0.3,0-0.6,0-0.8S412.7,269.5,412.7,269.2z M413.6,271c0,0.3,0.1,0.7,0.2,1c0.1,0.3,0.2,0.6,0.5,0.8
				c0.2,0.2,0.5,0.3,0.9,0.3s0.7-0.1,0.9-0.3c0.2-0.2,0.4-0.5,0.5-0.8c0.1-0.3,0.1-0.6,0.2-1c0-0.3,0-0.7,0-0.9c0-0.2,0-0.4,0-0.6
				c0-0.2,0-0.4-0.1-0.7c0-0.2-0.1-0.4-0.1-0.6c-0.1-0.2-0.1-0.4-0.3-0.5s-0.3-0.3-0.4-0.4c-0.2-0.1-0.4-0.1-0.6-0.1s-0.5,0-0.6,0.1
				c-0.2,0.1-0.3,0.2-0.4,0.4s-0.2,0.3-0.3,0.5c-0.1,0.2-0.1,0.4-0.1,0.6c0,0.2,0,0.4-0.1,0.7c0,0.2,0,0.4,0,0.6
				C413.6,270.3,413.6,270.7,413.6,271z"/>
		</g>
		<g>
			<path class="st0" d="M458.1,269.4c0-0.3,0-0.6,0.1-0.8s0.1-0.5,0.2-0.8c0.1-0.2,0.2-0.5,0.4-0.7c0.2-0.2,0.4-0.3,0.7-0.4
				c0.3-0.1,0.6-0.2,1-0.2s0.7,0.1,1,0.2c0.3,0.1,0.5,0.3,0.7,0.4s0.3,0.4,0.4,0.7s0.2,0.5,0.2,0.8c0.1,0.3,0.1,0.6,0.1,0.8
				s0,0.6,0,0.8s0,0.5,0,0.8c0,0.3,0,0.6-0.1,0.8c-0.1,0.3-0.1,0.5-0.2,0.8s-0.2,0.5-0.4,0.6s-0.4,0.3-0.7,0.4
				c-0.3,0.1-0.6,0.2-1,0.2c-0.4,0-0.7-0.1-1-0.2c-0.3-0.1-0.5-0.3-0.7-0.4c-0.2-0.2-0.3-0.4-0.4-0.6c-0.1-0.2-0.2-0.5-0.2-0.8
				s-0.1-0.6-0.1-0.8c0-0.3,0-0.6,0-0.8S458.1,269.7,458.1,269.4z M459.1,271.2c0,0.3,0.1,0.7,0.2,1c0.1,0.3,0.2,0.6,0.5,0.8
				c0.2,0.2,0.5,0.3,0.9,0.3s0.7-0.1,0.9-0.3c0.2-0.2,0.4-0.5,0.5-0.8c0.1-0.3,0.1-0.6,0.2-1c0-0.3,0-0.7,0-0.9c0-0.2,0-0.4,0-0.6
				c0-0.2,0-0.4-0.1-0.7c0-0.2-0.1-0.4-0.1-0.6c-0.1-0.2-0.1-0.4-0.3-0.5s-0.3-0.3-0.4-0.4c-0.2-0.1-0.4-0.1-0.6-0.1s-0.5,0-0.6,0.1
				c-0.2,0.1-0.3,0.2-0.4,0.4s-0.2,0.3-0.3,0.5c-0.1,0.2-0.1,0.4-0.1,0.6c0,0.2,0,0.4-0.1,0.7c0,0.2,0,0.4,0,0.6
				C459,270.5,459.1,270.8,459.1,271.2z"/>
			<path class="st0" d="M465.5,272.7v1.2h-1.2v-1.2H465.5z"/>
			<path class="st0" d="M467.4,268.1c0.1-0.3,0.2-0.6,0.5-0.8c0.2-0.2,0.5-0.4,0.8-0.5c0.3-0.1,0.6-0.2,1-0.2c0.3,0,0.6,0,0.9,0.1
				c0.3,0.1,0.5,0.2,0.7,0.4c0.2,0.2,0.4,0.4,0.5,0.7s0.2,0.6,0.2,0.9c0,0.3,0,0.6-0.2,0.9c-0.1,0.2-0.2,0.5-0.4,0.7
				s-0.4,0.4-0.6,0.5c-0.2,0.2-0.4,0.3-0.7,0.5c-0.2,0.1-0.5,0.3-0.7,0.4c-0.2,0.1-0.4,0.3-0.6,0.4c-0.2,0.2-0.4,0.3-0.5,0.5
				c-0.1,0.2-0.2,0.4-0.3,0.6h3.8v0.8h-4.8c0-0.4,0.1-0.8,0.2-1.1c0.1-0.3,0.3-0.6,0.5-0.8c0.2-0.2,0.4-0.4,0.6-0.6
				c0.2-0.2,0.5-0.3,0.7-0.5c0.3-0.2,0.6-0.4,0.8-0.5c0.2-0.2,0.4-0.3,0.6-0.5c0.2-0.2,0.3-0.3,0.4-0.5c0.1-0.2,0.1-0.4,0.1-0.7
				c0-0.2,0-0.4-0.1-0.5c-0.1-0.2-0.2-0.3-0.3-0.4c-0.1-0.1-0.3-0.2-0.5-0.3c-0.2-0.1-0.4-0.1-0.5-0.1c-0.3,0-0.5,0.1-0.7,0.2
				c-0.2,0.1-0.3,0.2-0.5,0.4c-0.1,0.2-0.2,0.4-0.3,0.6s-0.1,0.4-0.1,0.7h-0.9C467.3,268.8,467.3,268.4,467.4,268.1z"/>
		</g>
		<g>
			<path class="st0" d="M500,269.4c0-0.3,0-0.6,0.1-0.8s0.1-0.5,0.2-0.8c0.1-0.2,0.2-0.5,0.4-0.7c0.2-0.2,0.4-0.3,0.7-0.4
				c0.3-0.1,0.6-0.2,1-0.2s0.7,0.1,1,0.2c0.3,0.1,0.5,0.3,0.7,0.4s0.3,0.4,0.4,0.7s0.2,0.5,0.2,0.8c0.1,0.3,0.1,0.6,0.1,0.8
				s0,0.6,0,0.8s0,0.5,0,0.8c0,0.3,0,0.6-0.1,0.8c-0.1,0.3-0.1,0.5-0.2,0.8s-0.2,0.5-0.4,0.6s-0.4,0.3-0.7,0.4
				c-0.3,0.1-0.6,0.2-1,0.2c-0.4,0-0.7-0.1-1-0.2c-0.3-0.1-0.5-0.3-0.7-0.4c-0.2-0.2-0.3-0.4-0.4-0.6c-0.1-0.2-0.2-0.5-0.2-0.8
				s-0.1-0.6-0.1-0.8c0-0.3,0-0.6,0-0.8S500,269.7,500,269.4z M500.9,271.2c0,0.3,0.1,0.7,0.2,1c0.1,0.3,0.2,0.6,0.5,0.8
				c0.2,0.2,0.5,0.3,0.9,0.3s0.7-0.1,0.9-0.3c0.2-0.2,0.4-0.5,0.5-0.8c0.1-0.3,0.1-0.6,0.2-1c0-0.3,0-0.7,0-0.9c0-0.2,0-0.4,0-0.6
				c0-0.2,0-0.4-0.1-0.7c0-0.2-0.1-0.4-0.1-0.6c-0.1-0.2-0.1-0.4-0.3-0.5s-0.3-0.3-0.4-0.4c-0.2-0.1-0.4-0.1-0.6-0.1s-0.5,0-0.6,0.1
				c-0.2,0.1-0.3,0.2-0.4,0.4s-0.2,0.3-0.3,0.5c-0.1,0.2-0.1,0.4-0.1,0.6c0,0.2,0,0.4-0.1,0.7c0,0.2,0,0.4,0,0.6
				C500.9,270.5,500.9,270.8,500.9,271.2z"/>
			<path class="st0" d="M507.3,272.7v1.2h-1.2v-1.2H507.3z"/>
			<path class="st0" d="M513.5,271.4v0.8h-1v1.7h-0.8v-1.7h-3.2v-0.9l3.3-4.8h0.7v4.9H513.5z M511.7,267.8L511.7,267.8l-2.5,3.6h2.5
				V267.8z"/>
		</g>
		<g>
			<path class="st0" d="M541.5,269.4c0-0.3,0-0.6,0.1-0.8s0.1-0.5,0.2-0.8c0.1-0.2,0.2-0.5,0.4-0.7c0.2-0.2,0.4-0.3,0.7-0.4
				c0.3-0.1,0.6-0.2,1-0.2s0.7,0.1,1,0.2c0.3,0.1,0.5,0.3,0.7,0.4s0.3,0.4,0.4,0.7s0.2,0.5,0.2,0.8c0.1,0.3,0.1,0.6,0.1,0.8
				s0,0.6,0,0.8s0,0.5,0,0.8c0,0.3,0,0.6-0.1,0.8c-0.1,0.3-0.1,0.5-0.2,0.8s-0.2,0.5-0.4,0.6s-0.4,0.3-0.7,0.4
				c-0.3,0.1-0.6,0.2-1,0.2c-0.4,0-0.7-0.1-1-0.2c-0.3-0.1-0.5-0.3-0.7-0.4c-0.2-0.2-0.3-0.4-0.4-0.6c-0.1-0.2-0.2-0.5-0.2-0.8
				s-0.1-0.6-0.1-0.8c0-0.3,0-0.6,0-0.8S541.5,269.7,541.5,269.4z M542.5,271.2c0,0.3,0.1,0.7,0.2,1c0.1,0.3,0.2,0.6,0.5,0.8
				c0.2,0.2,0.5,0.3,0.9,0.3s0.7-0.1,0.9-0.3c0.2-0.2,0.4-0.5,0.5-0.8c0.1-0.3,0.1-0.6,0.2-1c0-0.3,0-0.7,0-0.9c0-0.2,0-0.4,0-0.6
				c0-0.2,0-0.4-0.1-0.7c0-0.2-0.1-0.4-0.1-0.6c-0.1-0.2-0.1-0.4-0.3-0.5s-0.3-0.3-0.4-0.4c-0.2-0.1-0.4-0.1-0.6-0.1s-0.5,0-0.6,0.1
				c-0.2,0.1-0.3,0.2-0.4,0.4s-0.2,0.3-0.3,0.5c-0.1,0.2-0.1,0.4-0.1,0.6c0,0.2,0,0.4-0.1,0.7c0,0.2,0,0.4,0,0.6
				C542.5,270.5,542.5,270.8,542.5,271.2z"/>
			<path class="st0" d="M548.9,272.7v1.2h-1.2v-1.2H548.9z"/>
			<path class="st0" d="M553.6,267.6c-0.2-0.2-0.5-0.3-0.8-0.3c-0.4,0-0.7,0.1-0.9,0.3c-0.2,0.2-0.4,0.4-0.5,0.7
				c-0.1,0.3-0.2,0.6-0.3,0.9c0,0.3-0.1,0.6-0.1,0.9l0,0c0.2-0.3,0.5-0.6,0.8-0.7s0.7-0.2,1.1-0.2c0.4,0,0.7,0.1,0.9,0.2
				c0.3,0.1,0.5,0.3,0.7,0.5s0.3,0.5,0.4,0.8s0.2,0.6,0.2,0.9c0,0.3,0,0.5-0.1,0.8s-0.2,0.6-0.4,0.8c-0.2,0.2-0.4,0.4-0.8,0.6
				s-0.7,0.2-1.2,0.2c-0.5,0-1-0.1-1.3-0.3c-0.3-0.2-0.6-0.5-0.8-0.8s-0.3-0.7-0.4-1.1c-0.1-0.4-0.1-0.8-0.1-1.2c0-0.5,0-1,0.1-1.5
				c0.1-0.5,0.2-0.9,0.4-1.3c0.2-0.4,0.5-0.7,0.8-0.9c0.3-0.2,0.8-0.3,1.3-0.3c0.6,0,1.1,0.2,1.5,0.5s0.6,0.8,0.6,1.4H554
				C554,268.1,553.9,267.8,553.6,267.6z M552,270.1c-0.2,0.1-0.3,0.2-0.5,0.4c-0.1,0.1-0.2,0.3-0.3,0.5c-0.1,0.2-0.1,0.4-0.1,0.6
				s0,0.4,0.1,0.6c0.1,0.2,0.2,0.4,0.3,0.5s0.3,0.3,0.5,0.3c0.2,0.1,0.4,0.1,0.6,0.1s0.5,0,0.6-0.1c0.2-0.1,0.3-0.2,0.5-0.4
				c0.1-0.2,0.2-0.3,0.3-0.5c0.1-0.2,0.1-0.4,0.1-0.6c0-0.2,0-0.4-0.1-0.6c-0.1-0.2-0.2-0.4-0.3-0.5c-0.1-0.1-0.3-0.3-0.5-0.4
				s-0.4-0.1-0.7-0.1S552.2,270,552,270.1z"/>
		</g>
		<g>
			<path class="st0" d="M583.1,269.4c0-0.3,0-0.6,0.1-0.8s0.1-0.5,0.2-0.8c0.1-0.2,0.2-0.5,0.4-0.7c0.2-0.2,0.4-0.3,0.7-0.4
				c0.3-0.1,0.6-0.2,1-0.2s0.7,0.1,1,0.2c0.3,0.1,0.5,0.3,0.7,0.4s0.3,0.4,0.4,0.7s0.2,0.5,0.2,0.8c0.1,0.3,0.1,0.6,0.1,0.8
				s0,0.6,0,0.8s0,0.5,0,0.8c0,0.3,0,0.6-0.1,0.8c-0.1,0.3-0.1,0.5-0.2,0.8s-0.2,0.5-0.4,0.6s-0.4,0.3-0.7,0.4
				c-0.3,0.1-0.6,0.2-1,0.2c-0.4,0-0.7-0.1-1-0.2c-0.3-0.1-0.5-0.3-0.7-0.4c-0.2-0.2-0.3-0.4-0.4-0.6c-0.1-0.2-0.2-0.5-0.2-0.8
				s-0.1-0.6-0.1-0.8c0-0.3,0-0.6,0-0.8S583.1,269.7,583.1,269.4z M584.1,271.2c0,0.3,0.1,0.7,0.2,1c0.1,0.3,0.2,0.6,0.5,0.8
				c0.2,0.2,0.5,0.3,0.9,0.3s0.7-0.1,0.9-0.3c0.2-0.2,0.4-0.5,0.5-0.8c0.1-0.3,0.1-0.6,0.2-1c0-0.3,0-0.7,0-0.9c0-0.2,0-0.4,0-0.6
				c0-0.2,0-0.4-0.1-0.7c0-0.2-0.1-0.4-0.1-0.6c-0.1-0.2-0.1-0.4-0.3-0.5s-0.3-0.3-0.4-0.4c-0.2-0.1-0.4-0.1-0.6-0.1s-0.5,0-0.6,0.1
				c-0.2,0.1-0.3,0.2-0.4,0.4s-0.2,0.3-0.3,0.5c-0.1,0.2-0.1,0.4-0.1,0.6c0,0.2,0,0.4-0.1,0.7c0,0.2,0,0.4,0,0.6
				C584,270.5,584,270.8,584.1,271.2z"/>
			<path class="st0" d="M590.4,272.7v1.2h-1.2v-1.2H590.4z"/>
			<path class="st0" d="M592.2,267.6c0.1-0.2,0.3-0.4,0.5-0.6c0.2-0.2,0.4-0.3,0.7-0.4c0.3-0.1,0.5-0.1,0.8-0.1c0.4,0,0.7,0.1,1,0.2
				c0.3,0.1,0.5,0.2,0.7,0.4c0.2,0.2,0.3,0.4,0.4,0.6s0.1,0.5,0.1,0.7c0,0.3-0.1,0.6-0.3,0.9c-0.2,0.3-0.4,0.5-0.7,0.6
				c0.4,0.1,0.8,0.4,1,0.7c0.2,0.3,0.3,0.7,0.3,1.2c0,0.4-0.1,0.7-0.2,1s-0.3,0.5-0.5,0.7c-0.2,0.2-0.5,0.3-0.8,0.4
				c-0.3,0.1-0.6,0.1-1,0.1c-0.4,0-0.7,0-1-0.1c-0.3-0.1-0.6-0.2-0.8-0.4s-0.4-0.4-0.5-0.7c-0.1-0.3-0.2-0.6-0.2-1
				c0-0.4,0.1-0.8,0.3-1.1c0.2-0.3,0.5-0.6,1-0.7c-0.3-0.1-0.6-0.3-0.7-0.6c-0.2-0.3-0.3-0.6-0.3-0.9
				C592,268.1,592,267.8,592.2,267.6z M593.1,272.8c0.3,0.3,0.7,0.4,1.1,0.4c0.2,0,0.4,0,0.6-0.1c0.2-0.1,0.3-0.2,0.5-0.3
				s0.2-0.3,0.3-0.5c0.1-0.2,0.1-0.4,0.1-0.6c0-0.2,0-0.4-0.1-0.6c-0.1-0.2-0.2-0.3-0.3-0.4c-0.1-0.1-0.3-0.2-0.5-0.3
				c-0.2-0.1-0.4-0.1-0.6-0.1c-0.2,0-0.4,0-0.6,0.1c-0.2,0.1-0.4,0.2-0.5,0.3s-0.3,0.3-0.3,0.4c-0.1,0.2-0.1,0.4-0.1,0.6
				C592.7,272.2,592.8,272.6,593.1,272.8z M593,269c0.1,0.1,0.2,0.3,0.3,0.4s0.3,0.2,0.4,0.2c0.2,0,0.3,0.1,0.5,0.1
				c0.4,0,0.6-0.1,0.9-0.3c0.2-0.2,0.3-0.5,0.3-0.9s-0.1-0.7-0.3-0.8s-0.5-0.3-0.9-0.3c-0.2,0-0.3,0-0.5,0.1c-0.2,0-0.3,0.1-0.4,0.2
				s-0.2,0.2-0.3,0.4c-0.1,0.1-0.1,0.3-0.1,0.5C592.9,268.6,593,268.8,593,269z"/>
		</g>
		<g>
			<path class="st0" d="M627.1,273.9v-5.3h-1.9v-0.7c0.2,0,0.5,0,0.7-0.1c0.2,0,0.4-0.1,0.6-0.2c0.2-0.1,0.4-0.2,0.5-0.4
				s0.2-0.4,0.3-0.7h0.7v7.3H627.1z"/>
			<path class="st0" d="M632,272.7v1.2h-1.2v-1.2H632z"/>
			<path class="st0" d="M633.3,269.4c0-0.3,0-0.6,0.1-0.8s0.1-0.5,0.2-0.8c0.1-0.2,0.2-0.5,0.4-0.7c0.2-0.2,0.4-0.3,0.7-0.4
				c0.3-0.1,0.6-0.2,1-0.2s0.7,0.1,1,0.2c0.3,0.1,0.5,0.3,0.7,0.4s0.3,0.4,0.4,0.7s0.2,0.5,0.2,0.8c0.1,0.3,0.1,0.6,0.1,0.8
				s0,0.6,0,0.8s0,0.5,0,0.8c0,0.3,0,0.6-0.1,0.8c-0.1,0.3-0.1,0.5-0.2,0.8s-0.2,0.5-0.4,0.6s-0.4,0.3-0.7,0.4
				c-0.3,0.1-0.6,0.2-1,0.2c-0.4,0-0.7-0.1-1-0.2c-0.3-0.1-0.5-0.3-0.7-0.4c-0.2-0.2-0.3-0.4-0.4-0.6c-0.1-0.2-0.2-0.5-0.2-0.8
				s-0.1-0.6-0.1-0.8c0-0.3,0-0.6,0-0.8S633.3,269.7,633.3,269.4z M634.3,271.2c0,0.3,0.1,0.7,0.2,1c0.1,0.3,0.2,0.6,0.5,0.8
				c0.2,0.2,0.5,0.3,0.9,0.3s0.7-0.1,0.9-0.3c0.2-0.2,0.4-0.5,0.5-0.8c0.1-0.3,0.1-0.6,0.2-1c0-0.3,0-0.7,0-0.9c0-0.2,0-0.4,0-0.6
				c0-0.2,0-0.4-0.1-0.7c0-0.2-0.1-0.4-0.1-0.6c-0.1-0.2-0.1-0.4-0.3-0.5s-0.3-0.3-0.4-0.4c-0.2-0.1-0.4-0.1-0.6-0.1s-0.5,0-0.6,0.1
				c-0.2,0.1-0.3,0.2-0.4,0.4s-0.2,0.3-0.3,0.5c-0.1,0.2-0.1,0.4-0.1,0.6c0,0.2,0,0.4-0.1,0.7c0,0.2,0,0.4,0,0.6
				C634.3,270.5,634.3,270.8,634.3,271.2z"/>
		</g>
		<g>
			<path class="st0" d="M666.8,273.9v-5.3h-1.9v-0.7c0.2,0,0.5,0,0.7-0.1c0.2,0,0.4-0.1,0.6-0.2c0.2-0.1,0.4-0.2,0.5-0.4
				s0.2-0.4,0.3-0.7h0.7v7.3H666.8z"/>
			<path class="st0" d="M671.8,272.7v1.2h-1.2v-1.2H671.8z"/>
			<path class="st0" d="M673.8,268.1c0.1-0.3,0.2-0.6,0.5-0.8c0.2-0.2,0.5-0.4,0.8-0.5c0.3-0.1,0.6-0.2,1-0.2c0.3,0,0.6,0,0.9,0.1
				c0.3,0.1,0.5,0.2,0.7,0.4c0.2,0.2,0.4,0.4,0.5,0.7s0.2,0.6,0.2,0.9c0,0.3,0,0.6-0.2,0.9c-0.1,0.2-0.2,0.5-0.4,0.7
				s-0.4,0.4-0.6,0.5c-0.2,0.2-0.4,0.3-0.7,0.5c-0.2,0.1-0.5,0.3-0.7,0.4c-0.2,0.1-0.4,0.3-0.6,0.4c-0.2,0.2-0.4,0.3-0.5,0.5
				c-0.1,0.2-0.2,0.4-0.3,0.6h3.8v0.8h-4.8c0-0.4,0.1-0.8,0.2-1.1c0.1-0.3,0.3-0.6,0.5-0.8c0.2-0.2,0.4-0.4,0.6-0.6
				c0.2-0.2,0.5-0.3,0.7-0.5c0.3-0.2,0.6-0.4,0.8-0.5c0.2-0.2,0.4-0.3,0.6-0.5c0.2-0.2,0.3-0.3,0.4-0.5c0.1-0.2,0.1-0.4,0.1-0.7
				c0-0.2,0-0.4-0.1-0.5c-0.1-0.2-0.2-0.3-0.3-0.4c-0.1-0.1-0.3-0.2-0.5-0.3c-0.2-0.1-0.4-0.1-0.5-0.1c-0.3,0-0.5,0.1-0.7,0.2
				c-0.2,0.1-0.3,0.2-0.5,0.4c-0.1,0.2-0.2,0.4-0.3,0.6s-0.1,0.4-0.1,0.7h-0.9C673.6,268.8,673.7,268.4,673.8,268.1z"/>
		</g>
		<line class="st1" x1="423.1" y1="261.6" x2="673.5" y2="261.6"/>
		<g>
			<g>
				<line class="st1" x1="465.1" y1="261.6" x2="465.1" y2="256.4"/>
				<line class="st1" x1="506.7" y1="261.6" x2="506.7" y2="256.4"/>
				<line class="st1" x1="548.3" y1="261.6" x2="548.3" y2="256.4"/>
				<line class="st1" x1="589.9" y1="261.6" x2="589.9" y2="256.4"/>
				<line class="st1" x1="631.5" y1="261.6" x2="631.5" y2="256.4"/>
				<line class="st1" x1="673" y1="261.6" x2="673" y2="256.4"/>
			</g>
		</g>
		<g>
			<path class="st0" d="M404.1,218.4c0-0.3,0-0.6,0.1-0.8s0.1-0.5,0.2-0.8c0.1-0.2,0.2-0.5,0.4-0.7c0.2-0.2,0.4-0.3,0.7-0.4
				c0.3-0.1,0.6-0.2,1-0.2s0.7,0.1,1,0.2c0.3,0.1,0.5,0.3,0.7,0.4s0.3,0.4,0.4,0.7s0.2,0.5,0.2,0.8c0.1,0.3,0.1,0.6,0.1,0.8
				s0,0.6,0,0.8s0,0.5,0,0.8c0,0.3,0,0.6-0.1,0.8c-0.1,0.3-0.1,0.5-0.2,0.8s-0.2,0.5-0.4,0.6s-0.4,0.3-0.7,0.4
				c-0.3,0.1-0.6,0.2-1,0.2c-0.4,0-0.7-0.1-1-0.2c-0.3-0.1-0.5-0.3-0.7-0.4c-0.2-0.2-0.3-0.4-0.4-0.6c-0.1-0.2-0.2-0.5-0.2-0.8
				s-0.1-0.6-0.1-0.8c0-0.3,0-0.6,0-0.8S404.1,218.6,404.1,218.4z M405.1,220.1c0,0.3,0.1,0.7,0.2,1c0.1,0.3,0.2,0.6,0.5,0.8
				c0.2,0.2,0.5,0.3,0.9,0.3s0.7-0.1,0.9-0.3c0.2-0.2,0.4-0.5,0.5-0.8c0.1-0.3,0.1-0.6,0.2-1c0-0.3,0-0.7,0-0.9c0-0.2,0-0.4,0-0.6
				c0-0.2,0-0.4-0.1-0.7c0-0.2-0.1-0.4-0.1-0.6c-0.1-0.2-0.1-0.4-0.3-0.5s-0.3-0.3-0.4-0.4c-0.2-0.1-0.4-0.1-0.6-0.1s-0.5,0-0.6,0.1
				c-0.2,0.1-0.3,0.2-0.4,0.4s-0.2,0.3-0.3,0.5c-0.1,0.2-0.1,0.4-0.1,0.6c0,0.2,0,0.4-0.1,0.7c0,0.2,0,0.4,0,0.6
				C405,219.5,405,219.8,405.1,220.1z"/>
			<path class="st0" d="M411.4,221.7v1.2h-1.2v-1.2H411.4z"/>
			<path class="st0" d="M413.4,217c0.1-0.3,0.2-0.6,0.5-0.8c0.2-0.2,0.5-0.4,0.8-0.5c0.3-0.1,0.6-0.2,1-0.2c0.3,0,0.6,0,0.9,0.1
				c0.3,0.1,0.5,0.2,0.7,0.4c0.2,0.2,0.4,0.4,0.5,0.7s0.2,0.6,0.2,0.9c0,0.3,0,0.6-0.2,0.9c-0.1,0.2-0.2,0.5-0.4,0.7
				s-0.4,0.4-0.6,0.5c-0.2,0.2-0.4,0.3-0.7,0.5c-0.2,0.1-0.5,0.3-0.7,0.4c-0.2,0.1-0.4,0.3-0.6,0.4c-0.2,0.2-0.4,0.3-0.5,0.5
				c-0.1,0.2-0.2,0.4-0.3,0.6h3.8v0.8h-4.8c0-0.4,0.1-0.8,0.2-1.1c0.1-0.3,0.3-0.6,0.5-0.8c0.2-0.2,0.4-0.4,0.6-0.6
				c0.2-0.2,0.5-0.3,0.7-0.5c0.3-0.2,0.6-0.4,0.8-0.5c0.2-0.2,0.4-0.3,0.6-0.5c0.2-0.2,0.3-0.3,0.4-0.5c0.1-0.2,0.1-0.4,0.1-0.7
				c0-0.2,0-0.4-0.1-0.5c-0.1-0.2-0.2-0.3-0.3-0.4c-0.1-0.1-0.3-0.2-0.5-0.3c-0.2-0.1-0.4-0.1-0.5-0.1c-0.3,0-0.5,0.1-0.7,0.2
				c-0.2,0.1-0.3,0.2-0.5,0.4c-0.1,0.2-0.2,0.4-0.3,0.6s-0.1,0.4-0.1,0.7h-0.9C413.3,217.7,413.3,217.3,413.4,217z"/>
		</g>
		<g>
			<path class="st0" d="M404.6,176.8c0-0.3,0-0.6,0.1-0.8s0.1-0.5,0.2-0.8c0.1-0.2,0.2-0.5,0.4-0.7c0.2-0.2,0.4-0.3,0.7-0.4
				c0.3-0.1,0.6-0.2,1-0.2s0.7,0.1,1,0.2c0.3,0.1,0.5,0.3,0.7,0.4s0.3,0.4,0.4,0.7s0.2,0.5,0.2,0.8c0.1,0.3,0.1,0.6,0.1,0.8
				s0,0.6,0,0.8s0,0.5,0,0.8c0,0.3,0,0.6-0.1,0.8c-0.1,0.3-0.1,0.5-0.2,0.8s-0.2,0.5-0.4,0.6s-0.4,0.3-0.7,0.4
				c-0.3,0.1-0.6,0.2-1,0.2c-0.4,0-0.7-0.1-1-0.2c-0.3-0.1-0.5-0.3-0.7-0.4c-0.2-0.2-0.3-0.4-0.4-0.6c-0.1-0.2-0.2-0.5-0.2-0.8
				s-0.1-0.6-0.1-0.8c0-0.3,0-0.6,0-0.8S404.6,177.1,404.6,176.8z M405.6,178.5c0,0.3,0.1,0.7,0.2,1c0.1,0.3,0.2,0.6,0.5,0.8
				c0.2,0.2,0.5,0.3,0.9,0.3s0.7-0.1,0.9-0.3c0.2-0.2,0.4-0.5,0.5-0.8c0.1-0.3,0.1-0.6,0.2-1c0-0.3,0-0.7,0-0.9c0-0.2,0-0.4,0-0.6
				c0-0.2,0-0.4-0.1-0.7c0-0.2-0.1-0.4-0.1-0.6c-0.1-0.2-0.1-0.4-0.3-0.5s-0.3-0.3-0.4-0.4c-0.2-0.1-0.4-0.1-0.6-0.1s-0.5,0-0.6,0.1
				c-0.2,0.1-0.3,0.2-0.4,0.4s-0.2,0.3-0.3,0.5c-0.1,0.2-0.1,0.4-0.1,0.6c0,0.2,0,0.4-0.1,0.7c0,0.2,0,0.4,0,0.6
				C405.5,177.9,405.6,178.2,405.6,178.5z"/>
			<path class="st0" d="M412,180.1v1.2h-1.2v-1.2H412z"/>
			<path class="st0" d="M418.2,178.7v0.8h-1v1.7h-0.8v-1.7h-3.2v-0.9l3.3-4.8h0.7v4.9H418.2z M416.3,175.1L416.3,175.1l-2.5,3.6h2.5
				V175.1z"/>
		</g>
		<g>
			<path class="st0" d="M404.6,136.1c0-0.3,0-0.6,0.1-0.9s0.1-0.5,0.2-0.8c0.1-0.2,0.2-0.5,0.4-0.7c0.2-0.2,0.4-0.3,0.7-0.4
				c0.3-0.1,0.6-0.2,1-0.2s0.7,0.1,1,0.2c0.3,0.1,0.5,0.3,0.7,0.4s0.3,0.4,0.4,0.7c0.1,0.2,0.2,0.5,0.2,0.8c0.1,0.3,0.1,0.6,0.1,0.9
				c0,0.3,0,0.6,0,0.8s0,0.5,0,0.8c0,0.3,0,0.6-0.1,0.9c-0.1,0.3-0.1,0.5-0.2,0.8c-0.1,0.2-0.2,0.5-0.4,0.6s-0.4,0.3-0.7,0.4
				c-0.3,0.1-0.6,0.2-1,0.2c-0.4,0-0.7-0.1-1-0.2c-0.3-0.1-0.5-0.3-0.7-0.4c-0.2-0.2-0.3-0.4-0.4-0.6c-0.1-0.2-0.2-0.5-0.2-0.8
				c-0.1-0.3-0.1-0.6-0.1-0.9c0-0.3,0-0.6,0-0.8S404.6,136.4,404.6,136.1z M405.6,137.8c0,0.3,0.1,0.7,0.2,1
				c0.1,0.3,0.2,0.6,0.5,0.8c0.2,0.2,0.5,0.3,0.9,0.3s0.7-0.1,0.9-0.3c0.2-0.2,0.4-0.5,0.5-0.8c0.1-0.3,0.1-0.6,0.2-1
				c0-0.3,0-0.7,0-0.9c0-0.2,0-0.4,0-0.6c0-0.2,0-0.4-0.1-0.7c0-0.2-0.1-0.4-0.1-0.6c-0.1-0.2-0.1-0.4-0.3-0.5s-0.3-0.3-0.4-0.4
				c-0.2-0.1-0.4-0.1-0.6-0.1s-0.5,0-0.6,0.1c-0.2,0.1-0.3,0.2-0.4,0.4s-0.2,0.3-0.3,0.5c-0.1,0.2-0.1,0.4-0.1,0.6
				c0,0.2,0,0.4-0.1,0.7c0,0.2,0,0.4,0,0.6C405.5,137.2,405.6,137.5,405.6,137.8z"/>
			<path class="st0" d="M412,139.4v1.2h-1.2v-1.2H412z"/>
			<path class="st0" d="M416.7,134.2c-0.2-0.2-0.5-0.3-0.8-0.3c-0.4,0-0.7,0.1-0.9,0.3c-0.2,0.2-0.4,0.4-0.5,0.7s-0.2,0.6-0.3,0.9
				c0,0.3-0.1,0.6-0.1,0.9l0,0c0.2-0.3,0.5-0.6,0.8-0.7s0.7-0.2,1.1-0.2c0.4,0,0.7,0.1,0.9,0.2c0.3,0.1,0.5,0.3,0.7,0.5
				c0.2,0.2,0.3,0.5,0.4,0.8c0.1,0.3,0.2,0.6,0.2,0.9c0,0.3,0,0.5-0.1,0.8c-0.1,0.3-0.2,0.6-0.4,0.8c-0.2,0.2-0.4,0.4-0.8,0.6
				c-0.3,0.2-0.7,0.2-1.2,0.2c-0.5,0-1-0.1-1.3-0.3c-0.3-0.2-0.6-0.5-0.8-0.9c-0.2-0.3-0.3-0.7-0.4-1.1c-0.1-0.4-0.1-0.8-0.1-1.2
				c0-0.5,0-1,0.1-1.5c0.1-0.5,0.2-0.9,0.4-1.3c0.2-0.4,0.5-0.7,0.8-0.9s0.8-0.3,1.3-0.3c0.6,0,1.1,0.2,1.5,0.5s0.6,0.8,0.6,1.4
				h-0.9C417.1,134.7,416.9,134.4,416.7,134.2z M415.1,136.7c-0.2,0.1-0.3,0.2-0.5,0.4c-0.1,0.1-0.2,0.3-0.3,0.5
				c-0.1,0.2-0.1,0.4-0.1,0.6s0,0.4,0.1,0.6c0.1,0.2,0.2,0.4,0.3,0.5s0.3,0.3,0.5,0.3c0.2,0.1,0.4,0.1,0.6,0.1s0.5,0,0.6-0.1
				c0.2-0.1,0.3-0.2,0.5-0.4c0.1-0.2,0.2-0.3,0.3-0.5c0.1-0.2,0.1-0.4,0.1-0.6c0-0.2,0-0.4-0.1-0.6c-0.1-0.2-0.2-0.4-0.3-0.5
				c-0.1-0.1-0.3-0.3-0.5-0.4s-0.4-0.1-0.7-0.1S415.3,136.6,415.1,136.7z"/>
		</g>
		<g>
			<path class="st0" d="M404.1,94.5c0-0.3,0-0.6,0.1-0.9s0.1-0.5,0.2-0.8c0.1-0.2,0.2-0.5,0.4-0.7c0.2-0.2,0.4-0.3,0.7-0.4
				c0.3-0.1,0.6-0.2,1-0.2s0.7,0.1,1,0.2c0.3,0.1,0.5,0.3,0.7,0.4s0.3,0.4,0.4,0.7c0.1,0.2,0.2,0.5,0.2,0.8c0.1,0.3,0.1,0.6,0.1,0.9
				c0,0.3,0,0.6,0,0.8s0,0.5,0,0.8c0,0.3,0,0.6-0.1,0.9c-0.1,0.3-0.1,0.5-0.2,0.8c-0.1,0.2-0.2,0.5-0.4,0.6s-0.4,0.3-0.7,0.4
				c-0.3,0.1-0.6,0.2-1,0.2c-0.4,0-0.7-0.1-1-0.2c-0.3-0.1-0.5-0.3-0.7-0.4c-0.2-0.2-0.3-0.4-0.4-0.6c-0.1-0.2-0.2-0.5-0.2-0.8
				c-0.1-0.3-0.1-0.6-0.1-0.9c0-0.3,0-0.6,0-0.8S404.1,94.8,404.1,94.5z M405.1,96.2c0,0.3,0.1,0.7,0.2,1c0.1,0.3,0.2,0.6,0.5,0.8
				c0.2,0.2,0.5,0.3,0.9,0.3s0.7-0.1,0.9-0.3c0.2-0.2,0.4-0.5,0.5-0.8c0.1-0.3,0.1-0.6,0.2-1c0-0.3,0-0.7,0-0.9c0-0.2,0-0.4,0-0.6
				c0-0.2,0-0.4-0.1-0.7c0-0.2-0.1-0.4-0.1-0.6c-0.1-0.2-0.1-0.4-0.3-0.5s-0.3-0.3-0.4-0.4c-0.2-0.1-0.4-0.1-0.6-0.1s-0.5,0-0.6,0.1
				c-0.2,0.1-0.3,0.2-0.4,0.4s-0.2,0.3-0.3,0.5c-0.1,0.2-0.1,0.4-0.1,0.6c0,0.2,0,0.4-0.1,0.7c0,0.2,0,0.4,0,0.6
				C405,95.6,405,95.9,405.1,96.2z"/>
			<path class="st0" d="M411.4,97.8v1.2h-1.2v-1.2H411.4z"/>
			<path class="st0" d="M413.7,92.7c0.1-0.2,0.3-0.4,0.5-0.6c0.2-0.2,0.4-0.3,0.7-0.4c0.3-0.1,0.5-0.1,0.8-0.1c0.4,0,0.7,0.1,1,0.2
				c0.3,0.1,0.5,0.2,0.7,0.4c0.2,0.2,0.3,0.4,0.4,0.6c0.1,0.2,0.1,0.5,0.1,0.7c0,0.3-0.1,0.6-0.3,0.9c-0.2,0.3-0.4,0.5-0.7,0.6
				c0.4,0.1,0.8,0.4,1,0.7c0.2,0.3,0.3,0.7,0.3,1.2c0,0.4-0.1,0.7-0.2,1s-0.3,0.5-0.5,0.7c-0.2,0.2-0.5,0.3-0.8,0.4
				c-0.3,0.1-0.6,0.1-1,0.1c-0.4,0-0.7,0-1-0.1c-0.3-0.1-0.6-0.2-0.8-0.4s-0.4-0.4-0.5-0.7s-0.2-0.6-0.2-1c0-0.4,0.1-0.8,0.3-1.1
				c0.2-0.3,0.5-0.6,1-0.7c-0.3-0.1-0.6-0.3-0.7-0.6s-0.3-0.6-0.3-0.9C413.5,93.2,413.6,92.9,413.7,92.7z M414.6,97.9
				c0.3,0.3,0.7,0.4,1.1,0.4c0.2,0,0.4,0,0.6-0.1c0.2-0.1,0.3-0.2,0.5-0.3s0.2-0.3,0.3-0.5c0.1-0.2,0.1-0.4,0.1-0.6
				c0-0.2,0-0.4-0.1-0.6s-0.2-0.3-0.3-0.4c-0.1-0.1-0.3-0.2-0.5-0.3c-0.2-0.1-0.4-0.1-0.6-0.1c-0.2,0-0.4,0-0.6,0.1
				c-0.2,0.1-0.4,0.2-0.5,0.3s-0.3,0.3-0.3,0.4s-0.1,0.4-0.1,0.6C414.2,97.3,414.3,97.7,414.6,97.9z M414.5,94
				c0.1,0.1,0.2,0.3,0.3,0.4s0.3,0.2,0.4,0.2c0.2,0,0.3,0.1,0.5,0.1c0.4,0,0.6-0.1,0.9-0.3c0.2-0.2,0.3-0.5,0.3-0.9
				s-0.1-0.7-0.3-0.8s-0.5-0.3-0.9-0.3c-0.2,0-0.3,0-0.5,0.1c-0.2,0-0.3,0.1-0.4,0.2c-0.1,0.1-0.2,0.2-0.3,0.4
				c-0.1,0.1-0.1,0.3-0.1,0.5C414.4,93.7,414.5,93.9,414.5,94z"/>
		</g>
		<g>
			<path class="st0" d="M407,57.4v-5.3h-1.9v-0.7c0.2,0,0.5,0,0.7-0.1c0.2,0,0.4-0.1,0.6-0.2c0.2-0.1,0.4-0.2,0.5-0.4
				s0.2-0.4,0.3-0.7h0.7v7.3H407z"/>
			<path class="st0" d="M412,56.2v1.2h-1.2v-1.2H412z"/>
			<path class="st0" d="M413.3,52.9c0-0.3,0-0.6,0.1-0.9s0.1-0.5,0.2-0.8c0.1-0.2,0.2-0.5,0.4-0.7c0.2-0.2,0.4-0.3,0.7-0.4
				c0.3-0.1,0.6-0.2,1-0.2s0.7,0.1,1,0.2c0.3,0.1,0.5,0.3,0.7,0.4s0.3,0.4,0.4,0.7c0.1,0.2,0.2,0.5,0.2,0.8c0.1,0.3,0.1,0.6,0.1,0.9
				c0,0.3,0,0.6,0,0.8s0,0.5,0,0.8c0,0.3,0,0.6-0.1,0.9c-0.1,0.3-0.1,0.5-0.2,0.8c-0.1,0.2-0.2,0.5-0.4,0.6s-0.4,0.3-0.7,0.4
				c-0.3,0.1-0.6,0.2-1,0.2c-0.4,0-0.7-0.1-1-0.2c-0.3-0.1-0.5-0.3-0.7-0.4c-0.2-0.2-0.3-0.4-0.4-0.6c-0.1-0.2-0.2-0.5-0.2-0.8
				c-0.1-0.3-0.1-0.6-0.1-0.9c0-0.3,0-0.6,0-0.8S413.3,53.2,413.3,52.9z M414.2,54.7c0,0.3,0.1,0.7,0.2,1c0.1,0.3,0.2,0.6,0.5,0.8
				c0.2,0.2,0.5,0.3,0.9,0.3s0.7-0.1,0.9-0.3c0.2-0.2,0.4-0.5,0.5-0.8c0.1-0.3,0.1-0.6,0.2-1c0-0.3,0-0.7,0-0.9c0-0.2,0-0.4,0-0.6
				c0-0.2,0-0.4-0.1-0.7c0-0.2-0.1-0.4-0.1-0.6c-0.1-0.2-0.1-0.4-0.3-0.5s-0.3-0.3-0.4-0.4c-0.2-0.1-0.4-0.1-0.6-0.1s-0.5,0-0.6,0.1
				c-0.2,0.1-0.3,0.2-0.4,0.4s-0.2,0.3-0.3,0.5c-0.1,0.2-0.1,0.4-0.1,0.6c0,0.2,0,0.4-0.1,0.7c0,0.2,0,0.4,0,0.6
				C414.2,54,414.2,54.3,414.2,54.7z"/>
		</g>
		<line class="st1" x1="423.6" y1="261.6" x2="423.6" y2="53.2"/>
		<g>
			<g>
				<line class="st1" x1="423.6" y1="220" x2="428.8" y2="220"/>
				<line class="st1" x1="423.6" y1="178.4" x2="428.8" y2="178.4"/>
				<line class="st1" x1="423.6" y1="136.9" x2="428.8" y2="136.9"/>
				<line class="st1" x1="423.6" y1="95.3" x2="428.8" y2="95.3"/>
				<line class="st1" x1="423.6" y1="53.7" x2="428.8" y2="53.7"/>
			</g>
		</g>
	</g>
</g>
<g id="Layer_1">
	<circle class="st2" cx="112.9" cy="209.2" r="2.6"/>
	<circle class="st2" cx="94.6" cy="229.9" r="2.6"/>
	<circle class="st2" cx="142.1" cy="223.9" r="2.6"/>
	<circle class="st2" cx="159.4" cy="185.9" r="2.6"/>
	<circle class="st2" cx="158.5" cy="153.1" r="2.6"/>
	<circle class="st2" cx="187.9" cy="183.3" r="2.6"/>
	<circle class="st3" cx="454.4" cy="236.8" r="2.6"/>
	<circle class="st3" cx="460.4" cy="167.7" r="2.6"/>
	<circle class="st3" cx="516.6" cy="229.1" r="2.6"/>
	<circle class="st3" cx="507.9" cy="149.6" r="2.6"/>
	<circle class="st3" cx="577.9" cy="213.5" r="2.6"/>
	<circle class="st3" cx="548.5" cy="95.2" r="2.6"/>
	<circle class="st3" cx="599.5" cy="161.7" r="2.6"/>
	<circle class="st3" cx="592.6" cy="102.1" r="2.6"/>
	<circle class="st3" cx="626.3" cy="134" r="2.6"/>
	<circle class="st3" cx="626.3" cy="126.3" r="2.6"/>
	<circle class="st3" cx="626.3" cy="65.8" r="2.6"/>
	<circle class="st3" cx="617.6" cy="236" r="2.6"/>
	<circle class="st3" cx="539" cy="162.6" r="2.6"/>
	<circle class="st3" cx="548.5" cy="134.9" r="2.6"/>
	<circle class="st3" cx="614.2" cy="95.2" r="2.6"/>
	<circle class="st3" cx="645.3" cy="77" r="2.6"/>
	<circle class="st3" cx="500.1" cy="204" r="2.6"/>
	<circle class="st3" cx="524.3" cy="202.3" r="2.6"/>
	<circle class="st3" cx="564.9" cy="138.4" r="2.6"/>
	<circle class="st3" cx="565.8" cy="179" r="2.6"/>
	<circle class="st3" cx="495.8" cy="182.4" r="2.6"/>
	<circle class="st3" cx="472.5" cy="217" r="2.6"/>
	<circle class="st2" cx="179.2" cy="161.7" r="2.6"/>
	<circle class="st2" cx="111" cy="226.5" r="2.6"/>
	<circle class="st2" cx="85.9" cy="248.1" r="2.6"/>
	<circle class="st2" cx="224.2" cy="156.5" r="2.6"/>
	<circle class="st2" cx="256.1" cy="130.6" r="2.6"/>
	<circle class="st2" cx="217.2" cy="132.3" r="2.6"/>
	<circle class="st2" cx="258.7" cy="115.9" r="2.6"/>
	<circle class="st2" cx="288.1" cy="112.5" r="2.6"/>
	<circle class="st2" cx="302.8" cy="122" r="2.6"/>
	<circle class="st2" cx="289.8" cy="90" r="2.6"/>
	<circle class="st2" cx="313.1" cy="57.2" r="2.6"/>
	<circle class="st2" cx="243.2" cy="162.6" r="2.6"/>
	<circle class="st2" cx="199.1" cy="143.6" r="2.6"/>
	<circle class="st2" cx="149" cy="198" r="2.6"/>
	<circle class="st2" cx="126.5" cy="190.2" r="2.6"/>
	<circle class="st2" cx="314.9" cy="80.5" r="2.6"/>
	<g>
	</g>
	<g>
	</g>
	<g>
	</g>
	<g>
	</g>
	<g>
	</g>
	<g>
	</g>
	<g>
	</g>
	<g>
	</g>
	<g>
	</g>
	<g>
	</g>
</g>
</svg>
