<?xml version="1.0" encoding="utf-8"?>
<!-- Generator: Adobe Illustrator 21.0.0, SVG Export Plug-In . SVG Version: 6.00 Build 0)  -->
<svg version="1.1" xmlns="http://www.w3.org/2000/svg" xmlns:xlink="http://www.w3.org/1999/xlink" x="0px" y="0px"
	 viewBox="0 0 730 320" style="enable-background:new 0 0 730 320;" xml:space="preserve">
<style type="text/css">
	.st0{fill:#FF0000;}
	.st1{opacity:0.5;fill:#FF0000;}
	.st2{opacity:0.25;fill:#FF0000;}
	.st3{fill:none;stroke:#000000;stroke-miterlimit:10;}
	.st4{fill:#808080;}
	.st5{fill:#666666;}
</style>
<g id="Layer_2">
</g>
<g id="Layer_1">
	<rect x="96.3" y="120.6" class="st0" width="48.6" height="142.7"/>
	<rect x="180.2" y="191.9" class="st1" width="48.6" height="71.3"/>
	<rect x="264.2" y="49.3" class="st2" width="48.6" height="214"/>
	<g>
		<line class="st3" x1="71" y1="263.3" x2="331.2" y2="263.3"/>
		<g>
			<g>
				<line class="st3" x1="162.3" y1="263.3" x2="162.3" y2="257.9"/>
				<line class="st3" x1="246.8" y1="263.3" x2="246.8" y2="257.9"/>
				<line class="st3" x1="331.2" y1="263.3" x2="331.2" y2="257.9"/>
			</g>
		</g>
	</g>
	<g>
		<g>
			<path class="st4" d="M62.2,263.7c0,2.7-1,4.1-2.7,4.1c-1.5,0-2.6-1.4-2.6-4c0-2.6,1.1-4.1,2.7-4.1
				C61.2,259.8,62.2,261.2,62.2,263.7z M58,263.9c0,2,0.6,3.2,1.6,3.2c1.1,0,1.6-1.3,1.6-3.3c0-1.9-0.5-3.2-1.6-3.2
				C58.6,260.6,57.9,261.8,58,263.9z"/>
		</g>
		<g>
			<path class="st4" d="M57,223.7c0.3,0.2,1,0.5,1.7,0.5c1.4,0,1.8-0.9,1.8-1.5c0-1.1-1-1.6-2-1.5l-0.6,0l0-0.8l0.6,0
				c0.8,0,1.7-0.4,1.7-1.3c0-0.6-0.4-1.2-1.4-1.2c-0.6,0-1.2,0.3-1.6,0.5l-0.3-0.8c0.4-0.3,1.2-0.6,2-0.6c1.5,0,2.2,0.9,2.2,1.8
				c0,0.8-0.5,1.5-1.4,1.8v0c1,0.2,1.7,0.9,1.8,2c0,1.2-1,2.3-2.8,2.4c-0.9,0-1.6-0.3-2-0.5L57,223.7z"/>
		</g>
		<g>
			<path class="st4" d="M61,175.1c-0.2,0-0.5,0-0.8,0.1c-1.7,0.3-2.5,1.5-2.7,2.8h0c0.4-0.5,1-0.9,1.9-0.9c1.4,0,2.4,1,2.4,2.5
				c0,1.4-1,2.8-2.6,2.8c-1.7,0-2.8-1.3-2.8-3.3c0-1.5,0.5-2.7,1.3-3.5c0.6-0.6,1.5-1,2.5-1.2c0.3,0,0.6-0.1,0.8-0.1L61,175.1z
				 M60.7,179.6c0-1.1-0.6-1.8-1.6-1.8c-0.6,0-1.2,0.4-1.5,1c-0.1,0.1-0.1,0.3-0.1,0.5c0,1.3,0.6,2.2,1.7,2.2
				C60.1,181.4,60.7,180.7,60.7,179.6z"/>
		</g>
		<g>
			<path class="st4" d="M56.9,138.6c0.2,0,0.5,0,0.9,0c0.6-0.1,1.2-0.3,1.6-0.8c0.5-0.5,0.9-1.2,1-2.1h0c-0.4,0.5-1.1,0.8-1.8,0.9
				c-1.4,0-2.3-1-2.3-2.4c0-1.5,1.1-2.8,2.6-2.8s2.6,1.3,2.6,3.3c0,1.7-0.6,2.9-1.3,3.7c-0.6,0.6-1.4,1-2.3,1.1
				c-0.4,0.1-0.7,0.1-1,0.1L56.9,138.6z M57.3,134.1c0,1,0.6,1.7,1.5,1.6c0.7,0,1.3-0.4,1.5-0.8c0.1-0.1,0.1-0.2,0.1-0.4
				c0-1.3-0.5-2.3-1.6-2.3C57.9,132.2,57.3,133,57.3,134.1z"/>
		</g>
		<g>
			<path class="st4" d="M52.1,89.7L52.1,89.7l-1.4,0.7l-0.2-0.8l1.7-0.9l0.9,0l0,7.8l-1,0L52.1,89.7z"/>
			<path class="st4" d="M56,96.5l0-0.6l0.8-0.8c2-1.9,2.9-2.9,2.9-4.1c0-0.8-0.4-1.5-1.6-1.5c-0.7,0-1.3,0.4-1.7,0.7l-0.3-0.7
				c0.5-0.5,1.3-0.8,2.2-0.8c1.7,0,2.4,1.1,2.4,2.3c0,1.4-1,2.6-2.7,4.2l-0.6,0.6v0l3.5,0l0,0.9L56,96.5z"/>
		</g>
		<g>
			<path class="st4" d="M51.9,46.9L51.9,46.9l-1.4,0.7l-0.2-0.8L52,46l0.9,0l0,7.8l-1,0L51.9,46.9z"/>
			<path class="st4" d="M60.4,46.8l-3,0l-0.3,2c0.2,0,0.3,0,0.6-0.1c0.6,0,1.2,0.1,1.7,0.4c0.6,0.3,1.1,1,1.1,2
				c0,1.5-1.2,2.7-2.9,2.7c-0.9,0-1.6-0.2-1.9-0.5l0.3-0.8c0.3,0.2,1,0.4,1.7,0.4c1,0,1.8-0.7,1.8-1.7c0-1-0.7-1.7-2.3-1.7
				c-0.4,0-0.8,0.1-1.1,0.1l0.5-3.7l3.7,0L60.4,46.8z"/>
		</g>
	</g>
	<line class="st3" x1="71.6" y1="263.3" x2="70.4" y2="49.2"/>
	<g>
		<g>
			<line class="st3" x1="71.4" y1="220.5" x2="77.7" y2="220.4"/>
			<line class="st3" x1="71.1" y1="177.6" x2="77.5" y2="177.6"/>
			<line class="st3" x1="70.9" y1="134.8" x2="77.2" y2="134.8"/>
			<line class="st3" x1="70.6" y1="92" x2="77" y2="92"/>
			<line class="st3" x1="70.4" y1="49.2" x2="76.7" y2="49.2"/>
		</g>
	</g>
	<g>
		<path class="st5" d="M274.1,284.5h-0.8l-2.4-4c-0.5-0.8-1-1.7-1.4-2.5l0,0c0.1,1,0.1,1.9,0.1,3.2v3.4h-0.8v-7.6h0.9l2.5,4
			c0.5,0.9,1,1.7,1.3,2.5l0,0c-0.1-1.1-0.1-2-0.1-3.2v-3.3h0.8V284.5z"/>
		<path class="st5" d="M279.8,283.2c0,0.4,0,0.9,0.1,1.3h-0.8l-0.1-0.7h0c-0.3,0.4-0.8,0.8-1.6,0.8c-1,0-1.6-0.8-1.6-1.5
			c0-1.3,1.1-2,3.2-2c0-0.5,0-1.5-1.2-1.5c-0.5,0-1,0.1-1.3,0.4l-0.2-0.6c0.4-0.3,1-0.5,1.7-0.5c1.5,0,1.9,1.1,1.9,2.2V283.2z
			 M279,281.7c-1,0-2.3,0.1-2.3,1.3c0,0.7,0.4,1,0.9,1c0.8,0,1.4-0.6,1.4-1.3V281.7z"/>
		<path class="st5" d="M284.4,279.8c-0.1,0-0.2,0-0.3,0c-0.9,0-1.4,0.9-1.4,1.8v3h-0.8v-3.8c0-0.6,0-1.1,0-1.6h0.7l0,1h0
			c0.2-0.7,0.8-1.2,1.5-1.2c0.1,0,0.2,0,0.2,0V279.8z"/>
		<path class="st5" d="M289.4,283.2c0,0.4,0,0.9,0.1,1.3h-0.8l-0.1-0.7h0c-0.3,0.4-0.8,0.8-1.6,0.8c-1,0-1.6-0.8-1.6-1.5
			c0-1.3,1.1-2,3.2-2c0-0.5,0-1.5-1.2-1.5c-0.5,0-1,0.1-1.3,0.4l-0.2-0.6c0.4-0.3,1-0.5,1.7-0.5c1.5,0,1.9,1.1,1.9,2.2V283.2z
			 M288.6,281.7c-1,0-2.3,0.1-2.3,1.3c0,0.7,0.4,1,0.9,1c0.8,0,1.4-0.6,1.4-1.3V281.7z"/>
		<path class="st5" d="M295.9,284.5h-0.8v-3.2c0-0.9-0.3-1.7-1.3-1.7c-0.7,0-1.4,0.6-1.4,1.5v3.3h-0.8v-4c0-0.6,0-1,0-1.4h0.7
			l0.1,0.9h0c0.3-0.5,0.9-1,1.7-1c0.7,0,1.8,0.4,1.8,2.3V284.5z"/>
		<path class="st5" d="M299,284.1c0,1-0.1,1.7-0.6,2.2c-0.4,0.4-1.1,0.6-1.5,0.6l-0.1-0.7c1.3-0.1,1.4-0.9,1.4-2.5v-4.7h0.8V284.1z
			 M298.5,278.1c-0.3,0-0.5-0.3-0.5-0.6c0-0.3,0.2-0.6,0.6-0.6c0.3,0,0.5,0.2,0.5,0.6C299.1,277.9,298.9,278.1,298.5,278.1z"/>
		<path class="st5" d="M304.6,283.2c0,0.4,0,0.9,0.1,1.3H304l-0.1-0.7h0c-0.3,0.4-0.8,0.8-1.6,0.8c-1,0-1.6-0.8-1.6-1.5
			c0-1.3,1.1-2,3.2-2c0-0.5,0-1.5-1.2-1.5c-0.5,0-1,0.1-1.3,0.4l-0.2-0.6c0.4-0.3,1-0.5,1.7-0.5c1.5,0,1.9,1.1,1.9,2.2V283.2z
			 M303.8,281.7c-1,0-2.3,0.1-2.3,1.3c0,0.7,0.4,1,0.9,1c0.8,0,1.4-0.6,1.4-1.3V281.7z"/>
		<path class="st5" d="M309.3,279.9c-0.2-0.1-0.6-0.3-1.1-0.3c-0.6,0-0.9,0.4-0.9,0.8c0,0.5,0.3,0.7,1,1c0.9,0.4,1.4,0.8,1.4,1.6
			c0,1-0.7,1.6-1.9,1.6c-0.5,0-1.1-0.2-1.4-0.4l0.2-0.6c0.3,0.2,0.8,0.4,1.2,0.4c0.7,0,1.1-0.4,1.1-0.9c0-0.5-0.3-0.8-1-1.1
			c-0.9-0.4-1.4-0.9-1.4-1.5c0-0.8,0.7-1.5,1.8-1.5c0.5,0,1,0.2,1.2,0.3L309.3,279.9z"/>
	</g>
	<g>
		<path class="st5" d="M194.8,277c0.4-0.1,1-0.2,1.7-0.2c2.5,0,2.7,1.6,2.7,2.2c0,1.8-1.4,2.4-2.8,2.4c-0.3,0-0.5,0-0.8-0.1v3.1
			h-0.8V277z M195.6,280.7c0.2,0.1,0.5,0.1,0.8,0.1c1.2,0,1.9-0.6,1.9-1.7c0-1.1-0.8-1.6-1.8-1.6c-0.4,0-0.7,0-0.9,0.1V280.7z"/>
		<path class="st5" d="M204.8,284.3c-0.3,0.1-0.9,0.3-1.7,0.3c-1.6,0-2.5-1.1-2.5-2.7c0-1.7,1-2.9,2.4-2.9c1.7,0,2.1,1.5,2.1,2.5
			c0,0.2,0,0.3,0,0.5h-3.7c0,1.5,0.9,2.1,1.8,2.1c0.7,0,1.1-0.1,1.4-0.3L204.8,284.3z M204.3,281.3c0-0.7-0.3-1.7-1.4-1.7
			c-1,0-1.4,0.9-1.5,1.7H204.3z"/>
		<path class="st5" d="M209.3,279.8c-0.1,0-0.2,0-0.3,0c-0.9,0-1.4,0.9-1.4,1.8v3h-0.8v-3.8c0-0.6,0-1.1,0-1.6h0.7l0,1h0
			c0.2-0.7,0.8-1.2,1.5-1.2c0.1,0,0.2,0,0.2,0V279.8z"/>
		<path class="st5" d="M214.4,283.2c0,0.4,0,0.9,0.1,1.3h-0.8l-0.1-0.7h0c-0.3,0.4-0.8,0.8-1.6,0.8c-1,0-1.6-0.8-1.6-1.5
			c0-1.3,1.1-2,3.2-2c0-0.5,0-1.5-1.2-1.5c-0.5,0-1,0.1-1.3,0.4l-0.2-0.6c0.4-0.3,1-0.5,1.7-0.5c1.5,0,1.9,1.1,1.9,2.2V283.2z
			 M213.5,281.7c-1,0-2.3,0.1-2.3,1.3c0,0.7,0.4,1,0.9,1c0.8,0,1.4-0.6,1.4-1.3V281.7z"/>
	</g>
	<g>
		<path class="st5" d="M106.2,284.5h-0.8l-0.2-3.4c-0.1-1.1-0.1-2.5-0.1-3.3h0c-0.2,0.9-0.6,1.8-0.9,2.9l-1.4,3.8h-0.6l-1.3-3.7
			c-0.4-1.1-0.7-2.1-0.9-2.9h0c0,0.9-0.1,2.2-0.1,3.4l-0.2,3.3h-0.8l0.5-7.6h1l1.3,3.9c0.3,0.9,0.6,1.8,0.8,2.5h0
			c0.2-0.8,0.5-1.6,0.8-2.5l1.4-3.9h1L106.2,284.5z"/>
		<path class="st5" d="M111.8,283.2c0,0.4,0,0.9,0.1,1.3h-0.8l-0.1-0.7h0c-0.3,0.4-0.8,0.8-1.6,0.8c-1,0-1.6-0.8-1.6-1.5
			c0-1.3,1.1-2,3.2-2c0-0.5,0-1.5-1.2-1.5c-0.5,0-1,0.1-1.3,0.4l-0.2-0.6c0.4-0.3,1-0.5,1.7-0.5c1.5,0,1.9,1.1,1.9,2.2V283.2z
			 M111,281.7c-1,0-2.3,0.1-2.3,1.3c0,0.7,0.4,1,0.9,1c0.8,0,1.4-0.6,1.4-1.3V281.7z"/>
		<path class="st5" d="M118.2,284.5h-0.8v-3.2c0-0.9-0.3-1.7-1.3-1.7c-0.7,0-1.4,0.6-1.4,1.5v3.3h-0.8v-4c0-0.6,0-1,0-1.4h0.7
			l0.1,0.9h0c0.3-0.5,0.9-1,1.7-1c0.7,0,1.8,0.4,1.8,2.3V284.5z"/>
		<path class="st5" d="M123.9,279.1v0.5l-2.5,3.4c-0.2,0.3-0.4,0.5-0.6,0.8v0h3.1v0.7h-4.2V284l2.5-3.4c0.2-0.3,0.4-0.5,0.6-0.8v0
			h-2.9v-0.7H123.9z"/>
		<path class="st5" d="M129,283.2c0,0.4,0,0.9,0.1,1.3h-0.8l-0.1-0.7h0c-0.3,0.4-0.8,0.8-1.6,0.8c-1,0-1.6-0.8-1.6-1.5
			c0-1.3,1.1-2,3.2-2c0-0.5,0-1.5-1.2-1.5c-0.5,0-1,0.1-1.3,0.4l-0.2-0.6c0.4-0.3,1-0.5,1.7-0.5c1.5,0,1.9,1.1,1.9,2.2V283.2z
			 M128.2,281.7c-1,0-2.3,0.1-2.3,1.3c0,0.7,0.4,1,0.9,1c0.8,0,1.4-0.6,1.4-1.3V281.7z"/>
		<path class="st5" d="M135.4,284.5h-0.8v-3.2c0-0.9-0.3-1.7-1.3-1.7c-0.7,0-1.4,0.6-1.4,1.5v3.3h-0.8v-4c0-0.6,0-1,0-1.4h0.7
			l0.1,0.9h0c0.3-0.5,0.9-1,1.7-1c0.7,0,1.8,0.4,1.8,2.3V284.5z"/>
		<path class="st5" d="M141.1,283.2c0,0.4,0,0.9,0.1,1.3h-0.8l-0.1-0.7h0c-0.3,0.4-0.8,0.8-1.6,0.8c-1,0-1.6-0.8-1.6-1.5
			c0-1.3,1.1-2,3.2-2c0-0.5,0-1.5-1.2-1.5c-0.5,0-1,0.1-1.3,0.4l-0.2-0.6c0.4-0.3,1-0.5,1.7-0.5c1.5,0,1.9,1.1,1.9,2.2V283.2z
			 M140.3,281.7c-1,0-2.3,0.1-2.3,1.3c0,0.7,0.4,1,0.9,1c0.8,0,1.4-0.6,1.4-1.3V281.7z"/>
	</g>
	<g>
		<path class="st4" d="M418.9,274.6c0,2.7-1,4.1-2.7,4.1c-1.5,0-2.6-1.4-2.6-4c0-2.6,1.1-4.1,2.7-4.1
			C417.9,270.6,418.9,272.1,418.9,274.6z M414.6,274.7c0,2,0.6,3.2,1.6,3.2c1.1,0,1.6-1.3,1.6-3.2c0-1.9-0.5-3.2-1.6-3.2
			C415.3,271.4,414.6,272.6,414.6,274.7z"/>
	</g>
	<g>
		<path class="st4" d="M464.6,277.3c0.3,0.2,1,0.5,1.7,0.5c1.4,0,1.8-0.9,1.8-1.5c0-1.1-1-1.6-2-1.6h-0.6V274h0.6
			c0.8,0,1.7-0.4,1.7-1.3c0-0.6-0.4-1.2-1.4-1.2c-0.6,0-1.2,0.3-1.6,0.5l-0.3-0.8c0.4-0.3,1.2-0.6,2-0.6c1.5,0,2.2,0.9,2.2,1.9
			c0,0.8-0.5,1.5-1.4,1.8v0c1,0.2,1.7,0.9,1.7,2c0,1.2-1,2.3-2.8,2.3c-0.9,0-1.6-0.3-2-0.5L464.6,277.3z"/>
	</g>
	<g>
		<path class="st4" d="M519.5,271.5c-0.2,0-0.5,0-0.8,0c-1.7,0.3-2.5,1.5-2.7,2.8h0c0.4-0.5,1-0.9,1.9-0.9c1.4,0,2.4,1,2.4,2.5
			c0,1.4-1,2.7-2.6,2.7c-1.7,0-2.8-1.3-2.8-3.3c0-1.5,0.6-2.7,1.3-3.5c0.6-0.6,1.5-1,2.5-1.2c0.3,0,0.6-0.1,0.8-0.1V271.5z
			 M519.2,276c0-1.1-0.6-1.8-1.6-1.8c-0.6,0-1.2,0.4-1.5,1c-0.1,0.1-0.1,0.3-0.1,0.5c0,1.3,0.6,2.2,1.7,2.2
			C518.6,277.9,519.2,277.1,519.2,276z"/>
	</g>
	<g>
		<path class="st4" d="M566.4,277.8c0.2,0,0.5,0,0.9,0c0.6-0.1,1.2-0.3,1.6-0.8c0.5-0.5,0.9-1.2,1-2.1h0c-0.4,0.5-1.1,0.8-1.8,0.8
			c-1.4,0-2.3-1.1-2.3-2.4c0-1.5,1.1-2.8,2.7-2.8s2.6,1.3,2.6,3.3c0,1.7-0.6,2.9-1.3,3.7c-0.6,0.6-1.4,0.9-2.3,1
			c-0.4,0.1-0.7,0.1-1,0.1V277.8z M566.7,273.3c0,1,0.6,1.7,1.5,1.7c0.7,0,1.3-0.3,1.5-0.8c0.1-0.1,0.1-0.2,0.1-0.4
			c0-1.3-0.5-2.4-1.6-2.4C567.4,271.4,566.7,272.2,566.7,273.3z"/>
	</g>
	<g>
		<path class="st4" d="M615.6,271.7L615.6,271.7l-1.4,0.7l-0.2-0.8l1.7-0.9h0.9v7.8h-1V271.7z"/>
		<path class="st4" d="M619.5,278.5v-0.6l0.8-0.8c2-1.9,2.9-2.9,2.9-4.1c0-0.8-0.4-1.5-1.5-1.5c-0.7,0-1.3,0.4-1.7,0.7l-0.3-0.7
			c0.5-0.5,1.3-0.8,2.2-0.8c1.7,0,2.4,1.2,2.4,2.3c0,1.4-1,2.6-2.7,4.2l-0.6,0.6v0h3.5v0.9H619.5z"/>
	</g>
	<g>
		<path class="st4" d="M666.3,271.7L666.3,271.7l-1.4,0.7l-0.2-0.8l1.7-0.9h0.9v7.8h-1V271.7z"/>
		<path class="st4" d="M674.8,271.6h-3l-0.3,2c0.2,0,0.3,0,0.6,0c0.6,0,1.2,0.1,1.7,0.4c0.6,0.3,1.1,1,1.1,2c0,1.5-1.2,2.7-2.9,2.7
			c-0.9,0-1.6-0.2-1.9-0.5l0.3-0.8c0.3,0.2,1,0.4,1.7,0.4c1,0,1.8-0.6,1.8-1.7c0-1-0.7-1.7-2.2-1.7c-0.4,0-0.8,0-1.1,0.1l0.5-3.7
			h3.7V271.6z"/>
	</g>
	<line class="st3" x1="416.2" y1="263.3" x2="669.7" y2="263.3"/>
	<line class="st3" x1="466.9" y1="263.3" x2="466.9" y2="257.9"/>
	<line class="st3" x1="517.6" y1="263.3" x2="517.6" y2="257.9"/>
	<line class="st3" x1="568.3" y1="263.3" x2="568.3" y2="257.9"/>
	<line class="st3" x1="619" y1="263.3" x2="619" y2="257.9"/>
	<line class="st3" x1="669.7" y1="263.3" x2="669.7" y2="257.9"/>
	<rect x="416.2" y="52.9" class="st0" width="169" height="48.6"/>
	<rect x="416.2" y="124.2" class="st1" width="84.5" height="48.6"/>
	<rect x="416.2" y="195.6" class="st2" width="253.4" height="48.6"/>
	<g>
		<line class="st3" x1="416.2" y1="263.3" x2="416.2" y2="41.5"/>
		<g>
			<g>
				<line class="st3" x1="416.2" y1="219.8" x2="422.6" y2="219.8"/>
				<line class="st3" x1="416.2" y1="148.5" x2="422.6" y2="148.5"/>
				<line class="st3" x1="416.2" y1="77.2" x2="422.6" y2="77.2"/>
			</g>
		</g>
	</g>
	<g>
		<path class="st5" d="M372.2,224.3h-0.8l-2.4-4c-0.5-0.8-1-1.7-1.4-2.5l0,0c0.1,1,0.1,1.9,0.1,3.2v3.4h-0.8v-7.6h0.9l2.5,4
			c0.5,0.9,1,1.7,1.3,2.5l0,0c-0.1-1.1-0.1-2-0.1-3.2v-3.3h0.8V224.3z"/>
		<path class="st5" d="M377.9,223c0,0.4,0,0.9,0.1,1.3h-0.8l-0.1-0.7h0c-0.3,0.4-0.8,0.8-1.6,0.8c-1,0-1.6-0.8-1.6-1.5
			c0-1.3,1.1-2,3.2-2c0-0.5,0-1.5-1.2-1.5c-0.5,0-1,0.1-1.3,0.4l-0.2-0.6c0.4-0.3,1-0.5,1.7-0.5c1.5,0,1.9,1.1,1.9,2.2V223z
			 M377.1,221.5c-1,0-2.3,0.1-2.3,1.3c0,0.7,0.4,1,0.9,1c0.8,0,1.4-0.6,1.4-1.3V221.5z"/>
		<path class="st5" d="M382.5,219.6c-0.1,0-0.2,0-0.3,0c-0.9,0-1.4,0.9-1.4,1.8v3H380v-3.8c0-0.6,0-1.1,0-1.6h0.7l0,1h0
			c0.2-0.7,0.8-1.2,1.5-1.2c0.1,0,0.2,0,0.2,0V219.6z"/>
		<path class="st5" d="M387.5,223c0,0.4,0,0.9,0.1,1.3h-0.8l-0.1-0.7h0c-0.3,0.4-0.8,0.8-1.6,0.8c-1,0-1.6-0.8-1.6-1.5
			c0-1.3,1.1-2,3.2-2c0-0.5,0-1.5-1.2-1.5c-0.5,0-1,0.1-1.3,0.4l-0.2-0.6c0.4-0.3,1-0.5,1.7-0.5c1.5,0,1.9,1.1,1.9,2.2V223z
			 M386.7,221.5c-1,0-2.3,0.1-2.3,1.3c0,0.7,0.4,1,0.9,1c0.8,0,1.4-0.6,1.4-1.3V221.5z"/>
		<path class="st5" d="M394,224.3h-0.8v-3.2c0-0.9-0.3-1.7-1.3-1.7c-0.7,0-1.4,0.6-1.4,1.5v3.3h-0.8v-4c0-0.6,0-1,0-1.4h0.7l0,0.9h0
			c0.3-0.5,0.9-1,1.7-1c0.7,0,1.8,0.4,1.8,2.3V224.3z"/>
		<path class="st5" d="M397,223.9c0,1-0.1,1.7-0.6,2.2c-0.4,0.4-1.1,0.6-1.5,0.6l-0.1-0.7c1.3-0.1,1.4-0.9,1.4-2.5v-4.7h0.8V223.9z
			 M396.6,217.9c-0.3,0-0.5-0.3-0.5-0.6c0-0.3,0.2-0.6,0.6-0.6c0.3,0,0.5,0.2,0.5,0.6C397.2,217.7,397,217.9,396.6,217.9z"/>
		<path class="st5" d="M402.7,223c0,0.4,0,0.9,0.1,1.3h-0.8l-0.1-0.7h0c-0.3,0.4-0.8,0.8-1.6,0.8c-1,0-1.6-0.8-1.6-1.5
			c0-1.3,1.1-2,3.2-2c0-0.5,0-1.5-1.2-1.5c-0.5,0-1,0.1-1.3,0.4l-0.2-0.6c0.4-0.3,1-0.5,1.7-0.5c1.5,0,1.9,1.1,1.9,2.2V223z
			 M401.9,221.5c-1,0-2.3,0.1-2.3,1.3c0,0.7,0.4,1,0.9,1c0.8,0,1.4-0.6,1.4-1.3V221.5z"/>
		<path class="st5" d="M407.4,219.7c-0.2-0.1-0.6-0.3-1.1-0.3c-0.6,0-0.9,0.4-0.9,0.8c0,0.5,0.3,0.7,1,1c0.9,0.4,1.4,0.8,1.4,1.6
			c0,1-0.7,1.6-1.9,1.6c-0.5,0-1.1-0.2-1.4-0.4l0.2-0.6c0.3,0.2,0.8,0.4,1.2,0.4c0.7,0,1.1-0.4,1.1-0.9c0-0.5-0.3-0.8-1-1.1
			c-0.9-0.4-1.4-0.9-1.4-1.5c0-0.8,0.7-1.5,1.8-1.5c0.5,0,1,0.2,1.2,0.3L407.4,219.7z"/>
	</g>
	<g>
		<path class="st5" d="M387.9,145.4c0.4-0.1,1-0.2,1.7-0.2c2.5,0,2.7,1.6,2.7,2.2c0,1.8-1.4,2.4-2.8,2.4c-0.3,0-0.5,0-0.8-0.1v3.1
			h-0.8V145.4z M388.7,149.1c0.2,0.1,0.5,0.1,0.8,0.1c1.2,0,1.9-0.6,1.9-1.7c0-1.1-0.8-1.6-1.8-1.6c-0.4,0-0.7,0-0.9,0.1V149.1z"/>
		<path class="st5" d="M397.9,152.7c-0.3,0.1-0.9,0.3-1.7,0.3c-1.6,0-2.5-1.1-2.5-2.7c0-1.7,1-2.9,2.4-2.9c1.7,0,2.1,1.5,2.1,2.5
			c0,0.2,0,0.3,0,0.5h-3.7c0,1.5,0.9,2.1,1.8,2.1c0.7,0,1.1-0.1,1.4-0.3L397.9,152.7z M397.4,149.7c0-0.7-0.3-1.7-1.4-1.7
			c-1,0-1.4,0.9-1.5,1.7H397.4z"/>
		<path class="st5" d="M402.4,148.2c-0.1,0-0.2,0-0.3,0c-0.9,0-1.4,0.9-1.4,1.8v3h-0.8v-3.8c0-0.6,0-1.1,0-1.6h0.7l0,1h0
			c0.2-0.7,0.8-1.2,1.5-1.2c0.1,0,0.2,0,0.2,0V148.2z"/>
		<path class="st5" d="M407.5,151.7c0,0.4,0,0.9,0.1,1.3h-0.8l-0.1-0.7h0c-0.3,0.4-0.8,0.8-1.6,0.8c-1,0-1.6-0.8-1.6-1.5
			c0-1.3,1.1-2,3.2-2c0-0.5,0-1.5-1.2-1.5c-0.5,0-1,0.1-1.3,0.4l-0.2-0.6c0.4-0.3,1-0.5,1.7-0.5c1.5,0,1.9,1.1,1.9,2.2V151.7z
			 M406.7,150.1c-1,0-2.3,0.1-2.3,1.3c0,0.7,0.4,1,0.9,1c0.8,0,1.4-0.6,1.4-1.3V150.1z"/>
	</g>
	<g>
		<path class="st5" d="M372.6,81.6h-0.8l-0.2-3.4c-0.1-1.1-0.1-2.5-0.1-3.3h0c-0.2,0.9-0.6,1.8-0.9,2.9l-1.4,3.8h-0.6l-1.3-3.7
			c-0.4-1.1-0.7-2.1-0.9-2.9h0c0,0.9-0.1,2.2-0.2,3.4l-0.2,3.3h-0.8l0.5-7.6h1l1.3,3.9c0.3,0.9,0.6,1.8,0.8,2.5h0
			c0.2-0.8,0.5-1.6,0.8-2.5l1.4-3.9h1L372.6,81.6z"/>
		<path class="st5" d="M378.1,80.3c0,0.4,0,0.9,0.1,1.3h-0.8l-0.1-0.7h0c-0.3,0.4-0.8,0.8-1.6,0.8c-1,0-1.6-0.8-1.6-1.5
			c0-1.3,1.1-2,3.2-2c0-0.5,0-1.5-1.2-1.5c-0.5,0-1,0.1-1.3,0.4l-0.2-0.6c0.4-0.3,1-0.5,1.7-0.5c1.5,0,1.9,1.1,1.9,2.2V80.3z
			 M377.3,78.8c-1,0-2.3,0.1-2.3,1.3c0,0.7,0.4,1,0.9,1c0.8,0,1.4-0.6,1.4-1.3V78.8z"/>
		<path class="st5" d="M384.6,81.6h-0.8v-3.2c0-0.9-0.3-1.7-1.3-1.7c-0.7,0-1.4,0.6-1.4,1.5v3.3h-0.8v-4c0-0.6,0-1,0-1.4h0.7l0,0.9
			h0c0.3-0.5,0.9-1,1.7-1c0.7,0,1.8,0.4,1.8,2.3V81.6z"/>
		<path class="st5" d="M390.2,76.2v0.5l-2.5,3.4c-0.2,0.3-0.4,0.5-0.6,0.8v0h3.1v0.7h-4.2v-0.5l2.5-3.4c0.2-0.3,0.4-0.5,0.7-0.8v0
			h-2.9v-0.7H390.2z"/>
		<path class="st5" d="M395.3,80.3c0,0.4,0,0.9,0.1,1.3h-0.8l-0.1-0.7h0c-0.3,0.4-0.8,0.8-1.6,0.8c-1,0-1.6-0.8-1.6-1.5
			c0-1.3,1.1-2,3.2-2c0-0.5,0-1.5-1.2-1.5c-0.5,0-1,0.1-1.3,0.4l-0.2-0.6c0.4-0.3,1-0.5,1.7-0.5c1.5,0,1.9,1.1,1.9,2.2V80.3z
			 M394.5,78.8c-1,0-2.3,0.1-2.3,1.3c0,0.7,0.4,1,0.9,1c0.8,0,1.4-0.6,1.4-1.3V78.8z"/>
		<path class="st5" d="M401.8,81.6H401v-3.2c0-0.9-0.3-1.7-1.3-1.7c-0.7,0-1.4,0.6-1.4,1.5v3.3h-0.8v-4c0-0.6,0-1,0-1.4h0.7l0,0.9h0
			c0.3-0.5,0.9-1,1.7-1c0.7,0,1.8,0.4,1.8,2.3V81.6z"/>
		<path class="st5" d="M407.5,80.3c0,0.4,0,0.9,0.1,1.3h-0.8l-0.1-0.7h0c-0.3,0.4-0.8,0.8-1.6,0.8c-1,0-1.6-0.8-1.6-1.5
			c0-1.3,1.1-2,3.2-2c0-0.5,0-1.5-1.2-1.5c-0.5,0-1,0.1-1.3,0.4l-0.2-0.6c0.4-0.3,1-0.5,1.7-0.5c1.5,0,1.9,1.1,1.9,2.2V80.3z
			 M406.7,78.8c-1,0-2.3,0.1-2.3,1.3c0,0.7,0.4,1,0.9,1c0.8,0,1.4-0.6,1.4-1.3V78.8z"/>
	</g>
	<g>
	</g>
	<g>
	</g>
	<g>
	</g>
	<g>
	</g>
	<g>
	</g>
	<g>
	</g>
	<g>
	</g>
	<g>
	</g>
	<g>
	</g>
	<g>
	</g>
</g>
</svg>
